<svg version="1.1" viewBox="0.0 0.0 292.0 117.0" fill="none" stroke="none" stroke-linecap="square" stroke-miterlimit="10" preserveAspectRatio="none" width="292" height="117" xmlns:xlink="http://www.w3.org/1999/xlink" xmlns="http://www.w3.org/2000/svg"><clipPath id="id_0"><path d="M0 0L292.0 0L292.0 117.0L0 117.0L0 0Z" clip-rule="nonzero"/></clipPath><path fill="#000000" fill-opacity="0.0" clip-path="url(#id_0)" d="M-70.93239 -13.627931L832.5913 -13.627931L832.5913 665.6514L-70.93239 665.6514Z" fill-rule="evenodd"/><path fill="#cfe2f3" clip-path="url(#id_0)" d="M35.14012 0.3547199L259.9761 0.3547199L259.9761 46.70974L35.14012 46.70974Z" fill-rule="evenodd"/><path stroke="#000000" stroke-width="0.7067297530918322" stroke-linejoin="round" stroke-linecap="butt" clip-path="url(#id_0)" d="M35.14012 0.3547199L259.9761 0.3547199L259.9761 46.70974L35.14012 46.70974Z" fill-rule="evenodd"/><path fill="#000000" clip-path="url(#id_0)" d="M42.529778 28.428701L42.529778 18.97584L46.7099 18.97584Q47.967243 18.97584 48.617977 19.230127Q49.279736 19.484413 49.665764 20.136717Q50.06282 20.777964 50.06282 21.562939Q50.06282 22.557976 49.412086 23.254503Q48.761356 23.939974 47.404747 24.127926Q47.90107 24.371157 48.16577 24.603333Q48.70621 25.100851 49.1915 25.852657L50.834873 28.428701L49.268707 28.428701L48.022392 26.460737Q47.470924 25.609426 47.117985 25.167187Q46.765045 24.713892 46.478283 24.536997Q46.20255 24.349045 45.915787 24.28271Q45.70623 24.227428 45.22094 24.227428L43.776093 24.227428L43.776093 28.428701L42.529778 28.428701ZM43.776093 23.154999L46.456226 23.154999Q47.316513 23.154999 47.790775 22.978104Q48.276066 22.790152 48.52974 22.403193Q48.783417 22.016233 48.783417 21.562939Q48.783417 20.888523 48.298126 20.45734Q47.81283 20.026157 46.754017 20.026157L43.776093 20.026157L43.776093 23.154999ZM51.44445 25.001348Q51.44445 23.09972 52.492237 22.193129Q53.374584 21.430265 54.64296 21.430265Q56.054714 21.430265 56.94809 22.358969Q57.84147 23.276615 57.84147 24.912899Q57.84147 26.228561 57.444412 26.991425Q57.047356 27.74323 56.28633 28.163357Q55.536335 28.583485 54.64296 28.583485Q53.209145 28.583485 52.326797 27.665838Q51.44445 26.737137 51.44445 25.001348ZM52.635616 25.001348Q52.635616 26.317009 53.198112 26.980368Q53.77164 27.632671 54.64296 27.632671Q55.503246 27.632671 56.07677 26.980368Q56.6503 26.317009 56.6503 24.96818Q56.6503 23.696743 56.07677 23.04444Q55.503246 22.392136 54.64296 22.392136Q53.77164 22.392136 53.198112 23.04444Q52.635616 23.685686 52.635616 25.001348ZM58.768436 25.001348Q58.768436 23.09972 59.816227 22.193129Q60.698574 21.430265 61.966946 21.430265Q63.378704 21.430265 64.27208 22.358969Q65.16546 23.276615 65.16546 24.912899Q65.16546 26.228561 64.7684 26.991425Q64.371346 27.74323 63.61032 28.163357Q62.860325 28.583485 61.966946 28.583485Q60.533134 28.583485 59.650787 27.665838Q58.768436 26.737137 58.768436 25.001348ZM59.959606 25.001348Q59.959606 26.317009 60.522102 26.980368Q61.09563 27.632671 61.966946 27.632671Q62.827236 27.632671 63.40076 26.980368Q63.97429 26.317009 63.97429 24.96818Q63.97429 23.696743 63.40076 23.04444Q62.827236 22.392136 61.966946 22.392136Q61.09563 22.392136 60.522102 23.04444Q59.959606 23.685686 59.959606 25.001348ZM69.048294 27.389439L69.21373 28.417645Q68.72844 28.517149 68.342415 28.517149Q67.71374 28.517149 67.3608 28.318142Q67.01889 28.119133 66.87551 27.79851Q66.73213 27.466831 66.73213 26.427568L66.73213 22.480585L65.88287 22.480585L65.88287 21.58505L66.73213 21.58505L66.73213 19.893486L67.87918 19.196959L67.87918 21.58505L69.048294 21.58505L69.048294 22.480585L67.87918 22.480585L67.87918 26.493904Q67.87918 26.980368 67.934326 27.124096Q68.0005 27.267824 68.13286 27.356272Q68.27624 27.433662 68.54094 27.433662Q68.72844 27.433662 69.048294 27.389439Z" fill-rule="nonzero"/><path fill="#000000" fill-opacity="0.0" clip-path="url(#id_0)" d="M147.55812 46.70974L62.875008 67.324356" fill-rule="evenodd"/><path stroke="#000000" stroke-width="0.7067297530918322" stroke-linejoin="round" stroke-linecap="butt" clip-path="url(#id_0)" d="M147.55812 46.70974L62.875008 67.324356" fill-rule="evenodd"/><path fill="#000000" fill-opacity="0.0" clip-path="url(#id_0)" d="M147.55812 46.70974L229.1287 67.324356" fill-rule="evenodd"/><path stroke="#000000" stroke-width="0.7067297530918322" stroke-linejoin="round" stroke-linecap="butt" clip-path="url(#id_0)" d="M147.55812 46.70974L229.1287 67.324356" fill-rule="evenodd"/><path fill="#d9ead3" clip-path="url(#id_0)" d="M82.314156 12.713273L104.679924 12.713273L104.679924 34.353046L82.314156 34.353046Z" fill-rule="evenodd"/><path stroke="#000000" stroke-width="0.7067297530918322" stroke-linejoin="round" stroke-linecap="butt" stroke-dasharray="0.7067297530918322,2.1201892592754965" clip-path="url(#id_0)" d="M82.314156 12.713273L104.679924 12.713273L104.679924 34.353046L82.314156 34.353046Z" fill-rule="evenodd"/><path fill="#000000" clip-path="url(#id_0)" d="M93.99423 27.589375Q93.3435 28.131119 92.74792 28.363295Q92.16336 28.584414 91.47954 28.584414Q90.354546 28.584414 89.74793 28.031614Q89.14132 27.478815 89.14132 26.627504Q89.14132 26.11893 89.37293 25.709858Q89.60455 25.289732 89.96852 25.0465Q90.34351 24.792212 90.80675 24.65954Q91.13763 24.571093 91.83248 24.482645Q93.23321 24.316805 93.894966 24.08463Q93.906 23.841398 93.906 23.786118Q93.906 23.078535 93.57511 22.780024Q93.13394 22.393064 92.251595 22.393064Q91.435425 22.393064 91.04939 22.680521Q90.66337 22.967976 90.47587 23.686615L89.33984 23.531832Q89.494255 22.813192 89.8472 22.370953Q90.200134 21.917658 90.872925 21.674427Q91.545715 21.431194 92.41703 21.431194Q93.29938 21.431194 93.83982 21.641258Q94.39129 21.840265 94.64496 22.160889Q94.90967 22.470457 95.00893 22.945864Q95.06408 23.244375 95.06408 24.018293L95.06408 25.566132Q95.06408 27.180304 95.14128 27.611486Q95.21848 28.031614 95.42805 28.42963L94.225845 28.42963Q94.038345 28.064783 93.99423 27.589375ZM93.894966 24.99122Q93.2663 25.256563 92.00895 25.433458Q91.29204 25.532963 90.99425 25.665634Q90.69646 25.798307 90.53101 26.041538Q90.3766 26.28477 90.3766 26.594337Q90.3766 27.058687 90.729546 27.368256Q91.08248 27.677822 91.75527 27.677822Q92.41703 27.677822 92.93541 27.390368Q93.46482 27.091856 93.707466 26.58328Q93.894966 26.185266 93.894966 25.422403L93.894966 24.99122Z" fill-rule="nonzero"/><path fill="#d0e0e3" clip-path="url(#id_0)" d="M113.268105 12.711416L135.63388 12.711416L135.63388 34.35119L113.268105 34.35119Z" fill-rule="evenodd"/><path stroke="#000000" stroke-width="0.7067297530918322" stroke-linejoin="round" stroke-linecap="butt" stroke-dasharray="0.7067297530918322,2.1201892592754965" clip-path="url(#id_0)" d="M113.268105 12.711416L135.63388 12.711416L135.63388 34.35119L113.268105 34.35119Z" fill-rule="evenodd"/><clipPath id="id_1"><path d="M1.4210855E-14 0L292.0 0L292.0 117.0L1.4210855E-14 117.0L1.4210855E-14 0Z" clip-rule="nonzero"/></clipPath><path fill="#000000" clip-path="url(#id_1)" d="M121.55114 28.427773L120.48129 28.427773L120.48129 18.97491L121.63937 18.97491L121.63937 22.346983Q122.37834 21.429338 123.514366 21.429338Q124.143036 21.429338 124.705536 21.683624Q125.26803 21.937912 125.631996 22.402264Q125.995964 22.855558 126.194496 23.507862Q126.40405 24.160164 126.40405 24.900915Q126.40405 26.658815 125.53273 27.620686Q124.67245 28.582556 123.44819 28.582556Q122.24599 28.582556 121.55114 27.565407L121.55114 28.427773ZM121.540115 24.956196Q121.540115 26.183409 121.88202 26.736208Q122.42246 27.631742 123.359955 27.631742Q124.12098 27.631742 124.67245 26.968384Q125.223915 26.305025 125.223915 25.00042Q125.223915 23.662645 124.6945 23.021399Q124.16509 22.380152 123.40407 22.380152Q122.654076 22.380152 122.091576 23.04351Q121.540115 23.70687 121.540115 24.956196Z" fill-rule="nonzero"/><path fill="#d0e0e3" clip-path="url(#id_0)" d="M144.2239 12.711416L166.58968 12.711416L166.58968 34.35119L144.2239 34.35119Z" fill-rule="evenodd"/><path stroke="#000000" stroke-width="0.7067297530918322" stroke-linejoin="round" stroke-linecap="butt" stroke-dasharray="0.7067297530918322,2.1201892592754965" clip-path="url(#id_0)" d="M144.2239 12.711416L166.58968 12.711416L166.58968 34.35119L144.2239 34.35119Z" fill-rule="evenodd"/><path fill="#000000" clip-path="url(#id_0)" d="M152.50694 28.427773L151.4371 28.427773L151.4371 18.97491L152.59518 18.97491L152.59518 22.346983Q153.33414 21.429338 154.47017 21.429338Q155.09883 21.429338 155.66133 21.683624Q156.22383 21.937912 156.5878 22.402264Q156.95177 22.855558 157.1503 23.507862Q157.35985 24.160164 157.35985 24.900915Q157.35985 26.658815 156.48854 27.620686Q155.62825 28.582556 154.40399 28.582556Q153.2018 28.582556 152.50694 27.565407L152.50694 28.427773ZM152.49591 24.956196Q152.49591 26.183409 152.83783 26.736208Q153.37827 27.631742 154.31575 27.631742Q155.07678 27.631742 155.62825 26.968384Q156.17972 26.305025 156.17972 25.00042Q156.17972 23.662645 155.6503 23.021399Q155.1209 22.380152 154.35988 22.380152Q153.60988 22.380152 153.04738 23.04351Q152.49591 23.70687 152.49591 24.956196Z" fill-rule="nonzero"/><path fill="#d9ead3" clip-path="url(#id_0)" d="M172.10794 12.712344L194.47371 12.712344L194.47371 34.352116L172.10794 34.352116Z" fill-rule="evenodd"/><path stroke="#000000" stroke-width="0.7067297530918322" stroke-linejoin="round" stroke-linecap="butt" stroke-dasharray="0.7067297530918322,2.1201892592754965" clip-path="url(#id_0)" d="M172.10794 12.712344L194.47371 12.712344L194.47371 34.352116L172.10794 34.352116Z" fill-rule="evenodd"/><path fill="#000000" clip-path="url(#id_0)" d="M183.78801 27.588446Q183.13728 28.13019 182.54169 28.362366Q181.95714 28.583485 181.27332 28.583485Q180.14833 28.583485 179.54172 28.030685Q178.9351 27.477886 178.9351 26.626575Q178.9351 26.118002 179.16672 25.708931Q179.39833 25.288803 179.7623 25.045572Q180.1373 24.791285 180.60052 24.658611Q180.93141 24.570164 181.62625 24.481716Q183.02698 24.315876 183.68875 24.083702Q183.69977 23.84047 183.69977 23.78519Q183.69977 23.077606 183.3689 22.779095Q182.92772 22.392136 182.04538 22.392136Q181.2292 22.392136 180.84317 22.679592Q180.45715 22.967047 180.26965 23.685686L179.13362 23.530903Q179.28804 22.812263 179.64098 22.370024Q179.99391 21.916729 180.6667 21.673498Q181.3395 21.430265 182.21082 21.430265Q183.09315 21.430265 183.63359 21.64033Q184.18506 21.839338 184.43874 22.159962Q184.70345 22.469528 184.8027 22.944935Q184.85785 23.243446 184.85785 24.017365L184.85785 25.565203Q184.85785 27.179375 184.93506 27.610558Q185.01227 28.030685 185.22182 28.428701L184.01962 28.428701Q183.83212 28.063854 183.78801 27.588446ZM183.68875 24.990292Q183.06007 25.255634 181.80273 25.432531Q181.08582 25.532034 180.78802 25.664705Q180.49023 25.797379 180.3248 26.04061Q180.17038 26.28384 180.17038 26.593409Q180.17038 27.05776 180.52333 27.367327Q180.87627 27.676895 181.54906 27.676895Q182.21082 27.676895 182.72919 27.389439Q183.2586 27.090927 183.50125 26.582352Q183.68875 26.184338 183.68875 25.421474L183.68875 24.990292Z" fill-rule="nonzero"/><path fill="#d0e0e3" clip-path="url(#id_0)" d="M199.99382 12.710487L222.35959 12.710487L222.35959 34.350258L199.99382 34.350258Z" fill-rule="evenodd"/><path stroke="#000000" stroke-width="0.7067297530918322" stroke-linejoin="round" stroke-linecap="butt" stroke-dasharray="0.7067297530918322,2.1201892592754965" clip-path="url(#id_0)" d="M199.99382 12.710487L222.35959 12.710487L222.35959 34.350258L199.99382 34.350258Z" fill-rule="evenodd"/><path fill="#000000" clip-path="url(#id_0)" d="M208.27686 28.426844L207.207 28.426844L207.207 18.973982L208.36508 18.973982L208.36508 22.346056Q209.10405 21.42841 210.24008 21.42841Q210.86874 21.42841 211.43124 21.682697Q211.99374 21.936985 212.35771 22.401335Q212.72168 22.85463 212.92021 23.506933Q213.12976 24.159235 213.12976 24.899986Q213.12976 26.657887 212.25844 27.619757Q211.39816 28.581627 210.1739 28.581627Q208.9717 28.581627 208.27686 27.564478L208.27686 28.426844ZM208.26582 24.955267Q208.26582 26.18248 208.60773 26.73528Q209.14818 27.630814 210.08566 27.630814Q210.8467 27.630814 211.39816 26.967455Q211.94963 26.304096 211.94963 24.99949Q211.94963 23.661716 211.42021 23.02047Q210.89081 22.379223 210.12978 22.379223Q209.37979 22.379223 208.81729 23.042582Q208.26582 23.70594 208.26582 24.955267Z" fill-rule="nonzero"/><path fill="#d0e0e3" clip-path="url(#id_0)" d="M227.87877 12.710487L250.24454 12.710487L250.24454 34.350258L227.87877 34.350258Z" fill-rule="evenodd"/><path stroke="#000000" stroke-width="0.7067297530918322" stroke-linejoin="round" stroke-linecap="butt" stroke-dasharray="0.7067297530918322,2.1201892592754965" clip-path="url(#id_0)" d="M227.87877 12.710487L250.24454 12.710487L250.24454 34.350258L227.87877 34.350258Z" fill-rule="evenodd"/><path fill="#000000" clip-path="url(#id_0)" d="M236.1618 28.426844L235.09196 28.426844L235.09196 18.973982L236.25005 18.973982L236.25005 22.346056Q236.98901 21.42841 238.12503 21.42841Q238.75371 21.42841 239.3162 21.682697Q239.8787 21.936985 240.24266 22.401335Q240.60663 22.85463 240.80516 23.506933Q241.01472 24.159235 241.01472 24.899986Q241.01472 26.657887 240.1434 27.619757Q239.28311 28.581627 238.05885 28.581627Q236.85666 28.581627 236.1618 27.564478L236.1618 28.426844ZM236.15077 24.955267Q236.15077 26.18248 236.49269 26.73528Q237.03313 27.630814 237.97063 27.630814Q238.73164 27.630814 239.28311 26.967455Q239.83458 26.304096 239.83458 24.99949Q239.83458 23.661716 239.30518 23.02047Q238.77576 22.379223 238.01474 22.379223Q237.26474 22.379223 236.70224 23.042582Q236.15077 23.70594 236.15077 24.955267Z" fill-rule="nonzero"/><path fill="#cfe2f3" clip-path="url(#id_0)" d="M0.3538653 67.32621L125.41097 67.32621L125.41097 116.64528L0.3538653 116.64528Z" fill-rule="evenodd"/><path stroke="#000000" stroke-width="0.7067297530918322" stroke-linejoin="round" stroke-linecap="butt" clip-path="url(#id_0)" d="M0.3538653 67.32621L125.41097 67.32621L125.41097 116.64528L0.3538653 116.64528Z" fill-rule="evenodd"/><path fill="#ead1dc" clip-path="url(#id_0)" d="M3.03194 73.21345L41.227158 73.21345L41.227158 110.74319L3.03194 110.74319Z" fill-rule="evenodd"/><path stroke="#000000" stroke-width="0.7067297530918322" stroke-linejoin="round" stroke-linecap="butt" clip-path="url(#id_0)" d="M3.03194 73.21345L41.227158 73.21345L41.227158 110.74319L3.03194 110.74319Z" fill-rule="evenodd"/><clipPath id="id_2"><path d="M4.440892E-16 0L292.0 0L292.0 117.0L4.440892E-16 117.0L4.440892E-16 0Z" clip-rule="nonzero"/></clipPath><path fill="#000000" clip-path="url(#id_2)" d="M19.695026 96.87479L19.695026 87.42193L20.941343 87.42193L20.941343 96.87479L19.695026 96.87479ZM23.276602 96.87479L23.276602 90.926674L22.250872 90.926674L22.250872 90.031136L23.276602 90.031136L23.276602 89.301445Q23.276602 88.615974 23.397924 88.27323Q23.563364 87.81994 23.98248 87.54354Q24.401594 87.26714 25.162619 87.26714Q25.64791 87.26714 26.243494 87.3777L26.067024 88.39485Q25.714087 88.328514 25.394236 88.328514Q24.864826 88.328514 24.64424 88.56069Q24.423653 88.78181 24.423653 89.40095L24.423653 90.031136L25.758204 90.031136L25.758204 90.926674L24.423653 90.926674L24.423653 96.87479L23.276602 96.87479Z" fill-rule="nonzero"/><path fill="#ead1dc" clip-path="url(#id_0)" d="M49.143604 73.21345L117.619316 73.21345L117.619316 110.74319L49.143604 110.74319Z" fill-rule="evenodd"/><path stroke="#000000" stroke-width="0.7067297530918322" stroke-linejoin="round" stroke-linecap="butt" clip-path="url(#id_0)" d="M49.143604 73.21345L117.619316 73.21345L117.619316 110.74319L49.143604 110.74319Z" fill-rule="evenodd"/><clipPath id="id_3"><path d="M7.1054274E-15 0L292.0 0L292.0 117.0L7.1054274E-15 117.0L7.1054274E-15 0Z" clip-rule="nonzero"/></clipPath><path fill="#000000" clip-path="url(#id_3)" d="M58.408253 95.22922L58.551636 96.11369Q58.13252 96.20214 57.80164 96.20214Q57.2612 96.20214 56.96341 96.0363Q56.665615 95.859406 56.544292 95.58301Q56.42297 95.295555 56.42297 94.40002L56.42297 91.02795L55.695034 91.02795L55.695034 90.25403L56.42297 90.25403L56.42297 88.79464L57.41561 88.19762L57.41561 90.25403L58.408253 90.25403L58.408253 91.02795L57.41561 91.02795L57.41561 94.4553Q57.41561 94.88648 57.45973 95.008095Q57.514877 95.129715 57.6362 95.20711Q57.757523 95.27344 57.978107 95.27344Q58.143547 95.27344 58.408253 95.22922ZM59.37332 96.12475L59.37332 90.25403L60.266697 90.25403L60.266697 91.138504Q60.60861 90.51937 60.89537 90.32036Q61.182133 90.12135 61.535072 90.12135Q62.03139 90.12135 62.54977 90.44198L62.207863 91.35963Q61.84389 91.14956 61.479923 91.14956Q61.160072 91.14956 60.89537 91.34857Q60.641693 91.53652 60.531403 91.89031Q60.36596 92.421 60.36596 93.051186L60.36596 96.12475L59.37332 96.12475ZM66.98357 96.12475L66.98357 95.26238Q66.29974 96.25742 65.119606 96.25742Q64.60123 96.25742 64.149025 96.05842Q63.70785 95.859406 63.487267 95.5609Q63.266678 95.25133 63.178444 94.820145Q63.123295 94.52164 63.123295 93.89144L63.123295 90.25403L64.11594 90.25403L64.11594 93.504486Q64.11594 94.28946 64.17108 94.5548Q64.27035 94.95282 64.56814 95.173935Q64.87696 95.39506 65.31814 95.39506Q65.77034 95.39506 66.156364 95.173935Q66.55342 94.941765 66.70783 94.54375Q66.873276 94.14573 66.873276 93.39392L66.873276 90.25403L67.86591 90.25403L67.86591 96.12475L66.98357 96.12475ZM73.430214 94.23418L74.45595 94.3558Q74.2133 95.26238 73.55154 95.7599Q72.90081 96.25742 71.88611 96.25742Q70.59567 96.25742 69.84568 95.461395Q69.09569 94.66536 69.09569 93.23914Q69.09569 91.75764 69.85671 90.9395Q70.61774 90.12135 71.83096 90.12135Q73.00007 90.12135 73.73904 90.928444Q74.48904 91.72447 74.48904 93.172806Q74.48904 93.26125 74.48904 93.43815L70.121414 93.43815Q70.17656 94.41107 70.66185 94.9307Q71.15817 95.43928 71.88611 95.43928Q72.43758 95.43928 72.8236 95.151825Q73.20963 94.86437 73.430214 94.23418ZM70.17656 92.62L73.441246 92.62Q73.37507 91.87926 73.066246 91.514404Q72.59199 90.9395 71.84199 90.9395Q71.15817 90.9395 70.68391 91.40385Q70.22068 91.85714 70.17656 92.62Z" fill-rule="nonzero"/><path fill="#fce5cd" clip-path="url(#id_0)" d="M89.66075 81.1575L112.02651 81.1575L112.02651 102.79727L89.66075 102.79727Z" fill-rule="evenodd"/><path stroke="#000000" stroke-width="0.7067297530918322" stroke-linejoin="round" stroke-linecap="butt" stroke-dasharray="0.7067297530918322,2.1201892592754965" clip-path="url(#id_0)" d="M89.66075 81.1575L112.02651 81.1575L112.02651 102.79727L89.66075 102.79727Z" fill-rule="evenodd"/><path fill="#000000" clip-path="url(#id_0)" d="M101.34082 94.36415L102.476845 94.518936Q102.289345 95.69087 101.51729 96.36528Q100.75626 97.02864 99.63127 97.02864Q98.230545 97.02864 97.38129 96.111Q96.53203 95.19335 96.53203 93.479675Q96.53203 92.36302 96.895996 91.53382Q97.259964 90.70462 98.00996 90.29555Q98.75996 89.87543 99.6423 89.87543Q100.75626 89.87543 101.46214 90.43928Q102.16802 91.003136 102.36655 92.0424L101.241554 92.20824Q101.07612 91.522766 100.66803 91.18003Q100.25995 90.82624 99.68642 90.82624Q98.8151 90.82624 98.26363 91.45643Q97.712166 92.08662 97.712166 93.4465Q97.712166 94.82851 98.24158 95.458694Q98.77098 96.07783 99.62025 96.07783Q100.30406 96.07783 100.75626 95.6577Q101.2195 95.23757 101.34082 94.36415Z" fill-rule="nonzero"/><path fill="#cfe2f3" clip-path="url(#id_0)" d="M166.58904 67.32621L291.64615 67.32621L291.64615 116.64528L166.58904 116.64528Z" fill-rule="evenodd"/><path stroke="#000000" stroke-width="0.7067297530918322" stroke-linejoin="round" stroke-linecap="butt" clip-path="url(#id_0)" d="M166.58904 67.32621L291.64615 67.32621L291.64615 116.64528L166.58904 116.64528Z" fill-rule="evenodd"/><path fill="#ead1dc" clip-path="url(#id_0)" d="M169.2671 73.21345L207.46233 73.21345L207.46233 110.74319L169.2671 110.74319Z" fill-rule="evenodd"/><path stroke="#000000" stroke-width="0.7067297530918322" stroke-linejoin="round" stroke-linecap="butt" clip-path="url(#id_0)" d="M169.2671 73.21345L207.46233 73.21345L207.46233 110.74319L169.2671 110.74319Z" fill-rule="evenodd"/><path fill="#000000" clip-path="url(#id_0)" d="M185.93019 96.87479L185.93019 87.42193L187.17651 87.42193L187.17651 96.87479L185.93019 96.87479ZM189.51176 96.87479L189.51176 90.926674L188.48604 90.926674L188.48604 90.031136L189.51176 90.031136L189.51176 89.301445Q189.51176 88.615974 189.63309 88.27323Q189.79852 87.81994 190.21765 87.54354Q190.63676 87.26714 191.39778 87.26714Q191.88307 87.26714 192.47865 87.3777L192.30219 88.39485Q191.94925 88.328514 191.6294 88.328514Q191.09999 88.328514 190.87941 88.56069Q190.65881 88.78181 190.65881 89.40095L190.65881 90.031136L191.99336 90.031136L191.99336 90.926674L190.65881 90.926674L190.65881 96.87479L189.51176 96.87479Z" fill-rule="nonzero"/><path fill="#ead1dc" clip-path="url(#id_0)" d="M215.37877 73.21345L283.8545 73.21345L283.8545 110.74319L215.37877 110.74319Z" fill-rule="evenodd"/><path stroke="#000000" stroke-width="0.7067297530918322" stroke-linejoin="round" stroke-linecap="butt" clip-path="url(#id_0)" d="M215.37877 73.21345L283.8545 73.21345L283.8545 110.74319L215.37877 110.74319Z" fill-rule="evenodd"/><clipPath id="id_4"><path d="M2.842171E-14 0L292.0 0L292.0 117.0L2.842171E-14 117.0L2.842171E-14 0Z" clip-rule="nonzero"/></clipPath><path fill="#000000" clip-path="url(#id_4)" d="M222.71329 96.12475L222.71329 91.02795L221.84196 91.02795L221.84196 90.25403L222.71329 90.25403L222.71329 89.62383Q222.71329 89.03787 222.82358 88.75041Q222.96696 88.36346 223.3199 88.120224Q223.68387 87.87699 224.3346 87.87699Q224.75371 87.87699 225.26106 87.976494L225.11768 88.849915Q224.80885 88.79464 224.53313 88.79464Q224.08092 88.79464 223.89342 88.993645Q223.70592 89.181595 223.70592 89.71228L223.70592 90.25403L224.84195 90.25403L224.84195 91.02795L223.70592 91.02795L223.70592 96.12475L222.71329 96.12475ZM229.43567 95.39506Q228.8842 95.87046 228.37685 96.06947Q227.8695 96.25742 227.28494 96.25742Q226.31436 96.25742 225.79599 95.78201Q225.2776 95.30661 225.2776 94.57691Q225.2776 94.14573 225.47614 93.79194Q225.67467 93.42709 225.98349 93.217026Q226.30333 92.99591 226.7004 92.885345Q226.99818 92.80796 227.58273 92.74162Q228.78494 92.59789 229.35846 92.39889Q229.35846 92.18882 229.35846 92.133545Q229.35846 91.52547 229.08273 91.282234Q228.6967 90.9395 227.9467 90.9395Q227.25186 90.9395 226.90994 91.19379Q226.57907 91.43702 226.42465 92.05615L225.45407 91.92348Q225.58643 91.304344 225.88422 90.91738Q226.19304 90.530426 226.76657 90.33142Q227.34009 90.12135 228.09009 90.12135Q228.84009 90.12135 229.30331 90.29825Q229.77757 90.47514 229.99817 90.740486Q230.21875 91.00584 230.30699 91.4149Q230.36214 91.66919 230.36214 92.33255L230.36214 93.65927Q230.36214 95.05232 230.41728 95.41717Q230.48346 95.78201 230.67096 96.12475L229.6342 96.12475Q229.47978 95.815186 229.43567 95.39506ZM229.35846 93.172806Q228.81802 93.39392 227.73715 93.548706Q227.1195 93.63715 226.86583 93.74772Q226.61215 93.85828 226.46878 94.07939Q226.33643 94.28946 226.33643 94.54375Q226.33643 94.941765 226.63422 95.20711Q226.94304 95.47245 227.51656 95.47245Q228.09009 95.47245 228.53127 95.22922Q228.98346 94.97493 229.19302 94.53269Q229.35846 94.20101 229.35846 93.53765L229.35846 93.172806ZM231.87866 96.12475L231.87866 88.02072L232.8713 88.02072L232.8713 96.12475L231.87866 96.12475ZM234.01285 94.36685L234.99446 94.21207Q235.07166 94.80909 235.44666 95.129715Q235.83269 95.43928 236.50548 95.43928Q237.1893 95.43928 237.52017 95.16288Q237.85106 94.87543 237.85106 94.49952Q237.85106 94.16784 237.56429 93.968834Q237.35474 93.83617 236.54959 93.63715Q235.45769 93.360756 235.02754 93.16175Q234.60843 92.95168 234.38785 92.59789Q234.17828 92.2441 234.17828 91.81292Q234.17828 91.4149 234.35475 91.08322Q234.53122 90.75155 234.84004 90.530426Q235.07166 90.35353 235.46872 90.24297Q235.8768 90.12135 236.32901 90.12135Q237.02385 90.12135 237.54224 90.32036Q238.06061 90.51937 238.30325 90.86211Q238.55693 91.19379 238.6562 91.76869L237.68561 91.90137Q237.61945 91.448074 237.29959 91.19379Q236.97974 90.9395 236.4062 90.9395Q235.7224 90.9395 235.4246 91.17167Q235.13783 91.39279 235.13783 91.69131Q235.13783 91.89031 235.25916 92.0451Q235.38048 92.199875 235.63416 92.31044Q235.78857 92.365715 236.51651 92.56473Q237.56429 92.841125 237.98341 93.029076Q238.40253 93.20597 238.63414 93.548706Q238.87679 93.89144 238.87679 94.40002Q238.87679 94.89754 238.579 95.339775Q238.29224 95.77096 237.74077 96.01419Q237.20032 96.25742 236.51651 96.25742Q235.36946 96.25742 234.77386 95.78201Q234.17828 95.30661 234.01285 94.36685ZM244.06058 94.23418L245.0863 94.3558Q244.84366 95.26238 244.1819 95.7599Q243.53117 96.25742 242.51646 96.25742Q241.22603 96.25742 240.47604 95.461395Q239.72604 94.66536 239.72604 93.23914Q239.72604 91.75764 240.48706 90.9395Q241.2481 90.12135 242.46132 90.12135Q243.63043 90.12135 244.3694 90.928444Q245.11938 91.72447 245.11938 93.172806Q245.11938 93.26125 245.11938 93.43815L240.75177 93.43815Q240.80692 94.41107 241.2922 94.9307Q241.78853 95.43928 242.51646 95.43928Q243.06793 95.43928 243.45396 95.151825Q243.83998 94.86437 244.06058 94.23418ZM240.80692 92.62L244.07161 92.62Q244.00543 91.87926 243.69661 91.514404Q243.22235 90.9395 242.47235 90.9395Q241.78853 90.9395 241.31427 91.40385Q240.85104 91.85714 240.80692 92.62Z" fill-rule="nonzero"/><path fill="#fce5cd" clip-path="url(#id_0)" d="M255.89592 81.1575L278.2617 81.1575L278.2617 102.79727L255.89592 102.79727Z" fill-rule="evenodd"/><path stroke="#000000" stroke-width="0.7067297530918322" stroke-linejoin="round" stroke-linecap="butt" stroke-dasharray="0.7067297530918322,2.1201892592754965" clip-path="url(#id_0)" d="M255.89592 81.1575L278.2617 81.1575L278.2617 102.79727L255.89592 102.79727Z" fill-rule="evenodd"/><path fill="#000000" clip-path="url(#id_0)" d="M267.5429 96.873856L267.5429 96.01149Q266.9032 97.02864 265.63483 97.02864Q264.81866 97.02864 264.13483 96.57535Q263.45102 96.122055 263.07602 95.314964Q262.70102 94.50788 262.70102 93.45756Q262.70102 92.42935 263.04294 91.60016Q263.38483 90.7599 264.05762 90.317665Q264.74146 89.87543 265.5907 89.87543Q266.20834 89.87543 266.68262 90.14077Q267.1679 90.39506 267.4657 90.815186L267.4657 87.421L268.62378 87.421L268.62378 96.873856L267.5429 96.873856ZM263.89218 93.45756Q263.89218 94.773224 264.44366 95.42552Q264.99512 96.07783 265.74512 96.07783Q266.50613 96.07783 267.03555 95.458694Q267.56497 94.82851 267.56497 93.55707Q267.56497 92.152954 267.0245 91.500656Q266.48407 90.837296 265.68997 90.837296Q264.92896 90.837296 264.41055 91.46748Q263.89218 92.09768 263.89218 93.45756Z" fill-rule="nonzero"/></svg>