<svg version="1.1" viewBox="0.0 0.0 583.0 33.0" fill="none" stroke="none" stroke-linecap="square" stroke-miterlimit="10" preserveAspectRatio="none" width="583" height="33" xmlns:xlink="http://www.w3.org/1999/xlink" xmlns="http://www.w3.org/2000/svg"><clipPath id="id_0"><path d="M0 0L583.0 0L583.0 33.0L0 33.0L0 0Z" clip-rule="nonzero"/></clipPath><path fill="#000000" fill-opacity="0.0" clip-path="url(#id_0)" d="M-5.7342677 -3.64448L583.0 -3.64448L583.0 444.4244L-5.7342677 444.4244Z" fill-rule="evenodd"/><path fill="#cfe2f3" clip-path="url(#id_0)" d="M207.83824 0.23398173L318.5591 0.23398173L318.5591 32.766018L207.83824 32.766018Z" fill-rule="evenodd"/><path stroke="#000000" stroke-width="0.46333110432708835" stroke-linejoin="round" stroke-linecap="butt" clip-path="url(#id_0)" d="M207.83824 0.23398173L318.5591 0.23398173L318.5591 32.766018L207.83824 32.766018Z" fill-rule="evenodd"/><path fill="#cfe2f3" clip-path="url(#id_0)" d="M0.23057793 4.122244L52.845806 4.122244L52.845806 28.877756L0.23057793 28.877756Z" fill-rule="evenodd"/><path stroke="#000000" stroke-width="0.46333110432708835" stroke-linejoin="round" stroke-linecap="butt" clip-path="url(#id_0)" d="M0.23057793 4.122244L52.845806 4.122244L52.845806 28.877756L0.23057793 28.877756Z" fill-rule="evenodd"/><path fill="#000000" clip-path="url(#id_0)" d="M18.150986 19.729828L18.150986 13.494494L20.874744 13.494494Q21.694027 13.494494 22.118042 13.662229Q22.549244 13.829963 22.80078 14.260238Q23.0595 14.683219 23.0595 15.201007Q23.0595 15.857358 22.635485 16.316803Q22.21147 16.768957 21.327505 16.892935Q21.650908 17.053375 21.82339 17.206524Q22.175537 17.534698 22.49175 18.03061L23.562569 19.729828L22.542057 19.729828L21.729961 18.431713Q21.370626 17.870167 21.140652 17.578457Q20.910677 17.279451 20.723824 17.162767Q20.544155 17.03879 20.357302 16.995033Q20.220755 16.958569 19.90454 16.958569L18.963083 16.958569L18.963083 19.729828L18.150986 19.729828ZM18.963083 16.25117L20.70945 16.25117Q21.270012 16.25117 21.57904 16.134483Q21.895256 16.010508 22.060549 15.7552595Q22.225843 15.500011 22.225843 15.201007Q22.225843 14.756147 21.909628 14.471728Q21.593414 14.187309 20.90349 14.187309L18.963083 14.187309L18.963083 16.25117ZM23.959766 17.469065Q23.959766 16.214705 24.642504 15.616696Q25.21744 15.113494 26.04391 15.113494Q26.963806 15.113494 27.545929 15.726088Q28.128052 16.331388 28.128052 17.410723Q28.128052 18.278564 27.869331 18.781767Q27.61061 19.277676 27.114727 19.554802Q26.626032 19.831928 26.04391 19.831928Q25.109638 19.831928 24.534702 19.226625Q23.959766 18.614033 23.959766 17.469065ZM24.735931 17.469065Q24.735931 18.336906 25.102451 18.774473Q25.47616 19.204748 26.04391 19.204748Q26.604471 19.204748 26.97818 18.774473Q27.351889 18.336906 27.351889 17.447186Q27.351889 16.608515 26.97818 16.17824Q26.604471 15.747966 26.04391 15.747966Q25.47616 15.747966 25.102451 16.17824Q24.735931 16.601223 24.735931 17.469065ZM28.732065 17.469065Q28.732065 16.214705 29.4148 15.616696Q29.989738 15.113494 30.816208 15.113494Q31.736105 15.113494 32.31823 15.726088Q32.900352 16.331388 32.900352 17.410723Q32.900352 18.278564 32.64163 18.781767Q32.382908 19.277676 31.887026 19.554802Q31.39833 19.831928 30.816208 19.831928Q29.881937 19.831928 29.307001 19.226625Q28.732065 18.614033 28.732065 17.469065ZM29.508228 17.469065Q29.508228 18.336906 29.87475 18.774473Q30.248459 19.204748 30.816208 19.204748Q31.37677 19.204748 31.750479 18.774473Q32.124187 18.336906 32.124187 17.447186Q32.124187 16.608515 31.750479 16.17824Q31.37677 15.747966 30.816208 15.747966Q30.248459 15.747966 29.87475 16.17824Q29.508228 16.601223 29.508228 17.469065ZM35.430397 19.044306L35.5382 19.722536Q35.221985 19.788172 34.97045 19.788172Q34.560806 19.788172 34.330833 19.6569Q34.108047 19.52563 34.014618 19.31414Q33.921192 19.095356 33.921192 18.409834L33.921192 15.806309L33.367817 15.806309L33.367817 15.215592L33.921192 15.215592L33.921192 14.099796L34.66861 13.64035L34.66861 15.215592L35.430397 15.215592L35.430397 15.806309L34.66861 15.806309L34.66861 18.45359Q34.66861 18.774473 34.70454 18.86928Q34.74766 18.964087 34.8339 19.022429Q34.92733 19.073477 35.09981 19.073477Q35.221985 19.073477 35.430397 19.044306Z" fill-rule="nonzero"/><path fill="#d9ead3" clip-path="url(#id_0)" d="M58.003025 4.122244L82.89095 4.122244L82.89095 28.877756L58.003025 28.877756Z" fill-rule="evenodd"/><path stroke="#000000" stroke-width="0.46333110432708835" stroke-linejoin="round" stroke-linecap="butt" clip-path="url(#id_0)" d="M58.003025 4.122244L82.89095 4.122244L82.89095 28.877756L58.003025 28.877756Z" fill-rule="evenodd"/><path fill="#000000" clip-path="url(#id_0)" d="M67.570915 19.729828L69.928154 13.494494L70.80493 13.494494L73.320274 19.729828L72.39319 19.729828L71.68171 17.840996L69.10887 17.840996L68.43332 19.729828L67.570915 19.729828ZM69.34603 17.17006L71.43017 17.17006L70.78337 15.441669Q70.4959 14.654048 70.352165 14.150846Q70.229996 14.748855 70.021576 15.33957L69.34603 17.17006Z" fill-rule="nonzero"/><path fill="#d0e0e3" clip-path="url(#id_0)" d="M107.778885 4.1173434L132.66681 4.1173434L132.66681 28.872856L107.778885 28.872856Z" fill-rule="evenodd"/><path stroke="#000000" stroke-width="0.46333110432708835" stroke-linejoin="round" stroke-linecap="butt" clip-path="url(#id_0)" d="M107.778885 4.1173434L132.66681 4.1173434L132.66681 28.872856L107.778885 28.872856Z" fill-rule="evenodd"/><path fill="#000000" clip-path="url(#id_0)" d="M117.98639 19.724928L117.98639 13.489594L120.29332 13.489594Q120.99762 13.489594 121.42163 13.679207Q121.84565 13.868819 122.08281 14.26263Q122.327156 14.656441 122.327156 15.086715Q122.327156 15.487819 122.11156 15.845165Q121.90314 16.195219 121.47194 16.40671Q122.025314 16.574444 122.327156 16.975548Q122.629 17.37665 122.629 17.916317Q122.629 18.353884 122.44215 18.733109Q122.262474 19.105042 121.98938 19.30924Q121.72347 19.513437 121.32102 19.62283Q120.918564 19.724928 120.329254 19.724928L117.98639 19.724928ZM118.80567 16.107706L120.12803 16.107706Q120.67422 16.107706 120.90419 16.04207Q121.21322 15.947265 121.37132 15.72848Q121.529434 15.509697 121.529434 15.181521Q121.529434 14.875224 121.37851 14.641855Q121.23478 14.401193 120.961685 14.31368Q120.68859 14.226166 120.02741 14.226166L118.80567 14.226166L118.80567 16.107706ZM118.80567 18.988358L120.329254 18.988358Q120.724525 18.988358 120.88263 18.959187Q121.16291 18.908136 121.34976 18.791452Q121.54381 18.667475 121.66598 18.441399Q121.788155 18.21532 121.788155 17.916317Q121.788155 17.566263 121.60849 17.311016Q121.436005 17.055767 121.11979 16.953669Q120.81076 16.844276 120.22145 16.844276L118.80567 16.844276L118.80567 18.988358Z" fill-rule="nonzero"/><path fill="#d0e0e3" clip-path="url(#id_0)" d="M157.55475 4.1124434L182.44267 4.1124434L182.44267 28.867956L157.55475 28.867956Z" fill-rule="evenodd"/><path stroke="#000000" stroke-width="0.46333110432708835" stroke-linejoin="round" stroke-linecap="butt" clip-path="url(#id_0)" d="M157.55475 4.1124434L182.44267 4.1124434L182.44267 28.867956L157.55475 28.867956Z" fill-rule="evenodd"/><path fill="#000000" clip-path="url(#id_0)" d="M167.76225 19.720028L167.76225 13.4846945L170.06918 13.4846945Q170.77348 13.4846945 171.1975 13.674307Q171.6215 13.863919 171.85867 14.2577305Q172.10301 14.651541 172.10301 15.081815Q172.10301 15.482919 171.88742 15.840265Q171.679 16.19032 171.2478 16.40181Q171.80118 16.569544 172.10301 16.970648Q172.40486 17.37175 172.40486 17.911417Q172.40486 18.348984 172.218 18.728209Q172.03833 19.100142 171.76524 19.304338Q171.49933 19.508537 171.09688 19.61793Q170.69443 19.720028 170.10512 19.720028L167.76225 19.720028ZM168.58153 16.102806L169.90388 16.102806Q170.45007 16.102806 170.68005 16.03717Q170.98907 15.942364 171.14719 15.72358Q171.3053 15.504797 171.3053 15.176621Q171.3053 14.870324 171.15437 14.636955Q171.01064 14.396293 170.73755 14.30878Q170.46445 14.221266 169.80327 14.221266L168.58153 14.221266L168.58153 16.102806ZM168.58153 18.983458L170.10512 18.983458Q170.50038 18.983458 170.6585 18.954285Q170.93877 18.903236 171.12563 18.78655Q171.31967 18.662575 171.44183 18.436497Q171.56401 18.21042 171.56401 17.911417Q171.56401 17.561363 171.38435 17.306116Q171.21187 17.050867 170.89565 16.948769Q170.58662 16.839376 169.99731 16.839376L168.58153 16.839376L168.58153 18.983458Z" fill-rule="nonzero"/><path fill="#fce5cd" clip-path="url(#id_0)" d="M272.31134 4.1173434L297.19925 4.1173434L297.19925 28.872856L272.31134 28.872856Z" fill-rule="evenodd"/><path stroke="#000000" stroke-width="0.46333110432708835" stroke-linejoin="round" stroke-linecap="butt" clip-path="url(#id_0)" d="M272.31134 4.1173434L297.19925 4.1173434L297.19925 28.872856L272.31134 28.872856Z" fill-rule="evenodd"/><path fill="#000000" clip-path="url(#id_0)" d="M286.70193 17.537092L287.514 17.748583Q287.2553 18.76228 286.59412 19.301947Q285.93295 19.83432 284.96994 19.83432Q283.97818 19.83432 283.35294 19.425924Q282.73486 19.010235 282.40427 18.2372Q282.08087 17.456871 282.08087 16.559858Q282.08087 15.589917 282.4474 14.867931Q282.81393 14.138653 283.48947 13.766721Q284.1722 13.387496 284.9843 13.387496Q285.9042 13.387496 286.52945 13.8615265Q287.16187 14.335558 287.40622 15.2034L286.6085 15.393012Q286.39288 14.714783 285.98325 14.408486Q285.5808 14.094896 284.96994 14.094896Q284.25845 14.094896 283.78412 14.437657Q283.3098 14.780418 283.11575 15.363841Q282.92172 15.939971 282.92172 16.559858Q282.92172 17.354773 283.1517 17.945488Q283.38168 18.536203 283.8632 18.835209Q284.3447 19.12692 284.90524 19.12692Q285.58798 19.12692 286.06232 18.725817Q286.53662 18.324713 286.70193 17.537092Z" fill-rule="nonzero"/><path fill="#ead1dc" clip-path="url(#id_0)" d="M212.22043 4.1173434L237.10835 4.1173434L237.10835 28.872856L212.22043 28.872856Z" fill-rule="evenodd"/><path stroke="#000000" stroke-width="0.46333110432708835" stroke-linejoin="round" stroke-linecap="butt" clip-path="url(#id_0)" d="M212.22043 4.1173434L237.10835 4.1173434L237.10835 28.872856L212.22043 28.872856Z" fill-rule="evenodd"/><path fill="#000000" clip-path="url(#id_0)" d="M223.07806 19.724928L223.07806 13.489594L223.89015 13.489594L223.89015 19.724928L223.07806 19.724928ZM225.4118 19.724928L225.4118 15.801409L224.74344 15.801409L224.74344 15.210692L225.4118 15.210692L225.4118 14.729368Q225.4118 14.277216 225.49086 14.051139Q225.59866 13.752135 225.87175 13.569816Q226.14485 13.387496 226.64073 13.387496Q226.95695 13.387496 227.34503 13.460423L227.23004 14.13136Q227.00006 14.087604 226.79166 14.087604Q226.44669 14.087604 226.30296 14.240752Q226.15923 14.386607 226.15923 14.795004L226.15923 15.210692L227.02881 15.210692L227.02881 15.801409L226.15923 15.801409L226.15923 19.724928L225.4118 19.724928Z" fill-rule="nonzero"/><path fill="#ead1dc" clip-path="url(#id_0)" d="M242.26558 4.1173434L267.1535 4.1173434L267.1535 28.872856L242.26558 28.872856Z" fill-rule="evenodd"/><path stroke="#000000" stroke-width="0.46333110432708835" stroke-linejoin="round" stroke-linecap="butt" clip-path="url(#id_0)" d="M242.26558 4.1173434L267.1535 4.1173434L267.1535 28.872856L242.26558 28.872856Z" fill-rule="evenodd"/><clipPath id="id_1"><path d="M-2.842171E-14 0L583.0 0L583.0 33.0L-2.842171E-14 33.0L-2.842171E-14 0Z" clip-rule="nonzero"/></clipPath><path fill="#000000" clip-path="url(#id_1)" d="M250.26637 18.639471L250.35979 19.222895Q250.0867 19.281237 249.8711 19.281237Q249.51895 19.281237 249.3249 19.171844Q249.13086 19.05516 249.05182 18.87284Q248.97276 18.683228 248.97276 18.092512L248.97276 15.868212L248.49844 15.868212L248.49844 15.357717L248.97276 15.357717L248.97276 14.395068L249.61957 14.001258L249.61957 15.357717L250.26637 15.357717L250.26637 15.868212L249.61957 15.868212L249.61957 18.128975Q249.61957 18.413395 249.64832 18.493616Q249.68425 18.573835 249.76329 18.624886Q249.84235 18.668642 249.98608 18.668642Q250.09389 18.668642 250.26637 18.639471ZM250.8952 19.230186L250.8952 15.357717L251.47733 15.357717L251.47733 15.941139Q251.7001 15.532743 251.88696 15.401473Q252.07382 15.270203 252.30379 15.270203Q252.6272 15.270203 252.96497 15.481694L252.74219 16.086996Q252.50502 15.948432 252.26787 15.948432Q252.05945 15.948432 251.88696 16.079702Q251.72166 16.20368 251.64981 16.43705Q251.542 16.787104 251.542 17.202791L251.542 19.230186L250.8952 19.230186ZM255.85402 19.230186L255.85402 18.66135Q255.40845 19.3177 254.63947 19.3177Q254.3017 19.3177 254.00703 19.18643Q253.71957 19.05516 253.57584 18.858255Q253.4321 18.654057 253.37462 18.369638Q253.33868 18.172733 253.33868 17.757044L253.33868 15.357717L253.98547 15.357717L253.98547 17.501797Q253.98547 18.019585 254.02141 18.19461Q254.08609 18.457151 254.28014 18.603006Q254.48137 18.748863 254.76883 18.748863Q255.06349 18.748863 255.31502 18.603006Q255.57375 18.449858 255.67436 18.187319Q255.78215 17.924778 255.78215 17.428867L255.78215 15.357717L256.42896 15.357717L256.42896 19.230186L255.85402 19.230186ZM260.05466 17.98312L260.72302 18.063341Q260.5649 18.66135 260.1337 18.989525Q259.7097 19.3177 259.04852 19.3177Q258.20767 19.3177 257.71896 18.79262Q257.2303 18.267538 257.2303 17.326769Q257.2303 16.349535 257.72617 15.809869Q258.22205 15.270203 259.01257 15.270203Q259.77435 15.270203 260.2559 15.802576Q260.74457 16.327658 260.74457 17.283012Q260.74457 17.341354 260.74457 17.45804L257.89865 17.45804Q257.93457 18.099804 258.2508 18.442566Q258.5742 18.778034 259.04852 18.778034Q259.40784 18.778034 259.6594 18.58842Q259.91092 18.39881 260.05466 17.98312ZM257.93457 16.918373L260.06183 16.918373Q260.0187 16.429756 259.81747 16.189095Q259.50845 15.809869 259.01978 15.809869Q258.5742 15.809869 258.26517 16.116167Q257.96332 16.41517 257.93457 16.918373Z" fill-rule="nonzero"/><path fill="#d9ead3" clip-path="url(#id_0)" d="M88.04859 9.362945L102.622086 9.362945L102.622086 23.637056L88.04859 23.637056Z" fill-rule="evenodd"/><path stroke="#000000" stroke-width="0.46333110432708835" stroke-linejoin="round" stroke-linecap="butt" stroke-dasharray="0.46333110432708835,1.389993312981265" clip-path="url(#id_0)" d="M88.04859 9.362945L102.622086 9.362945L102.622086 23.637056L88.04859 23.637056Z" fill-rule="evenodd"/><path fill="#000000" clip-path="url(#id_0)" d="M95.65931 19.175577Q95.23529 19.532923 94.84721 19.686071Q94.46632 19.831928 94.02074 19.831928Q93.2877 19.831928 92.892426 19.467289Q92.49716 19.10265 92.49716 18.541105Q92.49716 18.205637 92.64808 17.935802Q92.799 17.658676 93.03616 17.498236Q93.28051 17.330502 93.58235 17.242989Q93.79795 17.184647 94.25072 17.126303Q95.16342 17.016912 95.59463 16.863764Q95.601814 16.703321 95.601814 16.666859Q95.601814 16.200119 95.386215 16.003214Q95.09875 15.747967 94.52381 15.747967Q93.992 15.747967 93.740456 15.937579Q93.48892 16.127192 93.36675 16.601223L92.62652 16.499125Q92.727135 16.025093 92.95711 15.733381Q93.18708 15.434377 93.62547 15.273935Q94.06386 15.113494 94.63161 15.113494Q95.20654 15.113494 95.55869 15.252057Q95.91803 15.3833275 96.08332 15.594818Q96.255806 15.799016 96.32048 16.112606Q96.356415 16.309511 96.356415 16.820007L96.356415 17.840996Q96.356415 18.905745 96.40672 19.190163Q96.45703 19.467289 96.593575 19.72983L95.81023 19.72983Q95.68806 19.489166 95.65931 19.175577ZM95.59463 17.461771Q95.18498 17.636799 94.3657 17.753483Q93.89857 17.819118 93.70453 17.906631Q93.51048 17.994144 93.40269 18.154587Q93.30207 18.315027 93.30207 18.519226Q93.30207 18.825523 93.53204 19.02972Q93.76202 19.23392 94.20041 19.23392Q94.63161 19.23392 94.96938 19.044308Q95.31435 18.8474 95.47245 18.511932Q95.59463 18.249393 95.59463 17.746191L95.59463 17.461771Z" fill-rule="nonzero"/><path fill="#cfe2f3" clip-path="url(#id_0)" d="M187.59953 9.353145L202.17302 9.353145L202.17302 23.627254L187.59953 23.627254Z" fill-rule="evenodd"/><path stroke="#000000" stroke-width="0.46333110432708835" stroke-linejoin="round" stroke-linecap="butt" stroke-dasharray="0.46333110432708835,1.389993312981265" clip-path="url(#id_0)" d="M187.59953 9.353145L202.17302 9.353145L202.17302 23.627254L187.59953 23.627254Z" fill-rule="evenodd"/><path fill="#000000" clip-path="url(#id_0)" d="M192.99673 19.720028L192.29962 19.720028L192.29962 13.4846945L193.05423 13.4846945L193.05423 15.708995Q193.53574 15.103694 194.27597 15.103694Q194.68561 15.103694 195.05214 15.271428Q195.41866 15.439162 195.6558 15.745459Q195.89297 16.044464 196.02234 16.474737Q196.15889 16.905012 196.15889 17.39363Q196.15889 18.553183 195.59114 19.187654Q195.03058 19.822128 194.23285 19.822128Q193.4495 19.822128 192.99673 19.151192L192.99673 19.720028ZM192.98955 17.430094Q192.98955 18.239594 193.21234 18.604233Q193.56448 19.194948 194.17535 19.194948Q194.67123 19.194948 195.03058 18.757381Q195.38991 18.319813 195.38991 17.459265Q195.38991 16.576838 195.04495 16.153854Q194.69998 15.730873 194.2041 15.730873Q193.71541 15.730873 193.34889 16.16844Q192.98955 16.606009 192.98955 17.430094Z" fill-rule="nonzero"/><path fill="#cfe2f3" clip-path="url(#id_0)" d="M137.82462 9.353145L152.3981 9.353145L152.3981 23.627254L137.82462 23.627254Z" fill-rule="evenodd"/><path stroke="#000000" stroke-width="0.46333110432708835" stroke-linejoin="round" stroke-linecap="butt" stroke-dasharray="0.46333110432708835,1.389993312981265" clip-path="url(#id_0)" d="M137.82462 9.353145L152.3981 9.353145L152.3981 23.627254L137.82462 23.627254Z" fill-rule="evenodd"/><path fill="#000000" clip-path="url(#id_0)" d="M143.22182 19.720028L142.52472 19.720028L142.52472 13.4846945L143.27931 13.4846945L143.27931 15.708995Q143.76082 15.103694 144.50105 15.103694Q144.91069 15.103694 145.27722 15.271428Q145.64374 15.439162 145.8809 15.745459Q146.11806 16.044464 146.24742 16.474737Q146.38397 16.905012 146.38397 17.39363Q146.38397 18.553183 145.81622 19.187654Q145.25566 19.822128 144.45793 19.822128Q143.67459 19.822128 143.22182 19.151192L143.22182 19.720028ZM143.21463 17.430094Q143.21463 18.239594 143.43742 18.604233Q143.78957 19.194948 144.40044 19.194948Q144.89632 19.194948 145.25566 18.757381Q145.61499 18.319813 145.61499 17.459265Q145.61499 16.576838 145.27003 16.153854Q144.92506 15.730873 144.42918 15.730873Q143.94049 15.730873 143.57397 16.16844Q143.21463 16.606009 143.21463 17.430094Z" fill-rule="nonzero"/><path fill="#fce5cd" clip-path="url(#id_0)" d="M301.4874 9.353145L316.06088 9.353145L316.06088 23.627254L301.4874 23.627254Z" fill-rule="evenodd"/><path stroke="#000000" stroke-width="0.46333110432708835" stroke-linejoin="round" stroke-linecap="butt" stroke-dasharray="0.46333110432708835,1.389993312981265" clip-path="url(#id_0)" d="M301.4874 9.353145L316.06088 9.353145L316.06088 23.627254L301.4874 23.627254Z" fill-rule="evenodd"/><path fill="#000000" clip-path="url(#id_0)" d="M309.0981 18.064566L309.83832 18.166664Q309.71616 18.939701 309.21307 19.38456Q308.7172 19.822128 307.98416 19.822128Q307.07144 19.822128 306.51807 19.216825Q305.9647 18.611525 305.9647 17.481142Q305.9647 16.744572 306.20187 16.197613Q306.43903 15.650653 306.9277 15.380819Q307.4164 15.103694 307.99136 15.103694Q308.7172 15.103694 309.17715 15.475626Q309.63712 15.847558 309.76648 16.533081L309.03342 16.642471Q308.92563 16.19032 308.6597 15.964243Q308.3938 15.730873 308.0201 15.730873Q307.45236 15.730873 307.09302 16.146563Q306.73367 16.562252 306.73367 17.459265Q306.73367 18.370863 307.07864 18.786552Q307.4236 19.194948 307.977 19.194948Q308.42255 19.194948 308.7172 18.917822Q309.01904 18.640696 309.0981 18.064566Z" fill-rule="nonzero"/><path fill="#cfe2f3" clip-path="url(#id_0)" d="M474.05795 0.23398173L584.7788 0.23398173L584.7788 32.766018L474.05795 32.766018Z" fill-rule="evenodd"/><path stroke="#000000" stroke-width="0.46333110432708835" stroke-linejoin="round" stroke-linecap="butt" clip-path="url(#id_0)" d="M474.05795 0.23398173L584.7788 0.23398173L584.7788 32.766018L474.05795 32.766018Z" fill-rule="evenodd"/><path fill="#d9ead3" clip-path="url(#id_0)" d="M324.22275 4.122244L349.1107 4.122244L349.1107 28.877756L324.22275 28.877756Z" fill-rule="evenodd"/><path stroke="#000000" stroke-width="0.46333110432708835" stroke-linejoin="round" stroke-linecap="butt" clip-path="url(#id_0)" d="M324.22275 4.122244L349.1107 4.122244L349.1107 28.877756L324.22275 28.877756Z" fill-rule="evenodd"/><path fill="#000000" clip-path="url(#id_0)" d="M333.79065 19.729828L336.1479 13.494494L337.02466 13.494494L339.54 19.729828L338.6129 19.729828L337.90143 17.840996L335.32858 17.840996L334.65305 19.729828L333.79065 19.729828ZM335.56577 17.17006L337.6499 17.17006L337.00308 15.441669Q336.71564 14.654048 336.5719 14.150846Q336.4497 14.748855 336.2413 15.33957L335.56577 17.17006Z" fill-rule="nonzero"/><path fill="#d0e0e3" clip-path="url(#id_0)" d="M373.9986 4.1173434L398.88654 4.1173434L398.88654 28.872856L373.9986 28.872856Z" fill-rule="evenodd"/><path stroke="#000000" stroke-width="0.46333110432708835" stroke-linejoin="round" stroke-linecap="butt" clip-path="url(#id_0)" d="M373.9986 4.1173434L398.88654 4.1173434L398.88654 28.872856L373.9986 28.872856Z" fill-rule="evenodd"/><path fill="#000000" clip-path="url(#id_0)" d="M384.20612 19.724928L384.20612 13.489594L386.51303 13.489594Q387.21735 13.489594 387.64136 13.679207Q388.06537 13.868819 388.30252 14.26263Q388.54688 14.656441 388.54688 15.086715Q388.54688 15.487819 388.33127 15.845165Q388.12286 16.195219 387.69165 16.40671Q388.24503 16.574444 388.54688 16.975548Q388.84872 17.37665 388.84872 17.916317Q388.84872 18.353884 388.66187 18.733109Q388.4822 19.105042 388.2091 19.30924Q387.9432 19.513437 387.54074 19.62283Q387.13828 19.724928 386.54898 19.724928L384.20612 19.724928ZM385.0254 16.107706L386.34775 16.107706Q386.89395 16.107706 387.1239 16.04207Q387.43295 15.947265 387.59106 15.72848Q387.74915 15.509697 387.74915 15.181521Q387.74915 14.875224 387.59824 14.641855Q387.4545 14.401193 387.1814 14.31368Q386.90833 14.226166 386.24713 14.226166L385.0254 14.226166L385.0254 16.107706ZM385.0254 18.988358L386.54898 18.988358Q386.94424 18.988358 387.10236 18.959187Q387.38263 18.908136 387.5695 18.791452Q387.76352 18.667475 387.8857 18.441399Q388.00787 18.21532 388.00787 17.916317Q388.00787 17.566263 387.82822 17.311016Q387.65573 17.055767 387.3395 16.953669Q387.0305 16.844276 386.4412 16.844276L385.0254 16.844276L385.0254 18.988358Z" fill-rule="nonzero"/><path fill="#d0e0e3" clip-path="url(#id_0)" d="M423.77448 4.1124434L448.6624 4.1124434L448.6624 28.867956L423.77448 28.867956Z" fill-rule="evenodd"/><path stroke="#000000" stroke-width="0.46333110432708835" stroke-linejoin="round" stroke-linecap="butt" clip-path="url(#id_0)" d="M423.77448 4.1124434L448.6624 4.1124434L448.6624 28.867956L423.77448 28.867956Z" fill-rule="evenodd"/><path fill="#000000" clip-path="url(#id_0)" d="M433.98196 19.720028L433.98196 13.4846945L436.2889 13.4846945Q436.9932 13.4846945 437.4172 13.674307Q437.84125 13.863919 438.0784 14.2577305Q438.32275 14.651541 438.32275 15.081815Q438.32275 15.482919 438.10715 15.840265Q437.8987 16.19032 437.46753 16.40181Q438.0209 16.569544 438.32275 16.970648Q438.62457 17.37175 438.62457 17.911417Q438.62457 18.348984 438.4377 18.728209Q438.25806 19.100142 437.98495 19.304338Q437.71906 19.508537 437.3166 19.61793Q436.91415 19.720028 436.32483 19.720028L433.98196 19.720028ZM434.80127 16.102806L436.12363 16.102806Q436.6698 16.102806 436.89978 16.03717Q437.2088 15.942364 437.3669 15.72358Q437.52502 15.504797 437.52502 15.176621Q437.52502 14.870324 437.37408 14.636955Q437.23038 14.396293 436.95728 14.30878Q436.68417 14.221266 436.023 14.221266L434.80127 14.221266L434.80127 16.102806ZM434.80127 18.983458L436.32483 18.983458Q436.7201 18.983458 436.8782 18.954285Q437.1585 18.903236 437.34534 18.78655Q437.5394 18.662575 437.66156 18.436497Q437.78375 18.21042 437.78375 17.911417Q437.78375 17.561363 437.60406 17.306116Q437.43158 17.050867 437.1154 16.948769Q436.80634 16.839376 436.21704 16.839376L434.80127 16.839376L434.80127 18.983458Z" fill-rule="nonzero"/><path fill="#fce5cd" clip-path="url(#id_0)" d="M538.53107 4.1173434L563.419 4.1173434L563.419 28.872856L538.53107 28.872856Z" fill-rule="evenodd"/><path stroke="#000000" stroke-width="0.46333110432708835" stroke-linejoin="round" stroke-linecap="butt" clip-path="url(#id_0)" d="M538.53107 4.1173434L563.419 4.1173434L563.419 28.872856L538.53107 28.872856Z" fill-rule="evenodd"/><path fill="#000000" clip-path="url(#id_0)" d="M548.5378 19.724928L548.5378 13.489594L550.65784 13.489594Q551.3693 13.489594 551.75024 13.584401Q552.27484 13.701085 552.64856 14.029261Q553.13727 14.44495 553.3744 15.094008Q553.6188 15.743066 553.6188 16.574444Q553.6188 17.281845 553.4535 17.836096Q553.28815 18.383055 553.0295 18.740402Q552.7779 19.097748 552.4761 19.30924Q552.17426 19.513437 551.74304 19.62283Q551.3118 19.724928 550.7585 19.724928L548.5378 19.724928ZM549.34985 18.988358L550.66504 18.988358Q551.26874 18.988358 551.61365 18.878965Q551.9586 18.76228 552.16705 18.550789Q552.4545 18.259077 552.6126 17.763168Q552.7779 17.26726 552.7779 16.559858Q552.7779 15.582624 552.46173 15.057544Q552.1455 14.532463 551.69275 14.357436Q551.3693 14.226166 550.6435 14.226166L549.34985 14.226166L549.34985 18.988358Z" fill-rule="nonzero"/><path fill="#ead1dc" clip-path="url(#id_0)" d="M478.44016 4.1173434L503.3281 4.1173434L503.3281 28.872856L478.44016 28.872856Z" fill-rule="evenodd"/><path stroke="#000000" stroke-width="0.46333110432708835" stroke-linejoin="round" stroke-linecap="butt" clip-path="url(#id_0)" d="M478.44016 4.1173434L503.3281 4.1173434L503.3281 28.872856L478.44016 28.872856Z" fill-rule="evenodd"/><path fill="#000000" clip-path="url(#id_0)" d="M489.2978 19.724928L489.2978 13.489594L490.1099 13.489594L490.1099 19.724928L489.2978 19.724928ZM491.63153 19.724928L491.63153 15.801409L490.96317 15.801409L490.96317 15.210692L491.63153 15.210692L491.63153 14.729368Q491.63153 14.277216 491.7106 14.051139Q491.8184 13.752135 492.0915 13.569816Q492.36456 13.387496 492.86047 13.387496Q493.17667 13.387496 493.56476 13.460423L493.44977 14.13136Q493.2198 14.087604 493.01138 14.087604Q492.6664 14.087604 492.52267 14.240752Q492.37894 14.386607 492.37894 14.795004L492.37894 15.210692L493.24854 15.210692L493.24854 15.801409L492.37894 15.801409L492.37894 19.724928L491.63153 19.724928Z" fill-rule="nonzero"/><path fill="#ead1dc" clip-path="url(#id_0)" d="M508.4853 4.1173434L533.3732 4.1173434L533.3732 28.872856L508.4853 28.872856Z" fill-rule="evenodd"/><path stroke="#000000" stroke-width="0.46333110432708835" stroke-linejoin="round" stroke-linecap="butt" clip-path="url(#id_0)" d="M508.4853 4.1173434L533.3732 4.1173434L533.3732 28.872856L508.4853 28.872856Z" fill-rule="evenodd"/><path fill="#000000" clip-path="url(#id_0)" d="M513.79645 19.230186L513.79645 15.868212L513.2287 15.868212L513.2287 15.357717L513.79645 15.357717L513.79645 14.942027Q513.79645 14.55551 513.86835 14.365897Q513.9618 14.11065 514.1917 13.950209Q514.4289 13.789767 514.8529 13.789767Q515.12604 13.789767 515.4566 13.855402L515.36316 14.431532Q515.1619 14.395068 514.9823 14.395068Q514.6876 14.395068 514.5654 14.526339Q514.4433 14.650316 514.4433 15.00037L514.4433 15.357717L515.1835 15.357717L515.1835 15.868212L514.4433 15.868212L514.4433 19.230186L513.79645 19.230186ZM518.17676 18.748863Q517.81744 19.062452 517.4868 19.193724Q517.15625 19.3177 516.7753 19.3177Q516.14294 19.3177 515.8052 19.00411Q515.46735 18.690521 515.46735 18.209196Q515.46735 17.924778 515.59674 17.691408Q515.7261 17.450747 515.9273 17.312183Q516.13574 17.166328 516.3945 17.0934Q516.5885 17.04235 516.9694 16.998594Q517.75275 16.903788 518.12646 16.772518Q518.12646 16.633955 518.12646 16.59749Q518.12646 16.196386 517.9468 16.035946Q517.69525 15.809869 517.20654 15.809869Q516.7538 15.809869 516.531 15.977603Q516.3154 16.138044 516.2148 16.54644L515.58234 16.458927Q515.6686 16.050531 515.8627 15.795283Q516.06384 15.540036 516.43756 15.408766Q516.8113 15.270203 517.3 15.270203Q517.7887 15.270203 518.0905 15.386888Q518.39954 15.503572 518.5433 15.678599Q518.687 15.853626 518.7445 16.123459Q518.78046 16.291193 518.78046 16.72876L518.78046 17.603895Q518.78046 18.522787 518.8164 18.763449Q518.8595 19.00411 518.9817 19.230186L518.3061 19.230186Q518.2055 19.02599 518.17676 18.748863ZM518.12646 17.283012Q517.7743 17.428867 517.07 17.530968Q516.66754 17.58931 516.50226 17.662237Q516.337 17.735165 516.2435 17.881021Q516.1573 18.019585 516.1573 18.187319Q516.1573 18.449858 516.3513 18.624886Q516.55255 18.799911 516.9263 18.799911Q517.3 18.799911 517.58746 18.639471Q517.8821 18.471737 518.0187 18.180025Q518.12646 17.96124 518.12646 17.523674L518.12646 17.283012ZM519.7686 19.230186L519.7686 13.884573L520.4154 13.884573L520.4154 19.230186L519.7686 19.230186ZM521.15924 18.070633L521.7988 17.968534Q521.8492 18.362345 522.0935 18.573835Q522.34503 18.778034 522.78345 18.778034Q523.229 18.778034 523.4446 18.595715Q523.6602 18.406101 523.6602 18.158148Q523.6602 17.939363 523.4733 17.808094Q523.3368 17.72058 522.8122 17.58931Q522.1007 17.40699 521.82043 17.275719Q521.5473 17.137157 521.40356 16.903788Q521.267 16.670418 521.267 16.386Q521.267 16.123459 521.382 15.9046755Q521.497 15.685892 521.69824 15.540036Q521.8492 15.423351 522.1079 15.350424Q522.3738 15.270203 522.66846 15.270203Q523.1212 15.270203 523.459 15.401473Q523.79675 15.532743 523.9549 15.75882Q524.1202 15.977603 524.1848 16.356829L523.5524 16.444342Q523.5093 16.145338 523.3009 15.977603Q523.09247 15.809869 522.71875 15.809869Q522.2732 15.809869 522.07916 15.963017Q521.8923 16.108873 521.8923 16.305779Q521.8923 16.43705 521.9713 16.539148Q522.0504 16.641247 522.2157 16.714174Q522.3163 16.750639 522.79065 16.881908Q523.4733 17.064228 523.74646 17.188206Q524.01953 17.304892 524.1705 17.530968Q524.32855 17.757044 524.32855 18.092512Q524.32855 18.420687 524.1345 18.712399Q523.9477 18.996819 523.5883 19.157259Q523.2362 19.3177 522.79065 19.3177Q522.0432 19.3177 521.65515 19.00411Q521.267 18.690521 521.15924 18.070633ZM527.7063 17.98312L528.3747 18.063341Q528.21655 18.66135 527.7854 18.989525Q527.3614 19.3177 526.7002 19.3177Q525.8593 19.3177 525.37067 18.79262Q524.88196 18.267538 524.88196 17.326769Q524.88196 16.349535 525.3778 15.809869Q525.8737 15.270203 526.66425 15.270203Q527.426 15.270203 527.90753 15.802576Q528.39624 16.327658 528.39624 17.283012Q528.39624 17.341354 528.39624 17.45804L525.5503 17.45804Q525.58624 18.099804 525.90247 18.442566Q526.2259 18.778034 526.7002 18.778034Q527.0595 18.778034 527.31104 18.58842Q527.56256 18.39881 527.7063 17.98312ZM525.58624 16.918373L527.7135 16.918373Q527.6704 16.429756 527.4692 16.189095Q527.16016 15.809869 526.67145 15.809869Q526.2259 15.809869 525.9168 16.116167Q525.615 16.41517 525.58624 16.918373Z" fill-rule="nonzero"/><path fill="#d9ead3" clip-path="url(#id_0)" d="M354.2683 9.362945L368.8418 9.362945L368.8418 23.637056L354.2683 23.637056Z" fill-rule="evenodd"/><path stroke="#000000" stroke-width="0.46333110432708835" stroke-linejoin="round" stroke-linecap="butt" stroke-dasharray="0.46333110432708835,1.389993312981265" clip-path="url(#id_0)" d="M354.2683 9.362945L368.8418 9.362945L368.8418 23.637056L354.2683 23.637056Z" fill-rule="evenodd"/><path fill="#000000" clip-path="url(#id_0)" d="M361.87903 19.175577Q361.45502 19.532923 361.06693 19.686071Q360.68604 19.831928 360.24048 19.831928Q359.50742 19.831928 359.11215 19.467289Q358.7169 19.10265 358.7169 18.541105Q358.7169 18.205637 358.8678 17.935802Q359.01874 17.658676 359.2559 17.498236Q359.50024 17.330502 359.80206 17.242989Q360.01767 17.184647 360.47043 17.126303Q361.38315 17.016912 361.81436 16.863764Q361.82153 16.703321 361.82153 16.666859Q361.82153 16.200119 361.60593 16.003214Q361.31848 15.747967 360.74353 15.747967Q360.21173 15.747967 359.96017 15.937579Q359.70865 16.127192 359.5865 16.601223L358.84625 16.499125Q358.94687 16.025093 359.17685 15.733381Q359.4068 15.434377 359.84518 15.273935Q360.2836 15.113494 360.85135 15.113494Q361.42627 15.113494 361.7784 15.252057Q362.13776 15.3833275 362.30304 15.594818Q362.47552 15.799016 362.54022 16.112606Q362.57614 16.309511 362.57614 16.820007L362.57614 17.840996Q362.57614 18.905745 362.62643 19.190163Q362.67676 19.467289 362.8133 19.72983L362.02997 19.72983Q361.90778 19.489166 361.87903 19.175577ZM361.81436 17.461771Q361.40472 17.636799 360.58542 17.753483Q360.1183 17.819118 359.92426 17.906631Q359.73022 17.994144 359.6224 18.154587Q359.5218 18.315027 359.5218 18.519226Q359.5218 18.825523 359.75177 19.02972Q359.98175 19.23392 360.42014 19.23392Q360.85135 19.23392 361.18912 19.044308Q361.53406 18.8474 361.69217 18.511932Q361.81436 18.249393 361.81436 17.746191L361.81436 17.461771Z" fill-rule="nonzero"/><path fill="#cfe2f3" clip-path="url(#id_0)" d="M453.81924 9.353145L468.39273 9.353145L468.39273 23.627254L453.81924 23.627254Z" fill-rule="evenodd"/><path stroke="#000000" stroke-width="0.46333110432708835" stroke-linejoin="round" stroke-linecap="butt" stroke-dasharray="0.46333110432708835,1.389993312981265" clip-path="url(#id_0)" d="M453.81924 9.353145L468.39273 9.353145L468.39273 23.627254L453.81924 23.627254Z" fill-rule="evenodd"/><path fill="#000000" clip-path="url(#id_0)" d="M459.21646 19.720028L458.51935 19.720028L458.51935 13.4846945L459.27396 13.4846945L459.27396 15.708995Q459.75546 15.103694 460.4957 15.103694Q460.90533 15.103694 461.27185 15.271428Q461.63837 15.439162 461.87555 15.745459Q462.1127 16.044464 462.24207 16.474737Q462.3786 16.905012 462.3786 17.39363Q462.3786 18.553183 461.81085 19.187654Q461.2503 19.822128 460.45258 19.822128Q459.66922 19.822128 459.21646 19.151192L459.21646 19.720028ZM459.2093 17.430094Q459.2093 18.239594 459.43207 18.604233Q459.7842 19.194948 460.39508 19.194948Q460.89096 19.194948 461.2503 18.757381Q461.60962 18.319813 461.60962 17.459265Q461.60962 16.576838 461.26468 16.153854Q460.9197 15.730873 460.42383 15.730873Q459.93512 15.730873 459.5686 16.16844Q459.2093 16.606009 459.2093 17.430094Z" fill-rule="nonzero"/><path fill="#cfe2f3" clip-path="url(#id_0)" d="M404.04434 9.353145L418.61783 9.353145L418.61783 23.627254L404.04434 23.627254Z" fill-rule="evenodd"/><path stroke="#000000" stroke-width="0.46333110432708835" stroke-linejoin="round" stroke-linecap="butt" stroke-dasharray="0.46333110432708835,1.389993312981265" clip-path="url(#id_0)" d="M404.04434 9.353145L418.61783 9.353145L418.61783 23.627254L404.04434 23.627254Z" fill-rule="evenodd"/><path fill="#000000" clip-path="url(#id_0)" d="M409.44156 19.720028L408.74445 19.720028L408.74445 13.4846945L409.49905 13.4846945L409.49905 15.708995Q409.98056 15.103694 410.72076 15.103694Q411.13043 15.103694 411.49695 15.271428Q411.86346 15.439162 412.10062 15.745459Q412.3378 16.044464 412.46713 16.474737Q412.6037 16.905012 412.6037 17.39363Q412.6037 18.553183 412.03595 19.187654Q411.47537 19.822128 410.67767 19.822128Q409.89432 19.822128 409.44156 19.151192L409.44156 19.720028ZM409.43436 17.430094Q409.43436 18.239594 409.65714 18.604233Q410.0093 19.194948 410.62018 19.194948Q411.11606 19.194948 411.47537 18.757381Q411.83472 18.319813 411.83472 17.459265Q411.83472 16.576838 411.48975 16.153854Q411.1448 15.730873 410.64893 15.730873Q410.16022 15.730873 409.7937 16.16844Q409.43436 16.606009 409.43436 17.430094Z" fill-rule="nonzero"/><path fill="#fce5cd" clip-path="url(#id_0)" d="M567.7071 9.353145L582.2806 9.353145L582.2806 23.627254L567.7071 23.627254Z" fill-rule="evenodd"/><path stroke="#000000" stroke-width="0.46333110432708835" stroke-linejoin="round" stroke-linecap="butt" stroke-dasharray="0.46333110432708835,1.389993312981265" clip-path="url(#id_0)" d="M567.7071 9.353145L582.2806 9.353145L582.2806 23.627254L567.7071 23.627254Z" fill-rule="evenodd"/><path fill="#000000" clip-path="url(#id_0)" d="M575.29626 19.720028L575.29626 19.151192Q574.87946 19.822128 574.053 19.822128Q573.5212 19.822128 573.07556 19.523123Q572.63 19.22412 572.3857 18.691746Q572.1413 18.159372 572.1413 17.466557Q572.1413 16.788328 572.3641 16.24137Q572.58685 15.687117 573.02527 15.395405Q573.4708 15.103694 574.02423 15.103694Q574.4267 15.103694 574.7357 15.278721Q575.05194 15.446455 575.246 15.72358L575.246 13.4846945L576.00055 13.4846945L576.00055 19.720028L575.29626 19.720028ZM572.9175 17.466557Q572.9175 18.334398 573.2768 18.764673Q573.63617 19.194948 574.1248 19.194948Q574.6207 19.194948 574.9657 18.786552Q575.31067 18.370863 575.31067 17.532192Q575.31067 16.606009 574.9585 16.175734Q574.6063 15.738166 574.0889 15.738166Q573.593 15.738166 573.25525 16.153854Q572.9175 16.569544 572.9175 17.466557Z" fill-rule="nonzero"/></svg>