<svg version="1.1" viewBox="0.0 0.0 437.0 210.0" fill="none" stroke="none" stroke-linecap="square" stroke-miterlimit="10" preserveAspectRatio="none" width="437" height="210" xmlns:xlink="http://www.w3.org/1999/xlink" xmlns="http://www.w3.org/2000/svg"><clipPath id="id_0"><path d="M0 0L437.0 0L437.0 210.0L0 210.0L0 0Z" clip-rule="nonzero"/></clipPath><path fill="#000000" fill-opacity="0.0" clip-path="url(#id_0)" d="M-7.1110463 -9.217837L722.9763 -9.217837L722.9763 539.0853L-7.1110463 539.0853Z" fill-rule="evenodd"/><path fill="#cfe2f3" clip-path="url(#id_0)" d="M148.66579 0.2863241L213.91374 0.2863241L213.91374 30.579716L148.66579 30.579716Z" fill-rule="evenodd"/><path stroke="#000000" stroke-width="0.5707648336006036" stroke-linejoin="round" stroke-linecap="butt" clip-path="url(#id_0)" d="M148.66579 0.2863241L213.91374 0.2863241L213.91374 30.579716L148.66579 30.579716Z" fill-rule="evenodd"/><path fill="#000000" clip-path="url(#id_0)" d="M170.88882 19.38537L170.88882 11.755175L174.26654 11.755175Q175.28253 11.755175 175.80835 11.960431Q176.34308 12.165688 176.65501 12.692216Q176.97585 13.20982 176.97585 13.843438Q176.97585 14.646617 176.45003 15.208842Q175.92421 15.762143 174.82802 15.913855Q175.22906 16.110188 175.44295 16.297594Q175.87965 16.699184 176.27179 17.30603L177.5997 19.38537L176.33417 19.38537L175.32709 17.796862Q174.88148 17.109697 174.5963 16.75273Q174.31111 16.386837 174.07939 16.24405Q173.85658 16.092339 173.62486 16.038794Q173.45554 15.994172 173.0634 15.994172L171.8959 15.994172L171.8959 19.38537L170.88882 19.38537ZM171.8959 15.128524L174.06157 15.128524Q174.75671 15.128524 175.13994 14.985737Q175.53207 14.834025 175.73706 14.521678Q175.94203 14.209331 175.94203 13.843438Q175.94203 13.299062 175.5499 12.951018Q175.15776 12.602974 174.30219 12.602974L171.8959 12.602974L171.8959 15.128524ZM178.09227 16.618866Q178.09227 15.083903 178.93893 14.3521185Q179.6519 13.736348 180.6768 13.736348Q181.81757 13.736348 182.53946 14.485981Q183.26135 15.22669 183.26135 16.547472Q183.26135 17.609453 182.9405 18.225224Q182.61967 18.83207 182.00473 19.171188Q181.3987 19.51031 180.6768 19.51031Q179.51822 19.51031 178.80525 18.7696Q178.09227 18.019966 178.09227 16.618866ZM179.0548 16.618866Q179.0548 17.680847 179.50931 18.2163Q179.97275 18.742826 180.6768 18.742826Q181.37196 18.742826 181.83539 18.2163Q182.29883 17.680847 182.29883 16.592094Q182.29883 15.56581 181.83539 15.039282Q181.37196 14.5127535 180.6768 14.5127535Q179.97275 14.5127535 179.50931 15.039282Q179.0548 15.556886 179.0548 16.618866ZM184.01038 16.618866Q184.01038 15.083903 184.85704 14.3521185Q185.57002 13.736348 186.59492 13.736348Q187.73569 13.736348 188.45757 14.485981Q189.17946 15.22669 189.17946 16.547472Q189.17946 17.609453 188.85861 18.225224Q188.53778 18.83207 187.92284 19.171188Q187.3168 19.51031 186.59492 19.51031Q185.43634 19.51031 184.72336 18.7696Q184.01038 18.019966 184.01038 16.618866ZM184.9729 16.618866Q184.9729 17.680847 185.42741 18.2163Q185.89085 18.742826 186.59492 18.742826Q187.29007 18.742826 187.75351 18.2163Q188.21693 17.680847 188.21693 16.592094Q188.21693 15.56581 187.75351 15.039282Q187.29007 14.5127535 186.59492 14.5127535Q185.89085 14.5127535 185.42741 15.039282Q184.9729 15.556886 184.9729 16.618866ZM192.31696 18.546495L192.45064 19.376446Q192.0585 19.456764 191.74658 19.456764Q191.23859 19.456764 190.9534 19.296127Q190.67711 19.135492 190.56126 18.87669Q190.4454 18.608965 190.4454 17.770088L190.4454 14.584147L189.75916 14.584147L189.75916 13.861287L190.4454 13.861287L190.4454 12.495884L191.37227 11.933659L191.37227 13.861287L192.31696 13.861287L192.31696 14.584147L191.37227 14.584147L191.37227 17.823635Q191.37227 18.2163 191.41682 18.332314Q191.4703 18.448328 191.57726 18.519722Q191.6931 18.582191 191.907 18.582191Q192.0585 18.582191 192.31696 18.546495Z" fill-rule="nonzero"/><path fill="#d9ead3" clip-path="url(#id_0)" d="M41.065918 52.790073L71.92936 52.790073L71.92936 83.083466L41.065918 83.083466Z" fill-rule="evenodd"/><path stroke="#000000" stroke-width="0.5707648336006036" stroke-linejoin="round" stroke-linecap="butt" clip-path="url(#id_0)" d="M41.065918 52.790073L71.92936 52.790073L71.92936 83.083466L41.065918 83.083466Z" fill-rule="evenodd"/><path fill="#000000" clip-path="url(#id_0)" d="M52.931026 71.889114L55.85423 64.25892L56.941517 64.25892L60.060787 71.889114L58.911114 71.889114L58.028805 69.57775L54.838238 69.57775L54.000492 71.889114L52.931026 71.889114ZM55.13234 68.75672L57.716877 68.75672L56.91478 66.641685Q56.558292 65.67787 56.380047 65.0621Q56.22854 65.793884 55.970085 66.51675L55.13234 68.75672Z" fill-rule="nonzero"/><path fill="#000000" fill-opacity="0.0" clip-path="url(#id_0)" d="M181.28976 30.579716L56.50662 52.796066" fill-rule="evenodd"/><path stroke="#000000" stroke-width="0.5707648336006036" stroke-linejoin="round" stroke-linecap="butt" clip-path="url(#id_0)" d="M181.28976 30.579716L56.50662 52.796066" fill-rule="evenodd"/><path fill="#d0e0e3" clip-path="url(#id_0)" d="M0.28593892 100.54174L31.149378 100.54174L31.149378 130.83513L0.28593892 130.83513Z" fill-rule="evenodd"/><path stroke="#000000" stroke-width="0.5707648336006036" stroke-linejoin="round" stroke-linecap="butt" clip-path="url(#id_0)" d="M0.28593892 100.54174L31.149378 100.54174L31.149378 130.83513L0.28593892 130.83513Z" fill-rule="evenodd"/><path fill="#000000" clip-path="url(#id_0)" d="M12.944232 119.640785L12.944232 112.01059L15.805048 112.01059Q16.678444 112.01059 17.204264 112.242615Q17.730083 112.47465 18.024187 112.95656Q18.327202 113.43846 18.327202 113.96499Q18.327202 114.45582 18.059835 114.893105Q17.801382 115.32147 17.26665 115.58027Q17.952888 115.78553 18.327202 116.27636Q18.701513 116.76719 18.701513 117.42758Q18.701513 117.963036 18.469795 118.42709Q18.24699 118.882225 17.908327 119.1321Q17.578577 119.38198 17.079493 119.51585Q16.58041 119.640785 15.849609 119.640785L12.944232 119.640785ZM13.960223 115.21438L15.600068 115.21438Q16.277395 115.21438 16.562586 115.13406Q16.94581 115.01804 17.141878 114.75032Q17.337946 114.4826 17.337946 114.081Q17.337946 113.706184 17.150791 113.420616Q16.972548 113.126114 16.633883 113.01903Q16.29522 112.911934 15.475297 112.911934L13.960223 112.911934L13.960223 115.21438ZM13.960223 118.73944L15.849609 118.73944Q16.33978 118.73944 16.535849 118.70374Q16.883425 118.64127 17.11514 118.49849Q17.355772 118.34677 17.507278 118.07012Q17.658787 117.79347 17.658787 117.42758Q17.658787 116.99922 17.435982 116.686874Q17.222088 116.37453 16.829952 116.24959Q16.446728 116.11572 15.715926 116.11572L13.960223 116.11572L13.960223 118.73944Z" fill-rule="nonzero"/><path fill="#d0e0e3" clip-path="url(#id_0)" d="M71.92936 100.550735L102.79279 100.550735L102.79279 130.84413L71.92936 130.84413Z" fill-rule="evenodd"/><path stroke="#000000" stroke-width="0.5707648336006036" stroke-linejoin="round" stroke-linecap="butt" clip-path="url(#id_0)" d="M71.92936 100.550735L102.79279 100.550735L102.79279 130.84413L71.92936 130.84413Z" fill-rule="evenodd"/><path fill="#000000" clip-path="url(#id_0)" d="M84.587654 119.64978L84.587654 112.019585L87.44846 112.019585Q88.32186 112.019585 88.84768 112.25161Q89.373505 112.48364 89.6676 112.965546Q89.97062 113.44746 89.97062 113.97398Q89.97062 114.46481 89.703255 114.9021Q89.4448 115.33047 88.910065 115.589264Q89.596306 115.794525 89.97062 116.285355Q90.34493 116.776184 90.34493 117.43658Q90.34493 117.97203 90.11321 118.43609Q89.89041 118.89122 89.55174 119.1411Q89.22199 119.390976 88.72291 119.52484Q88.22383 119.64978 87.49303 119.64978L84.587654 119.64978ZM85.60364 115.22337L87.243484 115.22337Q87.920815 115.22337 88.206 115.14306Q88.589226 115.02704 88.78529 114.759315Q88.98136 114.491585 88.98136 114.09Q88.98136 113.71518 88.79421 113.42961Q88.61597 113.13511 88.2773 113.028015Q87.93864 112.92093 87.11871 112.92093L85.60364 112.92093L85.60364 115.22337ZM85.60364 118.748436L87.49303 118.748436Q87.9832 118.748436 88.17927 118.71274Q88.52684 118.65027 88.75856 118.507484Q88.99919 118.35577 89.150696 118.07912Q89.30221 117.80247 89.30221 117.43658Q89.30221 117.00822 89.0794 116.69587Q88.86551 116.38352 88.47337 116.25858Q88.09014 116.12472 87.359344 116.12472L85.60364 116.12472L85.60364 118.748436Z" fill-rule="nonzero"/><path fill="#fce5cd" clip-path="url(#id_0)" d="M145.14468 179.42029L176.00813 179.42029L176.00813 209.71367L145.14468 209.71367Z" fill-rule="evenodd"/><path stroke="#000000" stroke-width="0.5707648336006036" stroke-linejoin="round" stroke-linecap="butt" clip-path="url(#id_0)" d="M145.14468 179.42029L176.00813 179.42029L176.00813 209.71367L145.14468 209.71367Z" fill-rule="evenodd"/><path fill="#000000" clip-path="url(#id_0)" d="M162.99042 195.84207L163.9975 196.10088Q163.67667 197.34134 162.85674 198.00172Q162.03682 198.6532 160.84258 198.6532Q159.6127 198.6532 158.83734 198.15344Q158.07089 197.64476 157.66092 196.69879Q157.25987 195.7439 157.25987 194.64622Q157.25987 193.4593 157.7144 192.5758Q158.16891 191.6834 159.00667 191.22826Q159.85333 190.76419 160.8604 190.76419Q162.00116 190.76419 162.77652 191.34427Q163.5608 191.92435 163.86382 192.98633L162.87456 193.21835Q162.6072 192.3884 162.0992 192.01358Q161.60011 191.62984 160.84258 191.62984Q159.96027 191.62984 159.37207 192.04929Q158.78386 192.46872 158.54323 193.18266Q158.3026 193.88766 158.3026 194.64622Q158.3026 195.61896 158.5878 196.34183Q158.87299 197.06468 159.47011 197.43057Q160.06721 197.78755 160.76237 197.78755Q161.60902 197.78755 162.19724 197.2967Q162.78545 196.80588 162.99042 195.84207Z" fill-rule="nonzero"/><path fill="#000000" fill-opacity="0.0" clip-path="url(#id_0)" d="M56.49764 83.083466L15.717658 100.550735" fill-rule="evenodd"/><path stroke="#000000" stroke-width="0.5707648336006036" stroke-linejoin="round" stroke-linecap="butt" clip-path="url(#id_0)" d="M56.49764 83.083466L15.717658 100.550735" fill-rule="evenodd"/><path fill="#000000" fill-opacity="0.0" clip-path="url(#id_0)" d="M56.49764 83.083466L87.36108 100.550735" fill-rule="evenodd"/><path stroke="#000000" stroke-width="0.5707648336006036" stroke-linejoin="round" stroke-linecap="butt" clip-path="url(#id_0)" d="M56.49764 83.083466L87.36108 100.550735" fill-rule="evenodd"/><path fill="#ead1dc" clip-path="url(#id_0)" d="M145.14394 100.550735L176.00739 100.550735L176.00739 130.84413L145.14394 130.84413Z" fill-rule="evenodd"/><path stroke="#000000" stroke-width="0.5707648336006036" stroke-linejoin="round" stroke-linecap="butt" clip-path="url(#id_0)" d="M145.14394 100.550735L176.00739 100.550735L176.00739 130.84413L145.14394 130.84413Z" fill-rule="evenodd"/><clipPath id="id_1"><path d="M0 -1.4210855E-14L437.0 -1.4210855E-14L437.0 210.0L0 210.0L0 -1.4210855E-14Z" clip-rule="nonzero"/></clipPath><path fill="#000000" clip-path="url(#id_1)" d="M158.60846 119.64978L158.60846 112.019585L159.61554 112.019585L159.61554 119.64978L158.60846 119.64978ZM161.50253 119.64978L161.50253 114.84856L160.67369 114.84856L160.67369 114.125694L161.50253 114.125694L161.50253 113.5367Q161.50253 112.9834 161.60057 112.70675Q161.73425 112.34086 162.0729 112.11775Q162.41158 111.894646 163.02652 111.894646Q163.41866 111.894646 163.89992 111.98389L163.75732 112.80492Q163.47212 112.751366 163.21367 112.751366Q162.78589 112.751366 162.60765 112.938774Q162.4294 113.11726 162.4294 113.61702L162.4294 114.125694L163.50778 114.125694L163.50778 114.84856L162.4294 114.84856L162.4294 119.64978L161.50253 119.64978Z" fill-rule="nonzero"/><path fill="#ead1dc" clip-path="url(#id_0)" d="M145.14394 139.9855L176.00739 139.9855L176.00739 170.2789L145.14394 170.2789Z" fill-rule="evenodd"/><path stroke="#000000" stroke-width="0.5707648336006036" stroke-linejoin="round" stroke-linecap="butt" clip-path="url(#id_0)" d="M145.14394 139.9855L176.00739 139.9855L176.00739 170.2789L145.14394 170.2789Z" fill-rule="evenodd"/><path fill="#000000" clip-path="url(#id_0)" d="M155.06569 157.75627L155.18155 158.47021Q154.8429 158.54161 154.57553 158.54161Q154.13882 158.54161 153.8982 158.40775Q153.65756 158.26495 153.55954 158.04185Q153.4615 157.80983 153.4615 157.08696L153.4615 154.36508L152.87329 154.36508L152.87329 153.74039L153.4615 153.74039L153.4615 152.5624L154.2636 152.08049L154.2636 153.74039L155.06569 153.74039L155.06569 154.36508L154.2636 154.36508L154.2636 157.13158Q154.2636 157.47963 154.29924 157.57779Q154.34381 157.67596 154.44183 157.73843Q154.53987 157.79198 154.71812 157.79198Q154.8518 157.79198 155.06569 157.75627ZM155.8455 158.47914L155.8455 153.74039L156.5674 153.74039L156.5674 154.45432Q156.84367 153.95456 157.0754 153.79393Q157.30711 153.6333 157.5923 153.6333Q157.99335 153.6333 158.41223 153.89209L158.13594 154.63281Q157.84184 154.46324 157.54774 154.46324Q157.28929 154.46324 157.0754 154.62389Q156.87042 154.77559 156.7813 155.06117Q156.64761 155.48953 156.64761 155.99821L156.64761 158.47914L155.8455 158.47914ZM161.99493 158.47914L161.99493 157.78305Q161.44237 158.58623 160.48877 158.58623Q160.0699 158.58623 159.7045 158.4256Q159.348 158.26495 159.16977 158.024Q158.99152 157.77412 158.92023 157.42609Q158.87566 157.18513 158.87566 156.67645L158.87566 153.74039L159.67776 153.74039L159.67776 156.3641Q159.67776 156.99773 159.72232 157.2119Q159.80254 157.53317 160.04315 157.71165Q160.2927 157.89014 160.64919 157.89014Q161.01459 157.89014 161.3265 157.71165Q161.64735 157.52425 161.77213 157.20297Q161.9058 156.8817 161.9058 156.27486L161.9058 153.74039L162.7079 153.74039L162.7079 158.47914L161.99493 158.47914ZM167.20412 156.9531L168.03294 157.05127Q167.83688 157.78305 167.30214 158.18465Q166.77632 158.58623 165.9564 158.58623Q164.91368 158.58623 164.30765 157.94368Q163.70161 157.30115 163.70161 156.14992Q163.70161 154.95407 164.31656 154.29369Q164.9315 153.6333 165.91183 153.6333Q166.85654 153.6333 167.45366 154.28476Q168.05968 154.9273 168.05968 156.09637Q168.05968 156.16777 168.05968 156.31056L164.53046 156.31056Q164.57501 157.09589 164.96715 157.51532Q165.3682 157.92584 165.9564 157.92584Q166.40201 157.92584 166.71394 157.6938Q167.02586 157.46178 167.20412 156.9531ZM164.57501 155.65016L167.21303 155.65016Q167.15955 155.05225 166.91 154.75775Q166.52678 154.29369 165.92076 154.29369Q165.3682 154.29369 164.98497 154.6685Q164.61066 155.0344 164.57501 155.65016Z" fill-rule="nonzero"/><path fill="#000000" fill-opacity="0.0" clip-path="url(#id_0)" d="M56.49764 83.083466L160.56743 100.550735" fill-rule="evenodd"/><path stroke="#000000" stroke-width="0.5707648336006036" stroke-linejoin="round" stroke-linecap="butt" clip-path="url(#id_0)" d="M56.49764 83.083466L160.56743 100.550735" fill-rule="evenodd"/><path fill="#000000" fill-opacity="0.0" clip-path="url(#id_0)" d="M160.57567 130.84413L160.57567 139.98251" fill-rule="evenodd"/><path stroke="#000000" stroke-width="0.5707648336006036" stroke-linejoin="round" stroke-linecap="butt" clip-path="url(#id_0)" d="M160.57567 130.84413L160.57567 139.98251" fill-rule="evenodd"/><path fill="#000000" fill-opacity="0.0" clip-path="url(#id_0)" d="M160.57567 170.2789L160.57567 179.41728" fill-rule="evenodd"/><path stroke="#000000" stroke-width="0.5707648336006036" stroke-linejoin="round" stroke-linecap="butt" clip-path="url(#id_0)" d="M160.57567 170.2789L160.57567 179.41728" fill-rule="evenodd"/><path fill="#d9ead3" clip-path="url(#id_0)" d="M83.89291 59.20613L101.96544 59.20613L101.96544 76.6734L83.89291 76.6734Z" fill-rule="evenodd"/><path stroke="#000000" stroke-width="0.5707648336006036" stroke-linejoin="round" stroke-linecap="butt" stroke-dasharray="0.5707648336006036,1.7122945008018107" clip-path="url(#id_0)" d="M83.89291 59.20613L101.96544 59.20613L101.96544 76.6734L83.89291 76.6734Z" fill-rule="evenodd"/><path fill="#000000" clip-path="url(#id_0)" d="M93.330925 71.213875Q92.8051 71.65116 92.323845 71.83857Q91.8515 72.01705 91.29894 72.01705Q90.3899 72.01705 89.89973 71.57085Q89.40955 71.12463 89.40955 70.43747Q89.40955 70.026955 89.59671 69.69676Q89.78387 69.35764 90.07797 69.16131Q90.38098 68.956055 90.755295 68.84896Q91.02267 68.777565 91.58413 68.70618Q92.71598 68.57231 93.25071 68.3849Q93.25963 68.18857 93.25963 68.14395Q93.25963 67.5728 92.992256 67.33185Q92.63577 67.0195 91.9228 67.0195Q91.26329 67.0195 90.95136 67.251526Q90.639435 67.48356 90.48793 68.06363L89.56998 67.93869Q89.69475 67.35862 89.979935 67.00165Q90.26513 66.63576 90.80877 66.43943Q91.35242 66.243095 92.05648 66.243095Q92.769455 66.243095 93.206154 66.41265Q93.651764 66.57329 93.85674 66.83209Q94.07063 67.08197 94.15085 67.46571Q94.195404 67.706665 94.195404 68.33136L94.195404 69.58075Q94.195404 70.88368 94.25779 71.23173Q94.320175 71.57085 94.48951 71.89211L93.51808 71.89211Q93.36657 71.59762 93.330925 71.213875ZM93.25071 69.11669Q92.742714 69.33087 91.72673 69.473656Q91.14743 69.55398 90.90681 69.661064Q90.666176 69.76816 90.53249 69.964485Q90.40772 70.16082 90.40772 70.4107Q90.40772 70.785515 90.69291 71.03539Q90.9781 71.28527 91.52174 71.28527Q92.05648 71.28527 92.47535 71.05324Q92.90314 70.81229 93.099205 70.40177Q93.25071 70.080505 93.25071 69.46473L93.25071 69.11669Z" fill-rule="nonzero"/><path fill="#000000" fill-opacity="0.0" clip-path="url(#id_0)" d="M71.92936 67.93677L83.89388 67.93677" fill-rule="evenodd"/><path stroke="#000000" stroke-width="0.5707648336006036" stroke-linejoin="round" stroke-linecap="butt" stroke-dasharray="0.5707648336006036,1.7122945008018107" clip-path="url(#id_0)" d="M71.92936 67.93677L83.89388 67.93677" fill-rule="evenodd"/><path fill="#cfe2f3" clip-path="url(#id_0)" d="M44.06258 106.954796L62.13512 106.954796L62.13512 124.422066L44.06258 124.422066Z" fill-rule="evenodd"/><path stroke="#000000" stroke-width="0.5707648336006036" stroke-linejoin="round" stroke-linecap="butt" stroke-dasharray="0.5707648336006036,1.7122945008018107" clip-path="url(#id_0)" d="M44.06258 106.954796L62.13512 106.954796L62.13512 124.422066L44.06258 124.422066Z" fill-rule="evenodd"/><path fill="#000000" clip-path="url(#id_0)" d="M50.755642 119.640785L49.89116 119.640785L49.89116 112.01059L50.826942 112.01059L50.826942 114.732475Q51.424057 113.99176 52.342014 113.99176Q52.85001 113.99176 53.30453 114.19702Q53.759056 114.402275 54.053158 114.77709Q54.34726 115.14298 54.50768 115.66951Q54.677013 116.196045 54.677013 116.79396Q54.677013 118.21291 53.972946 118.98932Q53.277798 119.765724 52.288544 119.765724Q51.317112 119.765724 50.755642 118.944695L50.755642 119.640785ZM50.74673 116.838585Q50.74673 117.82917 51.02301 118.27538Q51.45971 118.998245 52.217243 118.998245Q52.832188 118.998245 53.277798 118.46279Q53.723408 117.92734 53.723408 116.87428Q53.723408 115.79445 53.29562 115.27685Q52.867836 114.75925 52.25289 114.75925Q51.646862 114.75925 51.19234 115.2947Q50.74673 115.83015 50.74673 116.838585Z" fill-rule="nonzero"/><path fill="#000000" fill-opacity="0.0" clip-path="url(#id_0)" d="M31.149378 115.68843L44.066032 115.68843" fill-rule="evenodd"/><path stroke="#000000" stroke-width="0.5707648336006036" stroke-linejoin="round" stroke-linecap="butt" stroke-dasharray="0.5707648336006036,1.7122945008018107" clip-path="url(#id_0)" d="M31.149378 115.68843L44.066032 115.68843" fill-rule="evenodd"/><path fill="#cfe2f3" clip-path="url(#id_0)" d="M114.93319 106.96379L133.00572 106.96379L133.00572 124.43106L114.93319 124.43106Z" fill-rule="evenodd"/><path stroke="#000000" stroke-width="0.5707648336006036" stroke-linejoin="round" stroke-linecap="butt" stroke-dasharray="0.5707648336006036,1.7122945008018107" clip-path="url(#id_0)" d="M114.93319 106.96379L133.00572 106.96379L133.00572 124.43106L114.93319 124.43106Z" fill-rule="evenodd"/><path fill="#000000" clip-path="url(#id_0)" d="M121.62625 119.64978L120.76177 119.64978L120.76177 112.019585L121.69755 112.019585L121.69755 114.74146Q122.29467 114.000755 123.21262 114.000755Q123.72062 114.000755 124.17514 114.20602Q124.62966 114.41127 124.92377 114.78609Q125.21787 115.15198 125.37829 115.678505Q125.54762 116.20503 125.54762 116.802956Q125.54762 118.22191 124.84356 118.998314Q124.14841 119.77472 123.15915 119.77472Q122.18772 119.77472 121.62625 118.95369L121.62625 119.64978ZM121.61734 116.84758Q121.61734 117.838165 121.893616 118.28438Q122.330315 119.00724 123.08785 119.00724Q123.7028 119.00724 124.14841 118.47179Q124.59402 117.93633 124.59402 116.88328Q124.59402 115.803444 124.16623 115.28584Q123.73844 114.76824 123.123505 114.76824Q122.51747 114.76824 122.06295 115.30369Q121.61734 115.83914 121.61734 116.84758Z" fill-rule="nonzero"/><path fill="#000000" fill-opacity="0.0" clip-path="url(#id_0)" d="M102.79279 115.697426L114.936966 115.697426" fill-rule="evenodd"/><path stroke="#000000" stroke-width="0.5707648336006036" stroke-linejoin="round" stroke-linecap="butt" stroke-dasharray="0.5707648336006036,1.7122945008018107" clip-path="url(#id_0)" d="M102.79279 115.697426L114.936966 115.697426" fill-rule="evenodd"/><path fill="#fce5cd" clip-path="url(#id_0)" d="M186.57303 185.83334L204.64557 185.83334L204.64557 203.30061L186.57303 203.30061Z" fill-rule="evenodd"/><path stroke="#000000" stroke-width="0.5707648336006036" stroke-linejoin="round" stroke-linecap="butt" stroke-dasharray="0.5707648336006036,1.7122945008018107" clip-path="url(#id_0)" d="M186.57303 185.83334L204.64557 185.83334L204.64557 203.30061L186.57303 203.30061Z" fill-rule="evenodd"/><clipPath id="id_2"><path d="M0 -2.842171E-14L437.0 -2.842171E-14L437.0 210.0L0 210.0L0 -2.842171E-14Z" clip-rule="nonzero"/></clipPath><path fill="#000000" clip-path="url(#id_2)" d="M196.01105 196.49353L196.929 196.61847Q196.7775 197.56444 196.15364 198.10881Q195.5387 198.64427 194.62965 198.64427Q193.4978 198.64427 192.81157 197.90356Q192.12534 197.16286 192.12534 195.7796Q192.12534 194.87825 192.41943 194.20894Q192.71353 193.53963 193.31956 193.20943Q193.9256 192.87032 194.63857 192.87032Q195.5387 192.87032 196.10909 193.32544Q196.67946 193.78058 196.83989 194.61945L195.93083 194.75331Q195.79715 194.20001 195.4674 193.92337Q195.13765 193.63779 194.67422 193.63779Q193.97015 193.63779 193.52455 194.14647Q193.07893 194.65515 193.07893 195.75282Q193.07893 196.86835 193.50671 197.37703Q193.93451 197.87679 194.62074 197.87679Q195.1733 197.87679 195.5387 197.53767Q195.91301 197.19855 196.01105 196.49353Z" fill-rule="nonzero"/><path fill="#000000" fill-opacity="0.0" clip-path="url(#id_0)" d="M176.00813 194.56699L186.5714 194.56699" fill-rule="evenodd"/><path stroke="#000000" stroke-width="0.5707648336006036" stroke-linejoin="round" stroke-linecap="butt" stroke-dasharray="0.5707648336006036,1.7122945008018107" clip-path="url(#id_0)" d="M176.00813 194.56699L186.5714 194.56699" fill-rule="evenodd"/><path fill="#d9ead3" clip-path="url(#id_0)" d="M273.13455 52.790073L303.998 52.790073L303.998 83.083466L273.13455 83.083466Z" fill-rule="evenodd"/><path stroke="#000000" stroke-width="0.5707648336006036" stroke-linejoin="round" stroke-linecap="butt" clip-path="url(#id_0)" d="M273.13455 52.790073L303.998 52.790073L303.998 83.083466L273.13455 83.083466Z" fill-rule="evenodd"/><path fill="#000000" clip-path="url(#id_0)" d="M284.99966 71.889114L287.92285 64.25892L289.01013 64.25892L292.12943 71.889114L290.97974 71.889114L290.09744 69.57775L286.90686 69.57775L286.06912 71.889114L284.99966 71.889114ZM287.20096 68.75672L289.7855 68.75672L288.9834 66.641685Q288.62692 65.67787 288.44867 65.0621Q288.29718 65.793884 288.0387 66.51675L287.20096 68.75672Z" fill-rule="nonzero"/><path fill="#d0e0e3" clip-path="url(#id_0)" d="M232.35457 100.54174L263.21802 100.54174L263.21802 130.83513L232.35457 130.83513Z" fill-rule="evenodd"/><path stroke="#000000" stroke-width="0.5707648336006036" stroke-linejoin="round" stroke-linecap="butt" clip-path="url(#id_0)" d="M232.35457 100.54174L263.21802 100.54174L263.21802 130.83513L232.35457 130.83513Z" fill-rule="evenodd"/><path fill="#000000" clip-path="url(#id_0)" d="M245.01286 119.640785L245.01286 112.01059L247.87367 112.01059Q248.74707 112.01059 249.27289 112.242615Q249.7987 112.47465 250.0928 112.95656Q250.39583 113.43846 250.39583 113.96499Q250.39583 114.45582 250.12846 114.893105Q249.87001 115.32147 249.33528 115.58027Q250.02151 115.78553 250.39583 116.27636Q250.77014 116.76719 250.77014 117.42758Q250.77014 117.963036 250.53842 118.42709Q250.31561 118.882225 249.97696 119.1321Q249.6472 119.38198 249.14812 119.51585Q248.64903 119.640785 247.91823 119.640785L245.01286 119.640785ZM246.02885 115.21438L247.66869 115.21438Q248.34602 115.21438 248.63121 115.13406Q249.01443 115.01804 249.21051 114.75032Q249.40657 114.4826 249.40657 114.081Q249.40657 113.706184 249.21942 113.420616Q249.04117 113.126114 248.70251 113.01903Q248.36385 112.911934 247.54391 112.911934L246.02885 112.911934L246.02885 115.21438ZM246.02885 118.73944L247.91823 118.73944Q248.4084 118.73944 248.60448 118.70374Q248.95206 118.64127 249.18376 118.49849Q249.4244 118.34677 249.5759 118.07012Q249.72742 117.79347 249.72742 117.42758Q249.72742 116.99922 249.50461 116.686874Q249.29071 116.37453 248.89857 116.24959Q248.51535 116.11572 247.78455 116.11572L246.02885 116.11572L246.02885 118.73944Z" fill-rule="nonzero"/><path fill="#d0e0e3" clip-path="url(#id_0)" d="M303.998 100.550735L334.86142 100.550735L334.86142 130.84413L303.998 130.84413Z" fill-rule="evenodd"/><path stroke="#000000" stroke-width="0.5707648336006036" stroke-linejoin="round" stroke-linecap="butt" clip-path="url(#id_0)" d="M303.998 100.550735L334.86142 100.550735L334.86142 130.84413L303.998 130.84413Z" fill-rule="evenodd"/><path fill="#000000" clip-path="url(#id_1)" d="M316.65628 119.64978L316.65628 112.019585L319.5171 112.019585Q320.39047 112.019585 320.91632 112.25161Q321.44214 112.48364 321.73624 112.965546Q322.03925 113.44746 322.03925 113.97398Q322.03925 114.46481 321.77188 114.9021Q321.51343 115.33047 320.9787 115.589264Q321.66492 115.794525 322.03925 116.285355Q322.41354 116.776184 322.41354 117.43658Q322.41354 117.97203 322.18185 118.43609Q321.95905 118.89122 321.62036 119.1411Q321.29062 119.390976 320.79153 119.52484Q320.29245 119.64978 319.56165 119.64978L316.65628 119.64978ZM317.67227 115.22337L319.3121 115.22337Q319.98944 115.22337 320.27463 115.14306Q320.65787 115.02704 320.8539 114.759315Q321.05 114.491585 321.05 114.09Q321.05 113.71518 320.86282 113.42961Q320.6846 113.13511 320.34592 113.028015Q320.00726 112.92093 319.18735 112.92093L317.67227 112.92093L317.67227 115.22337ZM317.67227 118.748436L319.56165 118.748436Q320.05182 118.748436 320.2479 118.71274Q320.59546 118.65027 320.82718 118.507484Q321.0678 118.35577 321.21933 118.07912Q321.37082 117.80247 321.37082 117.43658Q321.37082 117.00822 321.148 116.69587Q320.93414 116.38352 320.542 116.25858Q320.15878 116.12472 319.42798 116.12472L317.67227 116.12472L317.67227 118.748436Z" fill-rule="nonzero"/><path fill="#fce5cd" clip-path="url(#id_0)" d="M377.21332 179.42029L408.07675 179.42029L408.07675 209.71367L377.21332 209.71367Z" fill-rule="evenodd"/><path stroke="#000000" stroke-width="0.5707648336006036" stroke-linejoin="round" stroke-linecap="butt" clip-path="url(#id_0)" d="M377.21332 179.42029L408.07675 179.42029L408.07675 209.71367L377.21332 209.71367Z" fill-rule="evenodd"/><path fill="#000000" clip-path="url(#id_0)" d="M389.6226 198.51933L389.6226 190.88913L392.2517 190.88913Q393.134 190.88913 393.60635 191.00514Q394.25696 191.14793 394.72037 191.54953Q395.32642 192.05821 395.6205 192.85246Q395.92352 193.64671 395.92352 194.66408Q395.92352 195.52972 395.71854 196.20796Q395.51358 196.87727 395.19272 197.31456Q394.8808 197.75185 394.5065 198.01065Q394.13217 198.26053 393.59744 198.3944Q393.0627 198.51933 392.37646 198.51933L389.6226 198.51933ZM390.62967 197.61798L392.26062 197.61798Q393.00925 197.61798 393.437 197.48412Q393.8648 197.34134 394.12326 197.08253Q394.47977 196.72557 394.6758 196.11871Q394.8808 195.51187 394.8808 194.64622Q394.8808 193.45038 394.48868 192.80785Q394.09653 192.1653 393.53506 191.95111Q393.134 191.79048 392.2339 191.79048L390.62967 191.79048L390.62967 197.61798Z" fill-rule="nonzero"/><path fill="#000000" fill-opacity="0.0" clip-path="url(#id_0)" d="M288.56625 83.083466L247.78629 100.550735" fill-rule="evenodd"/><path stroke="#000000" stroke-width="0.5707648336006036" stroke-linejoin="round" stroke-linecap="butt" clip-path="url(#id_0)" d="M288.56625 83.083466L247.78629 100.550735" fill-rule="evenodd"/><path fill="#000000" fill-opacity="0.0" clip-path="url(#id_0)" d="M288.56625 83.083466L319.4297 100.550735" fill-rule="evenodd"/><path stroke="#000000" stroke-width="0.5707648336006036" stroke-linejoin="round" stroke-linecap="butt" clip-path="url(#id_0)" d="M288.56625 83.083466L319.4297 100.550735" fill-rule="evenodd"/><path fill="#ead1dc" clip-path="url(#id_0)" d="M377.21255 100.550735L408.07602 100.550735L408.07602 130.84413L377.21255 130.84413Z" fill-rule="evenodd"/><path stroke="#000000" stroke-width="0.5707648336006036" stroke-linejoin="round" stroke-linecap="butt" clip-path="url(#id_0)" d="M377.21255 100.550735L408.07602 100.550735L408.07602 130.84413L377.21255 130.84413Z" fill-rule="evenodd"/><path fill="#000000" clip-path="url(#id_1)" d="M390.6771 119.64978L390.6771 112.019585L391.68417 112.019585L391.68417 119.64978L390.6771 119.64978ZM393.57117 119.64978L393.57117 114.84856L392.7423 114.84856L392.7423 114.125694L393.57117 114.125694L393.57117 113.5367Q393.57117 112.9834 393.6692 112.70675Q393.8029 112.34086 394.14154 112.11775Q394.4802 111.894646 395.09515 111.894646Q395.48727 111.894646 395.96854 111.98389L395.82593 112.80492Q395.54074 112.751366 395.2823 112.751366Q394.85452 112.751366 394.67627 112.938774Q394.49802 113.11726 394.49802 113.61702L394.49802 114.125694L395.5764 114.125694L395.5764 114.84856L394.49802 114.84856L394.49802 119.64978L393.57117 119.64978Z" fill-rule="nonzero"/><path fill="#ead1dc" clip-path="url(#id_0)" d="M377.21255 139.9855L408.07602 139.9855L408.07602 170.2789L377.21255 170.2789Z" fill-rule="evenodd"/><path stroke="#000000" stroke-width="0.5707648336006036" stroke-linejoin="round" stroke-linecap="butt" clip-path="url(#id_0)" d="M377.21255 139.9855L408.07602 139.9855L408.07602 170.2789L377.21255 170.2789Z" fill-rule="evenodd"/><path fill="#000000" clip-path="url(#id_0)" d="M383.79892 158.47914L383.79892 154.36508L383.09488 154.36508L383.09488 153.74039L383.79892 153.74039L383.79892 153.2317Q383.79892 152.75873 383.88806 152.52669Q384.0039 152.21434 384.2891 152.01802Q384.5832 151.82169 385.109 151.82169Q385.4477 151.82169 385.85764 151.902L385.7418 152.60701Q385.49225 152.5624 385.26944 152.5624Q384.90405 152.5624 384.75253 152.72302Q384.601 152.87474 384.601 153.3031L384.601 153.74039L385.51898 153.74039L385.51898 154.36508L384.601 154.36508L384.601 158.47914L383.79892 158.47914ZM389.23093 157.89014Q388.7853 158.27388 388.37534 158.43452Q387.9654 158.58623 387.49304 158.58623Q386.70877 158.58623 386.2899 158.20248Q385.871 157.81874 385.871 157.22975Q385.871 156.8817 386.03143 156.59613Q386.19186 156.30164 386.4414 156.13206Q386.69986 155.95358 387.0207 155.86435Q387.26132 155.80188 387.73367 155.74834Q388.7051 155.63232 389.16852 155.47168Q389.16852 155.30212 389.16852 155.2575Q389.16852 154.76666 388.9457 154.57034Q388.6338 154.29369 388.02777 154.29369Q387.4663 154.29369 387.19003 154.49895Q386.92267 154.69528 386.79788 155.19504L386.0136 155.08794Q386.12054 154.58818 386.36118 154.27583Q386.61072 153.96349 387.07416 153.80286Q387.5376 153.6333 388.14362 153.6333Q388.74966 153.6333 389.12396 153.77608Q389.5072 153.91887 389.68542 154.13306Q389.86368 154.34723 389.93497 154.67743Q389.97955 154.88269 389.97955 155.41814L389.97955 156.48904Q389.97955 157.6135 390.0241 157.90799Q390.07758 158.20248 390.2291 158.47914L389.39133 158.47914Q389.26657 158.22926 389.23093 157.89014ZM389.16852 156.09637Q388.73184 156.27486 387.85843 156.3998Q387.35934 156.47119 387.15436 156.56044Q386.9494 156.64967 386.83353 156.82816Q386.7266 156.99773 386.7266 157.20297Q386.7266 157.52425 386.96722 157.73843Q387.21677 157.9526 387.6802 157.9526Q388.14362 157.9526 388.50012 157.75627Q388.8655 157.55103 389.03485 157.19405Q389.16852 156.92633 389.16852 156.39087L389.16852 156.09637ZM391.20496 158.47914L391.20496 151.9377L392.00705 151.9377L392.00705 158.47914L391.20496 158.47914ZM392.92947 157.0602L393.72266 156.93526Q393.78503 157.41716 394.08807 157.67596Q394.4 157.92584 394.94363 157.92584Q395.4962 157.92584 395.76355 157.70273Q396.0309 157.4707 396.0309 157.16728Q396.0309 156.89955 395.7992 156.73892Q395.62988 156.63182 394.97928 156.47119Q394.097 156.2481 393.7494 156.08745Q393.41074 155.9179 393.23248 155.63232Q393.06317 155.34674 393.06317 154.9987Q393.06317 154.67743 393.20575 154.4097Q393.34836 154.14197 393.5979 153.96349Q393.78503 153.82071 394.1059 153.73146Q394.43564 153.6333 394.80103 153.6333Q395.36252 153.6333 395.78137 153.79393Q396.20026 153.95456 396.39633 154.23122Q396.60132 154.49895 396.68152 154.963L395.89725 155.0701Q395.84378 154.7042 395.58533 154.49895Q395.32687 154.29369 394.86343 154.29369Q394.31088 154.29369 394.07025 154.4811Q393.83853 154.65958 393.83853 154.90053Q393.83853 155.06117 393.93655 155.18611Q394.03458 155.31105 394.23956 155.40028Q394.36435 155.44492 394.95255 155.60555Q395.7992 155.82864 396.13788 155.98036Q396.47653 156.12315 396.6637 156.3998Q396.85977 156.67645 396.85977 157.08696Q396.85977 157.48856 396.61914 157.84552Q396.38742 158.19356 395.9418 158.3899Q395.5051 158.58623 394.95255 158.58623Q394.02567 158.58623 393.54443 158.20248Q393.06317 157.81874 392.92947 157.0602ZM401.0485 156.9531L401.87732 157.05127Q401.68124 157.78305 401.1465 158.18465Q400.6207 158.58623 399.80078 158.58623Q398.75806 158.58623 398.15204 157.94368Q397.546 157.30115 397.546 156.14992Q397.546 154.95407 398.16095 154.29369Q398.77588 153.6333 399.75623 153.6333Q400.70093 153.6333 401.29803 154.28476Q401.90405 154.9273 401.90405 156.09637Q401.90405 156.16777 401.90405 156.31056L398.37482 156.31056Q398.4194 157.09589 398.81152 157.51532Q399.2126 157.92584 399.80078 157.92584Q400.2464 157.92584 400.55832 157.6938Q400.87024 157.46178 401.0485 156.9531ZM398.4194 155.65016L401.0574 155.65016Q401.00394 155.05225 400.7544 154.75775Q400.37115 154.29369 399.76514 154.29369Q399.2126 154.29369 398.82935 154.6685Q398.45505 155.0344 398.4194 155.65016Z" fill-rule="nonzero"/><path fill="#000000" fill-opacity="0.0" clip-path="url(#id_0)" d="M288.56625 83.083466L392.63605 100.550735" fill-rule="evenodd"/><path stroke="#000000" stroke-width="0.5707648336006036" stroke-linejoin="round" stroke-linecap="butt" clip-path="url(#id_0)" d="M288.56625 83.083466L392.63605 100.550735" fill-rule="evenodd"/><path fill="#000000" fill-opacity="0.0" clip-path="url(#id_0)" d="M392.6443 130.84413L392.6443 139.98251" fill-rule="evenodd"/><path stroke="#000000" stroke-width="0.5707648336006036" stroke-linejoin="round" stroke-linecap="butt" clip-path="url(#id_0)" d="M392.6443 130.84413L392.6443 139.98251" fill-rule="evenodd"/><path fill="#000000" fill-opacity="0.0" clip-path="url(#id_0)" d="M392.6443 170.2789L392.6443 179.41728" fill-rule="evenodd"/><path stroke="#000000" stroke-width="0.5707648336006036" stroke-linejoin="round" stroke-linecap="butt" clip-path="url(#id_0)" d="M392.6443 170.2789L392.6443 179.41728" fill-rule="evenodd"/><path fill="#d9ead3" clip-path="url(#id_0)" d="M315.96152 59.20613L334.03406 59.20613L334.03406 76.6734L315.96152 76.6734Z" fill-rule="evenodd"/><path stroke="#000000" stroke-width="0.5707648336006036" stroke-linejoin="round" stroke-linecap="butt" stroke-dasharray="0.5707648336006036,1.7122945008018107" clip-path="url(#id_0)" d="M315.96152 59.20613L334.03406 59.20613L334.03406 76.6734L315.96152 76.6734Z" fill-rule="evenodd"/><path fill="#000000" clip-path="url(#id_0)" d="M325.39954 71.213875Q324.87372 71.65116 324.39246 71.83857Q323.92014 72.01705 323.36755 72.01705Q322.45853 72.01705 321.96835 71.57085Q321.47818 71.12463 321.47818 70.43747Q321.47818 70.026955 321.66534 69.69676Q321.85248 69.35764 322.1466 69.16131Q322.44962 68.956055 322.8239 68.84896Q323.09128 68.777565 323.65277 68.70618Q324.7846 68.57231 325.31934 68.3849Q325.32825 68.18857 325.32825 68.14395Q325.32825 67.5728 325.06088 67.33185Q324.7044 67.0195 323.99142 67.0195Q323.3319 67.0195 323.02 67.251526Q322.70807 67.48356 322.55655 68.06363L321.6386 67.93869Q321.76337 67.35862 322.04855 67.00165Q322.33374 66.63576 322.87738 66.43943Q323.42105 66.243095 324.1251 66.243095Q324.83807 66.243095 325.27478 66.41265Q325.7204 66.57329 325.92535 66.83209Q326.13925 67.08197 326.21948 67.46571Q326.26404 67.706665 326.26404 68.33136L326.26404 69.58075Q326.26404 70.88368 326.32642 71.23173Q326.3888 71.57085 326.55814 71.89211L325.5867 71.89211Q325.4352 71.59762 325.39954 71.213875ZM325.31934 69.11669Q324.81134 69.33087 323.79535 69.473656Q323.21606 69.55398 322.97543 69.661064Q322.7348 69.76816 322.6011 69.964485Q322.47635 70.16082 322.47635 70.4107Q322.47635 70.785515 322.76154 71.03539Q323.04672 71.28527 323.59036 71.28527Q324.1251 71.28527 324.54398 71.05324Q324.97177 70.81229 325.16782 70.40177Q325.31934 70.080505 325.31934 69.46473L325.31934 69.11669Z" fill-rule="nonzero"/><path fill="#000000" fill-opacity="0.0" clip-path="url(#id_0)" d="M303.998 67.93677L315.9625 67.93677" fill-rule="evenodd"/><path stroke="#000000" stroke-width="0.5707648336006036" stroke-linejoin="round" stroke-linecap="butt" stroke-dasharray="0.5707648336006036,1.7122945008018107" clip-path="url(#id_0)" d="M303.998 67.93677L315.9625 67.93677" fill-rule="evenodd"/><path fill="#cfe2f3" clip-path="url(#id_0)" d="M276.1312 106.954796L294.20374 106.954796L294.20374 124.422066L276.1312 124.422066Z" fill-rule="evenodd"/><path stroke="#000000" stroke-width="0.5707648336006036" stroke-linejoin="round" stroke-linecap="butt" stroke-dasharray="0.5707648336006036,1.7122945008018107" clip-path="url(#id_0)" d="M276.1312 106.954796L294.20374 106.954796L294.20374 124.422066L276.1312 124.422066Z" fill-rule="evenodd"/><path fill="#000000" clip-path="url(#id_0)" d="M282.82428 119.640785L281.95978 119.640785L281.95978 112.01059L282.89557 112.01059L282.89557 114.732475Q283.49268 113.99176 284.41064 113.99176Q284.91864 113.99176 285.37317 114.19702Q285.82767 114.402275 286.1218 114.77709Q286.4159 115.14298 286.5763 115.66951Q286.74564 116.196045 286.74564 116.79396Q286.74564 118.21291 286.04156 118.98932Q285.34644 119.765724 284.35718 119.765724Q283.38574 119.765724 282.82428 118.944695L282.82428 119.640785ZM282.81537 116.838585Q282.81537 117.82917 283.09164 118.27538Q283.52832 118.998245 284.28586 118.998245Q284.90082 118.998245 285.34644 118.46279Q285.79202 117.92734 285.79202 116.87428Q285.79202 115.79445 285.36426 115.27685Q284.93646 114.75925 284.32153 114.75925Q283.71548 114.75925 283.26096 115.2947Q282.81537 115.83015 282.81537 116.838585Z" fill-rule="nonzero"/><path fill="#000000" fill-opacity="0.0" clip-path="url(#id_0)" d="M263.21802 115.68843L276.13464 115.68843" fill-rule="evenodd"/><path stroke="#000000" stroke-width="0.5707648336006036" stroke-linejoin="round" stroke-linecap="butt" stroke-dasharray="0.5707648336006036,1.7122945008018107" clip-path="url(#id_0)" d="M263.21802 115.68843L276.13464 115.68843" fill-rule="evenodd"/><path fill="#cfe2f3" clip-path="url(#id_0)" d="M347.0018 106.96379L365.07434 106.96379L365.07434 124.43106L347.0018 124.43106Z" fill-rule="evenodd"/><path stroke="#000000" stroke-width="0.5707648336006036" stroke-linejoin="round" stroke-linecap="butt" stroke-dasharray="0.5707648336006036,1.7122945008018107" clip-path="url(#id_0)" d="M347.0018 106.96379L365.07434 106.96379L365.07434 124.43106L347.0018 124.43106Z" fill-rule="evenodd"/><path fill="#000000" clip-path="url(#id_0)" d="M353.6949 119.64978L352.83038 119.64978L352.83038 112.019585L353.76617 112.019585L353.76617 114.74146Q354.36328 114.000755 355.28125 114.000755Q355.78925 114.000755 356.24377 114.20602Q356.6983 114.41127 356.9924 114.78609Q357.2865 115.15198 357.4469 115.678505Q357.61624 116.20503 357.61624 116.802956Q357.61624 118.22191 356.91217 118.998314Q356.21704 119.77472 355.22778 119.77472Q354.25635 119.77472 353.6949 118.95369L353.6949 119.64978ZM353.68597 116.84758Q353.68597 117.838165 353.96225 118.28438Q354.39896 119.00724 355.15646 119.00724Q355.77142 119.00724 356.21704 118.47179Q356.66263 117.93633 356.66263 116.88328Q356.66263 115.803444 356.23486 115.28584Q355.80707 114.76824 355.19214 114.76824Q354.5861 114.76824 354.13156 115.30369Q353.68597 115.83914 353.68597 116.84758Z" fill-rule="nonzero"/><path fill="#000000" fill-opacity="0.0" clip-path="url(#id_0)" d="M334.86142 115.697426L347.00558 115.697426" fill-rule="evenodd"/><path stroke="#000000" stroke-width="0.5707648336006036" stroke-linejoin="round" stroke-linecap="butt" stroke-dasharray="0.5707648336006036,1.7122945008018107" clip-path="url(#id_0)" d="M334.86142 115.697426L347.00558 115.697426" fill-rule="evenodd"/><path fill="#fce5cd" clip-path="url(#id_0)" d="M418.64166 185.83334L436.7142 185.83334L436.7142 203.30061L418.64166 203.30061Z" fill-rule="evenodd"/><path stroke="#000000" stroke-width="0.5707648336006036" stroke-linejoin="round" stroke-linecap="butt" stroke-dasharray="0.5707648336006036,1.7122945008018107" clip-path="url(#id_0)" d="M418.64166 185.83334L436.7142 185.83334L436.7142 203.30061L418.64166 203.30061Z" fill-rule="evenodd"/><path fill="#000000" clip-path="url(#id_2)" d="M428.05295 198.51933L428.05295 197.82324Q427.53604 198.64427 426.51114 198.64427Q425.85162 198.64427 425.29907 198.27838Q424.74652 197.91249 424.44348 197.26102Q424.14047 196.60956 424.14047 195.76175Q424.14047 194.9318 424.41675 194.26248Q424.69302 193.58424 425.2367 193.22728Q425.78925 192.87032 426.47546 192.87032Q426.97455 192.87032 427.3578 193.08449Q427.7499 193.28975 427.99054 193.62886L427.99054 190.88913L428.92633 190.88913L428.92633 198.51933L428.05295 198.51933ZM425.103 195.76175Q425.103 196.82373 425.5486 197.35027Q425.99423 197.87679 426.60025 197.87679Q427.21518 197.87679 427.64297 197.37703Q428.07077 196.86835 428.07077 195.84207Q428.07077 194.7087 427.63406 194.18217Q427.19736 193.64671 426.5557 193.64671Q425.94073 193.64671 425.52188 194.1554Q425.103 194.66408 425.103 195.76175Z" fill-rule="nonzero"/><path fill="#000000" fill-opacity="0.0" clip-path="url(#id_0)" d="M408.07675 194.56699L418.64 194.56699" fill-rule="evenodd"/><path stroke="#000000" stroke-width="0.5707648336006036" stroke-linejoin="round" stroke-linecap="butt" stroke-dasharray="0.5707648336006036,1.7122945008018107" clip-path="url(#id_0)" d="M408.07675 194.56699L418.64 194.56699" fill-rule="evenodd"/><path fill="#000000" fill-opacity="0.0" clip-path="url(#id_0)" d="M181.28976 30.579716L288.57526 52.796066" fill-rule="evenodd"/><path stroke="#000000" stroke-width="0.5707648336006036" stroke-linejoin="round" stroke-linecap="butt" clip-path="url(#id_0)" d="M181.28976 30.579716L288.57526 52.796066" fill-rule="evenodd"/></svg>