<svg version="1.1" viewBox="0.0 0.0 437.0 122.0" fill="none" stroke="none" stroke-linecap="square" stroke-miterlimit="10" preserveAspectRatio="none" width="437" height="122" xmlns:xlink="http://www.w3.org/1999/xlink" xmlns="http://www.w3.org/2000/svg"><clipPath id="id_0"><path d="M0 0L437.0 0L437.0 122.0L0 122.0L0 0Z" clip-rule="nonzero"/></clipPath><path fill="#000000" fill-opacity="0.0" clip-path="url(#id_0)" d="M-7.0799766 -17.654459L719.8175 -17.654459L719.8175 527.9556L-7.0799766 527.9556Z" fill-rule="evenodd"/><path fill="#cfe2f3" clip-path="url(#id_0)" d="M172.84384 0.28491777L237.80672 0.28491777L237.80672 30.429516L172.84384 30.429516Z" fill-rule="evenodd"/><path stroke="#000000" stroke-width="0.5681161906120052" stroke-linejoin="round" stroke-linecap="butt" clip-path="url(#id_0)" d="M172.84384 0.28491777L237.80672 0.28491777L237.80672 30.429516L172.84384 30.429516Z" fill-rule="evenodd"/><clipPath id="id_1"><path d="M-2.842171E-14 0L437.0 0L437.0 122.0L-2.842171E-14 122.0L-2.842171E-14 0Z" clip-rule="nonzero"/></clipPath><path fill="#000000" clip-path="url(#id_1)" d="M194.96977 19.290155L194.96977 11.697436L198.33275 11.697436Q199.3443 11.697436 199.86781 11.901685Q200.4002 12.105933 200.71078 12.629875Q201.03021 13.144937 201.03021 13.775443Q201.03021 14.5746765 200.5067 15.13414Q199.98317 15.684724 198.89175 15.83569Q199.29106 16.031057 199.50401 16.217546Q199.93881 16.617163 200.32922 17.221027L201.65135 19.290155L200.39134 19.290155L199.38866 17.709448Q198.945 17.02566 198.66106 16.670444Q198.3771 16.306349 198.14641 16.164263Q197.92458 16.013298 197.69386 15.960015Q197.52528 15.915613 197.13486 15.915613L195.97246 15.915613L195.97246 19.290155L194.96977 19.290155ZM195.97246 15.054217L198.12866 15.054217Q198.82077 15.054217 199.20233 14.912131Q199.59274 14.761165 199.79683 14.450352Q200.00092 14.139539 200.00092 13.775443Q200.00092 13.233741 199.61049 12.887406Q199.22008 12.541072 198.36824 12.541072L195.97246 12.541072L195.97246 15.054217ZM202.14175 16.53724Q202.14175 15.009815 202.98471 14.281625Q203.69458 13.668879 204.715 13.668879Q205.85078 13.668879 206.56952 14.41483Q207.28825 15.151901 207.28825 16.466196Q207.28825 17.52296 206.96881 18.135706Q206.64937 18.739573 206.03712 19.077026Q205.43373 19.41448 204.715 19.41448Q203.56148 19.41448 202.85162 18.677408Q202.14175 17.931458 202.14175 16.53724ZM203.10007 16.53724Q203.10007 17.594004 203.55261 18.126825Q204.014 18.650768 204.715 18.650768Q205.40712 18.650768 205.86853 18.126825Q206.32994 17.594004 206.32994 16.510597Q206.32994 15.489355 205.86853 14.965413Q205.40712 14.441471 204.715 14.441471Q204.014 14.441471 203.55261 14.965413Q203.10007 15.480474 203.10007 16.53724ZM208.03401 16.53724Q208.03401 15.009815 208.87697 14.281625Q209.58684 13.668879 210.60725 13.668879Q211.74303 13.668879 212.46176 14.41483Q213.1805 15.151901 213.1805 16.466196Q213.1805 17.52296 212.86107 18.135706Q212.54163 18.739573 211.92937 19.077026Q211.32599 19.41448 210.60725 19.41448Q209.45374 19.41448 208.74387 18.677408Q208.03401 17.931458 208.03401 16.53724ZM208.99232 16.53724Q208.99232 17.594004 209.44485 18.126825Q209.90627 18.650768 210.60725 18.650768Q211.29938 18.650768 211.76077 18.126825Q212.22218 17.594004 212.22218 16.510597Q212.22218 15.489355 211.76077 14.965413Q211.29938 14.441471 210.60725 14.441471Q209.90627 14.441471 209.44485 14.965413Q208.99232 15.480474 208.99232 16.53724ZM216.30429 18.4554L216.4374 19.281275Q216.04697 19.361198 215.7364 19.361198Q215.23064 19.361198 214.94669 19.201351Q214.67162 19.041504 214.55626 18.783974Q214.44092 18.517563 214.44092 17.682808L214.44092 14.512514L213.75768 14.512514L213.75768 13.793204L214.44092 13.793204L214.44092 12.434507L215.36372 11.875044L215.36372 13.793204L216.30429 13.793204L216.30429 14.512514L215.36372 14.512514L215.36372 17.73609Q215.36372 18.126825 215.4081 18.242271Q215.46133 18.357716 215.56781 18.428759Q215.68317 18.490921 215.89613 18.490921Q216.04697 18.490921 216.30429 18.4554Z" fill-rule="nonzero"/><path fill="#d9ead3" clip-path="url(#id_0)" d="M70.334236 44.048885L101.06283 44.048885L101.06283 74.19348L70.334236 74.19348Z" fill-rule="evenodd"/><path stroke="#000000" stroke-width="0.5681161906120052" stroke-linejoin="round" stroke-linecap="butt" clip-path="url(#id_0)" d="M70.334236 44.048885L101.06283 44.048885L101.06283 74.19348L70.334236 74.19348Z" fill-rule="evenodd"/><clipPath id="id_2"><path d="M0 7.1054274E-15L437.0 7.1054274E-15L437.0 122.0L0 122.0L0 7.1054274E-15Z" clip-rule="nonzero"/></clipPath><path fill="#000000" clip-path="url(#id_2)" d="M82.1475 63.054123L85.05793 55.461403L86.14047 55.461403L89.24611 63.054123L88.10146 63.054123L87.22301 60.754105L84.04638 60.754105L83.212296 63.054123L82.1475 63.054123ZM84.339195 59.93711L86.912445 59.93711L86.11385 57.832462Q85.75892 56.873383 85.58145 56.260635Q85.43061 56.988827 85.17329 57.708138L84.339195 59.93711Z" fill-rule="nonzero"/><path fill="#000000" fill-opacity="0.0" clip-path="url(#id_0)" d="M205.32529 30.429516L85.701996 44.05187" fill-rule="evenodd"/><path stroke="#000000" stroke-width="0.5681161906120052" stroke-linejoin="round" stroke-linecap="butt" clip-path="url(#id_0)" d="M205.32529 30.429516L85.701996 44.05187" fill-rule="evenodd"/><path fill="#d0e0e3" clip-path="url(#id_0)" d="M0.28468958 91.56601L31.013279 91.56601L31.013279 121.71061L0.28468958 121.71061Z" fill-rule="evenodd"/><path stroke="#000000" stroke-width="0.5681161906120052" stroke-linejoin="round" stroke-linecap="butt" clip-path="url(#id_0)" d="M0.28468958 91.56601L31.013279 91.56601L31.013279 121.71061L0.28468958 121.71061Z" fill-rule="evenodd"/><clipPath id="id_3"><path d="M-5.551115E-17 0L437.0 0L437.0 122.0L-5.551115E-17 122.0L-5.551115E-17 0Z" clip-rule="nonzero"/></clipPath><path fill="#000000" clip-path="url(#id_3)" d="M12.887676 110.57124L12.887676 102.97852L15.735992 102.97852Q16.605572 102.97852 17.129095 103.20942Q17.652617 103.44031 17.945435 103.919846Q18.247126 104.39938 18.247126 104.92333Q18.247126 105.41175 17.980927 105.846886Q17.723602 106.27315 17.191208 106.53068Q17.874449 106.734924 18.247126 107.22334Q18.619802 107.71177 18.619802 108.36891Q18.619802 108.90173 18.389097 109.36352Q18.167265 109.816414 17.830082 110.06506Q17.501772 110.31371 17.00487 110.44692Q16.507965 110.57124 15.780358 110.57124L12.887676 110.57124ZM13.899227 106.16658L15.531907 106.16658Q16.206276 106.16658 16.49022 106.086655Q16.871769 105.971214 17.066982 105.7048Q17.262194 105.43839 17.262194 105.03877Q17.262194 104.665794 17.075855 104.38162Q16.89839 104.08858 16.561205 103.98201Q16.224022 103.87544 15.407681 103.87544L13.899227 103.87544L13.899227 106.16658ZM13.899227 109.674324L15.780358 109.674324Q16.268389 109.674324 16.4636 109.63881Q16.809656 109.576645 17.040361 109.434555Q17.27994 109.28359 17.430784 109.0083Q17.58163 108.73301 17.58163 108.36891Q17.58163 107.94266 17.359798 107.63184Q17.146841 107.32103 16.756418 107.1967Q16.374866 107.0635 15.64726 107.0635L13.899227 107.0635L13.899227 109.674324Z" fill-rule="nonzero"/><path fill="#d0e0e3" clip-path="url(#id_0)" d="M69.96954 91.56601L100.698135 91.56601L100.698135 121.71061L69.96954 121.71061Z" fill-rule="evenodd"/><path stroke="#000000" stroke-width="0.5681161906120052" stroke-linejoin="round" stroke-linecap="butt" clip-path="url(#id_0)" d="M69.96954 91.56601L100.698135 91.56601L100.698135 121.71061L69.96954 121.71061Z" fill-rule="evenodd"/><path fill="#000000" clip-path="url(#id_0)" d="M82.57253 110.57124L82.57253 102.97852L85.420845 102.97852Q86.29043 102.97852 86.81395 103.20942Q87.33747 103.44031 87.63029 103.919846Q87.931984 104.39938 87.931984 104.92333Q87.931984 105.41175 87.66578 105.846886Q87.408455 106.27315 86.87606 106.53068Q87.5593 106.734924 87.931984 107.22334Q88.30466 107.71177 88.30466 108.36891Q88.30466 108.90173 88.07395 109.36352Q87.85212 109.816414 87.51494 110.06506Q87.18663 110.31371 86.68972 110.44692Q86.19282 110.57124 85.46522 110.57124L82.57253 110.57124ZM83.58408 106.16658L85.21677 106.16658Q85.89113 106.16658 86.17507 106.086655Q86.556625 105.971214 86.75184 105.7048Q86.94705 105.43839 86.94705 105.03877Q86.94705 104.665794 86.76071 104.38162Q86.583244 104.08858 86.24606 103.98201Q85.908875 103.87544 85.09254 103.87544L83.58408 103.87544L83.58408 106.16658ZM83.58408 109.674324L85.46522 109.674324Q85.95325 109.674324 86.14845 109.63881Q86.494514 109.576645 86.72522 109.434555Q86.9648 109.28359 87.11564 109.0083Q87.26649 108.73301 87.26649 108.36891Q87.26649 107.94266 87.044655 107.63184Q86.831696 107.32103 86.44127 107.1967Q86.05972 107.0635 85.332115 107.0635L83.58408 107.0635L83.58408 109.674324Z" fill-rule="nonzero"/><path fill="#fce5cd" clip-path="url(#id_0)" d="M142.1145 91.56601L172.8431 91.56601L172.8431 121.71061L142.1145 121.71061Z" fill-rule="evenodd"/><path stroke="#000000" stroke-width="0.5681161906120052" stroke-linejoin="round" stroke-linecap="butt" clip-path="url(#id_0)" d="M142.1145 91.56601L172.8431 91.56601L172.8431 121.71061L142.1145 121.71061Z" fill-rule="evenodd"/><path fill="#000000" clip-path="url(#id_0)" d="M159.88226 107.907135L160.88493 108.164665Q160.5655 109.39903 159.74916 110.05618Q158.93283 110.70445 157.7438 110.70445Q156.5193 110.70445 155.74733 110.20715Q154.98422 109.700966 154.57605 108.75965Q154.17676 107.80945 154.17676 106.71716Q154.17676 105.53607 154.62929 104.65691Q155.08183 103.76888 155.91591 103.31598Q156.75888 102.8542 157.76155 102.8542Q158.89732 102.8542 159.66931 103.43143Q160.45015 104.00865 160.75185 105.065414L159.7669 105.2963Q159.50072 104.47043 158.99493 104.09745Q158.49803 103.7156 157.7438 103.7156Q156.86536 103.7156 156.27972 104.13297Q155.69408 104.550354 155.4545 105.26078Q155.21492 105.96233 155.21492 106.71716Q155.21492 107.68513 155.49887 108.404434Q155.78282 109.12374 156.37732 109.48784Q156.97183 109.843056 157.66394 109.843056Q158.50691 109.843056 159.09254 109.35464Q159.67818 108.86621 159.88226 107.907135Z" fill-rule="nonzero"/><path fill="#000000" fill-opacity="0.0" clip-path="url(#id_0)" d="M85.69853 74.19348L15.655951 91.57496" fill-rule="evenodd"/><path stroke="#000000" stroke-width="0.5681161906120052" stroke-linejoin="round" stroke-linecap="butt" clip-path="url(#id_0)" d="M85.69853 74.19348L15.655951 91.57496" fill-rule="evenodd"/><path fill="#000000" fill-opacity="0.0" clip-path="url(#id_0)" d="M85.69853 74.19348L85.340805 91.57496" fill-rule="evenodd"/><path stroke="#000000" stroke-width="0.5681161906120052" stroke-linejoin="round" stroke-linecap="butt" clip-path="url(#id_0)" d="M85.69853 74.19348L85.340805 91.57496" fill-rule="evenodd"/><path fill="#000000" fill-opacity="0.0" clip-path="url(#id_0)" d="M85.69853 74.19348L157.47607 91.57496" fill-rule="evenodd"/><path stroke="#000000" stroke-width="0.5681161906120052" stroke-linejoin="round" stroke-linecap="butt" clip-path="url(#id_0)" d="M85.69853 74.19348L157.47607 91.57496" fill-rule="evenodd"/><path fill="#d9ead3" clip-path="url(#id_0)" d="M110.5023 50.43343L128.49586 50.43343L128.49586 67.8149L110.5023 67.8149Z" fill-rule="evenodd"/><path stroke="#000000" stroke-width="0.5681161906120052" stroke-linejoin="round" stroke-linecap="butt" stroke-dasharray="0.5681161906120052,1.7043485718360158" clip-path="url(#id_0)" d="M110.5023 50.43343L128.49586 50.43343L128.49586 67.8149L110.5023 67.8149Z" fill-rule="evenodd"/><path fill="#000000" clip-path="url(#id_0)" d="M119.89908 62.3822Q119.37556 62.817333 118.8964 63.003822Q118.42612 63.18143 117.87598 63.18143Q116.9709 63.18143 116.48287 62.73741Q115.99484 62.293392 115.99484 61.609604Q115.99484 61.201107 116.18118 60.87253Q116.36752 60.53508 116.66034 60.33971Q116.96203 60.135464 117.33471 60.028896Q117.60091 59.957855 118.15992 59.88681Q119.28683 59.753605 119.81922 59.56712Q119.828094 59.37175 119.828094 59.327347Q119.828094 58.759007 119.5619 58.519234Q119.20696 58.20842 118.4971 58.20842Q117.840485 58.20842 117.52992 58.439312Q117.21935 58.6702 117.06851 59.247425L116.154564 59.1231Q116.278786 58.545876 116.56274 58.190662Q116.84668 57.826565 117.38795 57.6312Q117.929214 57.43583 118.6302 57.43583Q119.340065 57.43583 119.77486 57.604557Q120.21851 57.764404 120.4226 58.021935Q120.63556 58.270584 120.715416 58.65244Q120.75979 58.892212 120.75979 59.513836L120.75979 60.757088Q120.75979 62.053623 120.8219 62.399956Q120.88401 62.73741 121.052605 63.057106L120.08542 63.057106Q119.93457 62.764053 119.89908 62.3822ZM119.81922 60.29531Q119.313446 60.50844 118.301895 60.650524Q117.72513 60.730446 117.48555 60.837013Q117.24597 60.943577 117.11288 61.138943Q116.98865 61.334312 116.98865 61.582962Q116.98865 61.95594 117.2726 62.20459Q117.55654 62.45324 118.09781 62.45324Q118.6302 62.45324 119.04725 62.22235Q119.47316 61.98258 119.66837 61.57408Q119.81922 61.25439 119.81922 60.641644L119.81922 60.29531Z" fill-rule="nonzero"/><path fill="#000000" fill-opacity="0.0" clip-path="url(#id_0)" d="M101.06283 59.121185L110.50677 59.121185" fill-rule="evenodd"/><path stroke="#000000" stroke-width="0.5681161906120052" stroke-linejoin="round" stroke-linecap="butt" stroke-dasharray="0.5681161906120052,1.7043485718360158" clip-path="url(#id_0)" d="M101.06283 59.121185L110.50677 59.121185" fill-rule="evenodd"/><path fill="#000000" fill-opacity="0.0" clip-path="url(#id_0)" d="M344.27615 65.50573L356.04532 65.50573" fill-rule="evenodd"/><path stroke="#000000" stroke-width="0.5681161906120052" stroke-linejoin="round" stroke-linecap="butt" stroke-dasharray="0.5681161906120052,1.7043485718360158" clip-path="url(#id_0)" d="M344.27615 65.50573L356.04532 65.50573" fill-rule="evenodd"/><path fill="#d0e0e3" clip-path="url(#id_0)" d="M42.004738 97.94757L59.998314 97.94757L59.998314 115.32905L42.004738 115.32905Z" fill-rule="evenodd"/><path stroke="#000000" stroke-width="0.5681161906120052" stroke-linejoin="round" stroke-linecap="butt" stroke-dasharray="0.5681161906120052,1.7043485718360158" clip-path="url(#id_0)" d="M42.004738 97.94757L59.998314 97.94757L59.998314 115.32905L42.004738 115.32905Z" fill-rule="evenodd"/><path fill="#000000" clip-path="url(#id_0)" d="M48.668556 110.57124L47.80785 110.57124L47.80785 102.97853L48.739544 102.97853L48.739544 105.68704Q49.334053 104.94997 50.247997 104.94997Q50.753773 104.94997 51.20631 105.15422Q51.658848 105.35847 51.951664 105.731445Q52.24448 106.095535 52.4042 106.61948Q52.572792 107.143425 52.572792 107.7384Q52.572792 109.15038 51.871803 109.92298Q51.17969 110.69557 50.19476 110.69557Q49.227573 110.69557 48.668556 109.87858L48.668556 110.57124ZM48.659683 107.78281Q48.659683 108.76853 48.934757 109.21255Q49.369545 109.93186 50.12377 109.93186Q50.736027 109.93186 51.17969 109.39904Q51.623352 108.86621 51.623352 107.81833Q51.623352 106.743805 51.197437 106.228745Q50.77152 105.713684 50.159264 105.713684Q49.555885 105.713684 49.103348 106.246506Q48.659683 106.77933 48.659683 107.78281Z" fill-rule="nonzero"/><path fill="#000000" fill-opacity="0.0" clip-path="url(#id_0)" d="M31.013279 106.638306L42.013325 106.638306" fill-rule="evenodd"/><path stroke="#000000" stroke-width="0.5681161906120052" stroke-linejoin="round" stroke-linecap="butt" stroke-dasharray="0.5681161906120052,1.7043485718360158" clip-path="url(#id_0)" d="M31.013279 106.638306L42.013325 106.638306" fill-rule="evenodd"/><path fill="#d0e0e3" clip-path="url(#id_0)" d="M112.752365 97.94757L130.74594 97.94757L130.74594 115.32905L112.752365 115.32905Z" fill-rule="evenodd"/><path stroke="#000000" stroke-width="0.5681161906120052" stroke-linejoin="round" stroke-linecap="butt" stroke-dasharray="0.5681161906120052,1.7043485718360158" clip-path="url(#id_0)" d="M112.752365 97.94757L130.74594 97.94757L130.74594 115.32905L112.752365 115.32905Z" fill-rule="evenodd"/><path fill="#000000" clip-path="url(#id_0)" d="M119.41618 110.57124L118.55548 110.57124L118.55548 102.97853L119.487175 102.97853L119.487175 105.68704Q120.08168 104.94997 120.99563 104.94997Q121.5014 104.94997 121.95394 105.15422Q122.40648 105.35847 122.699295 105.731445Q122.99211 106.095535 123.15183 106.61948Q123.32042 107.143425 123.32042 107.7384Q123.32042 109.15038 122.61943 109.92298Q121.92732 110.69557 120.94239 110.69557Q119.975204 110.69557 119.41618 109.87858L119.41618 110.57124ZM119.40731 107.78281Q119.40731 108.76853 119.68239 109.21255Q120.11717 109.93186 120.8714 109.93186Q121.48366 109.93186 121.92732 109.39904Q122.37098 108.86621 122.37098 107.81833Q122.37098 106.743805 121.94507 106.228745Q121.51915 105.713684 120.9069 105.713684Q120.30351 105.713684 119.850975 106.246506Q119.40731 106.77933 119.40731 107.78281Z" fill-rule="nonzero"/><path fill="#000000" fill-opacity="0.0" clip-path="url(#id_0)" d="M100.698135 106.638306L112.75347 106.638306" fill-rule="evenodd"/><path stroke="#000000" stroke-width="0.5681161906120052" stroke-linejoin="round" stroke-linecap="butt" stroke-dasharray="0.5681161906120052,1.7043485718360158" clip-path="url(#id_0)" d="M100.698135 106.638306L112.75347 106.638306" fill-rule="evenodd"/><path fill="#fce5cd" clip-path="url(#id_0)" d="M184.75777 97.94757L202.75134 97.94757L202.75134 115.32905L184.75777 115.32905Z" fill-rule="evenodd"/><path stroke="#000000" stroke-width="0.5681161906120052" stroke-linejoin="round" stroke-linecap="butt" stroke-dasharray="0.5681161906120052,1.7043485718360158" clip-path="url(#id_0)" d="M184.75777 97.94757L202.75134 97.94757L202.75134 115.32905L184.75777 115.32905Z" fill-rule="evenodd"/><path fill="#000000" clip-path="url(#id_0)" d="M194.15456 108.555405L195.0685 108.679726Q194.91765 109.62105 194.29652 110.16275Q193.68427 110.69557 192.7792 110.69557Q191.6523 110.69557 190.96906 109.9585Q190.28581 109.22143 190.28581 107.84497Q190.28581 106.94805 190.57863 106.28203Q190.87144 105.616 191.47482 105.28742Q192.07822 104.94997 192.78807 104.94997Q193.68427 104.94997 194.25217 105.40287Q194.82005 105.85577 194.97977 106.69052L194.07469 106.82373Q193.94159 106.27315 193.61328 105.997856Q193.28497 105.713684 192.82356 105.713684Q192.12257 105.713684 191.67891 106.219864Q191.23524 106.72604 191.23524 107.81833Q191.23524 108.928375 191.66116 109.434555Q192.08708 109.93186 192.77032 109.93186Q193.32047 109.93186 193.68427 109.594406Q194.05695 109.25695 194.15456 108.555405Z" fill-rule="nonzero"/><path fill="#000000" fill-opacity="0.0" clip-path="url(#id_0)" d="M172.8431 106.638306L184.75534 106.638306" fill-rule="evenodd"/><path stroke="#000000" stroke-width="0.5681161906120052" stroke-linejoin="round" stroke-linecap="butt" stroke-dasharray="0.5681161906120052,1.7043485718360158" clip-path="url(#id_0)" d="M172.8431 106.638306L184.75534 106.638306" fill-rule="evenodd"/><path fill="#d9ead3" clip-path="url(#id_0)" d="M304.2984 44.05336L335.02698 44.05336L335.02698 74.19796L304.2984 74.19796Z" fill-rule="evenodd"/><path stroke="#000000" stroke-width="0.5681161906120052" stroke-linejoin="round" stroke-linecap="butt" clip-path="url(#id_0)" d="M304.2984 44.05336L335.02698 44.05336L335.02698 74.19796L304.2984 74.19796Z" fill-rule="evenodd"/><path fill="#000000" clip-path="url(#id_0)" d="M316.11166 63.058598L319.0221 55.465878L320.1046 55.465878L323.21027 63.058598L322.0656 63.058598L321.18716 60.75858L318.01053 60.75858L317.17645 63.058598L316.11166 63.058598ZM318.30334 59.941586L320.87662 59.941586L320.078 57.836937Q319.72308 56.877857 319.54562 56.26511Q319.39478 56.9933 319.13745 57.712612L318.30334 59.941586Z" fill-rule="nonzero"/><path fill="#d0e0e3" clip-path="url(#id_0)" d="M234.24886 91.57048L264.97745 91.57048L264.97745 121.71508L234.24886 121.71508Z" fill-rule="evenodd"/><path stroke="#000000" stroke-width="0.5681161906120052" stroke-linejoin="round" stroke-linecap="butt" clip-path="url(#id_0)" d="M234.24886 91.57048L264.97745 91.57048L264.97745 121.71508L234.24886 121.71508Z" fill-rule="evenodd"/><path fill="#000000" clip-path="url(#id_0)" d="M246.85184 110.57572L246.85184 102.983L249.70015 102.983Q250.56973 102.983 251.09325 103.21389Q251.61678 103.44478 251.90959 103.924324Q252.21129 104.40386 252.21129 104.9278Q252.21129 105.41622 251.94508 105.851364Q251.68776 106.27762 251.15536 106.53515Q251.83861 106.7394 252.21129 107.22782Q252.58395 107.71624 252.58395 108.37339Q252.58395 108.90621 252.35326 109.36799Q252.13142 109.82089 251.79424 110.06954Q251.46593 110.31819 250.96902 110.45139Q250.47212 110.57572 249.74452 110.57572L246.85184 110.57572ZM247.86339 106.17106L249.49606 106.17106Q250.17044 106.17106 250.45438 106.09113Q250.83592 105.975685 251.03114 105.709274Q251.22635 105.44286 251.22635 105.04325Q251.22635 104.67027 251.04001 104.3861Q250.86255 104.09305 250.52536 103.98648Q250.18819 103.87992 249.37184 103.87992L247.86339 103.87992L247.86339 106.17106ZM247.86339 109.6788L249.74452 109.6788Q250.23254 109.6788 250.42776 109.64328Q250.77382 109.581116 251.00452 109.43903Q251.2441 109.28806 251.39494 109.01277Q251.54579 108.73748 251.54579 108.37339Q251.54579 107.94713 251.32396 107.636314Q251.111 107.3255 250.72058 107.20118Q250.33902 107.06797 249.61142 107.06797L247.86339 107.06797L247.86339 109.6788Z" fill-rule="nonzero"/><path fill="#d0e0e3" clip-path="url(#id_0)" d="M303.93372 91.57048L334.6623 91.57048L334.6623 121.71508L303.93372 121.71508Z" fill-rule="evenodd"/><path stroke="#000000" stroke-width="0.5681161906120052" stroke-linejoin="round" stroke-linecap="butt" clip-path="url(#id_0)" d="M303.93372 91.57048L334.6623 91.57048L334.6623 121.71508L303.93372 121.71508Z" fill-rule="evenodd"/><path fill="#000000" clip-path="url(#id_0)" d="M316.53668 110.57572L316.53668 102.983L319.385 102.983Q320.25458 102.983 320.7781 103.21389Q321.30164 103.44478 321.59445 103.924324Q321.89615 104.40386 321.89615 104.9278Q321.89615 105.41622 321.62994 105.851364Q321.37262 106.27762 320.8402 106.53515Q321.52347 106.7394 321.89615 107.22782Q322.26883 107.71624 322.26883 108.37339Q322.26883 108.90621 322.03812 109.36799Q321.81628 109.82089 321.4791 110.06954Q321.1508 110.31819 320.65387 110.45139Q320.15698 110.57572 319.42938 110.57572L316.53668 110.57572ZM317.54825 106.17106L319.1809 106.17106Q319.8553 106.17106 320.13922 106.09113Q320.52078 105.975685 320.716 105.709274Q320.9112 105.44286 320.9112 105.04325Q320.9112 104.67027 320.72488 104.3861Q320.5474 104.09305 320.2102 103.98648Q319.87305 103.87992 319.0567 103.87992L317.54825 103.87992L317.54825 106.17106ZM317.54825 109.6788L319.42938 109.6788Q319.9174 109.6788 320.1126 109.64328Q320.45868 109.581116 320.68936 109.43903Q320.92896 109.28806 321.0798 109.01277Q321.23065 108.73748 321.23065 108.37339Q321.23065 107.94713 321.00882 107.636314Q320.79587 107.3255 320.40543 107.20118Q320.0239 107.06797 319.29626 107.06797L317.54825 107.06797L317.54825 109.6788Z" fill-rule="nonzero"/><path fill="#fce5cd" clip-path="url(#id_0)" d="M376.07867 91.57048L406.80725 91.57048L406.80725 121.71508L376.07867 121.71508Z" fill-rule="evenodd"/><path stroke="#000000" stroke-width="0.5681161906120052" stroke-linejoin="round" stroke-linecap="butt" clip-path="url(#id_0)" d="M376.07867 91.57048L406.80725 91.57048L406.80725 121.71508L376.07867 121.71508Z" fill-rule="evenodd"/><path fill="#000000" clip-path="url(#id_0)" d="M388.43375 110.57572L388.43375 102.983L391.05133 102.983Q391.9298 102.983 392.4001 103.09845Q393.04782 103.24053 393.50925 103.64015Q394.1126 104.14633 394.40543 104.93668Q394.70712 105.727036 394.70712 106.7394Q394.70712 107.6008 394.50305 108.2757Q394.29895 108.941734 393.97952 109.37687Q393.66895 109.81201 393.29626 110.06954Q392.9236 110.31819 392.3912 110.45139Q391.85883 110.57572 391.17557 110.57572L388.43375 110.57572ZM389.4364 109.6788L391.0602 109.6788Q391.80557 109.6788 392.23148 109.5456Q392.6574 109.40351 392.91473 109.14598Q393.26965 108.790764 393.46487 108.1869Q393.66895 107.58304 393.66895 106.72164Q393.66895 105.53167 393.27853 104.89228Q392.88812 104.2529 392.3291 104.039764Q391.9298 103.87992 391.0336 103.87992L389.4364 103.87992L389.4364 109.6788Z" fill-rule="nonzero"/><path fill="#000000" fill-opacity="0.0" clip-path="url(#id_0)" d="M319.6627 74.19796L249.62012 91.57944" fill-rule="evenodd"/><path stroke="#000000" stroke-width="0.5681161906120052" stroke-linejoin="round" stroke-linecap="butt" clip-path="url(#id_0)" d="M319.6627 74.19796L249.62012 91.57944" fill-rule="evenodd"/><path fill="#000000" fill-opacity="0.0" clip-path="url(#id_0)" d="M319.6627 74.19796L319.30496 91.57944" fill-rule="evenodd"/><path stroke="#000000" stroke-width="0.5681161906120052" stroke-linejoin="round" stroke-linecap="butt" clip-path="url(#id_0)" d="M319.6627 74.19796L319.30496 91.57944" fill-rule="evenodd"/><path fill="#000000" fill-opacity="0.0" clip-path="url(#id_0)" d="M319.6627 74.19796L391.44025 91.57944" fill-rule="evenodd"/><path stroke="#000000" stroke-width="0.5681161906120052" stroke-linejoin="round" stroke-linecap="butt" clip-path="url(#id_0)" d="M319.6627 74.19796L391.44025 91.57944" fill-rule="evenodd"/><path fill="#d9ead3" clip-path="url(#id_0)" d="M344.46646 50.437904L362.46002 50.437904L362.46002 67.81938L344.46646 67.81938Z" fill-rule="evenodd"/><path stroke="#000000" stroke-width="0.5681161906120052" stroke-linejoin="round" stroke-linecap="butt" stroke-dasharray="0.5681161906120052,1.7043485718360158" clip-path="url(#id_0)" d="M344.46646 50.437904L362.46002 50.437904L362.46002 67.81938L344.46646 67.81938Z" fill-rule="evenodd"/><path fill="#000000" clip-path="url(#id_0)" d="M353.86325 62.386673Q353.33972 62.82181 352.86057 63.008297Q352.3903 63.185905 351.84015 63.185905Q350.93506 63.185905 350.44702 62.741886Q349.959 62.297867 349.959 61.61408Q349.959 61.20558 350.14536 60.87701Q350.3317 60.539555 350.6245 60.344185Q350.92618 60.13994 351.29886 60.033375Q351.56506 59.96233 352.12408 59.89129Q353.25098 59.758083 353.7834 59.571594Q353.79227 59.376225 353.79227 59.331825Q353.79227 58.76348 353.52606 58.52371Q353.1711 58.2129 352.46127 58.2129Q351.80466 58.2129 351.49408 58.443787Q351.1835 58.674675 351.03265 59.2519L350.1187 59.127575Q350.24295 58.55035 350.5269 58.195137Q350.81085 57.83104 351.3521 57.635674Q351.89337 57.440304 352.59436 57.440304Q353.30423 57.440304 353.739 57.60903Q354.18268 57.76888 354.38675 58.02641Q354.59973 58.27506 354.67957 58.656914Q354.72394 58.896687 354.72394 59.51831L354.72394 60.761562Q354.72394 62.058098 354.78607 62.404434Q354.84818 62.741886 355.01675 63.06158L354.0496 63.06158Q353.89874 62.768528 353.86325 62.386673ZM353.7834 60.299786Q353.27762 60.512913 352.26605 60.655Q351.6893 60.734924 351.4497 60.841488Q351.21014 60.94805 351.07703 61.14342Q350.95282 61.338787 350.95282 61.587437Q350.95282 61.960415 351.23676 62.209064Q351.5207 62.457714 352.06198 62.457714Q352.59436 62.457714 353.0114 62.226826Q353.43732 61.987057 353.63254 61.578556Q353.7834 61.258865 353.7834 60.64612L353.7834 60.299786Z" fill-rule="nonzero"/><path fill="#000000" fill-opacity="0.0" clip-path="url(#id_0)" d="M335.02698 59.12566L344.47092 59.12566" fill-rule="evenodd"/><path stroke="#000000" stroke-width="0.5681161906120052" stroke-linejoin="round" stroke-linecap="butt" stroke-dasharray="0.5681161906120052,1.7043485718360158" clip-path="url(#id_0)" d="M335.02698 59.12566L344.47092 59.12566" fill-rule="evenodd"/><path fill="#d0e0e3" clip-path="url(#id_0)" d="M275.9689 97.95204L293.96246 97.95204L293.96246 115.33352L275.9689 115.33352Z" fill-rule="evenodd"/><path stroke="#000000" stroke-width="0.5681161906120052" stroke-linejoin="round" stroke-linecap="butt" stroke-dasharray="0.5681161906120052,1.7043485718360158" clip-path="url(#id_0)" d="M275.9689 97.95204L293.96246 97.95204L293.96246 115.33352L275.9689 115.33352Z" fill-rule="evenodd"/><path fill="#000000" clip-path="url(#id_0)" d="M282.63272 110.57572L281.772 110.57572L281.772 102.983L282.7037 102.983L282.7037 105.69151Q283.29822 104.954445 284.21216 104.954445Q284.71793 104.954445 285.17047 105.15869Q285.62302 105.362946 285.91583 105.735916Q286.20865 106.10001 286.36835 106.623955Q286.53696 107.147896 286.53696 107.74288Q286.53696 109.15486 285.83597 109.92745Q285.14386 110.70004 284.1589 110.70004Q283.19174 110.70004 282.63272 109.88305L282.63272 110.57572ZM282.62384 107.787285Q282.62384 108.773 282.89893 109.217026Q283.3337 109.93633 284.08792 109.93633Q284.7002 109.93633 285.14386 109.40351Q285.58752 108.87069 285.58752 107.82281Q285.58752 106.74828 285.1616 106.233215Q284.7357 105.718155 284.1234 105.718155Q283.52005 105.718155 283.0675 106.25098Q282.62384 106.7838 282.62384 107.787285Z" fill-rule="nonzero"/><path fill="#000000" fill-opacity="0.0" clip-path="url(#id_0)" d="M264.97745 106.642784L275.97748 106.642784" fill-rule="evenodd"/><path stroke="#000000" stroke-width="0.5681161906120052" stroke-linejoin="round" stroke-linecap="butt" stroke-dasharray="0.5681161906120052,1.7043485718360158" clip-path="url(#id_0)" d="M264.97745 106.642784L275.97748 106.642784" fill-rule="evenodd"/><path fill="#d0e0e3" clip-path="url(#id_0)" d="M346.71652 97.95204L364.7101 97.95204L364.7101 115.33352L346.71652 115.33352Z" fill-rule="evenodd"/><path stroke="#000000" stroke-width="0.5681161906120052" stroke-linejoin="round" stroke-linecap="butt" stroke-dasharray="0.5681161906120052,1.7043485718360158" clip-path="url(#id_0)" d="M346.71652 97.95204L364.7101 97.95204L364.7101 115.33352L346.71652 115.33352Z" fill-rule="evenodd"/><path fill="#000000" clip-path="url(#id_0)" d="M353.38034 110.57572L352.51965 110.57572L352.51965 102.983L353.45132 102.983L353.45132 105.69151Q354.04584 104.954445 354.95978 104.954445Q355.46558 104.954445 355.9181 105.15869Q356.37064 105.362946 356.66345 105.735916Q356.95627 106.10001 357.116 106.623955Q357.28458 107.147896 357.28458 107.74288Q357.28458 109.15486 356.5836 109.92745Q355.89148 110.70004 354.90656 110.70004Q353.93936 110.70004 353.38034 109.88305L353.38034 110.57572ZM353.37146 107.787285Q353.37146 108.773 353.64655 109.217026Q354.08133 109.93633 354.83557 109.93633Q355.4478 109.93633 355.89148 109.40351Q356.33514 108.87069 356.33514 107.82281Q356.33514 106.74828 355.9092 106.233215Q355.4833 105.718155 354.87106 105.718155Q354.26767 105.718155 353.81512 106.25098Q353.37146 106.7838 353.37146 107.787285Z" fill-rule="nonzero"/><path fill="#000000" fill-opacity="0.0" clip-path="url(#id_0)" d="M334.6623 106.642784L346.71762 106.642784" fill-rule="evenodd"/><path stroke="#000000" stroke-width="0.5681161906120052" stroke-linejoin="round" stroke-linecap="butt" stroke-dasharray="0.5681161906120052,1.7043485718360158" clip-path="url(#id_0)" d="M334.6623 106.642784L346.71762 106.642784" fill-rule="evenodd"/><path fill="#fce5cd" clip-path="url(#id_0)" d="M418.72192 97.95204L436.7155 97.95204L436.7155 115.33352L418.72192 115.33352Z" fill-rule="evenodd"/><path stroke="#000000" stroke-width="0.5681161906120052" stroke-linejoin="round" stroke-linecap="butt" stroke-dasharray="0.5681161906120052,1.7043485718360158" clip-path="url(#id_0)" d="M418.72192 97.95204L436.7155 97.95204L436.7155 115.33352L418.72192 115.33352Z" fill-rule="evenodd"/><path fill="#000000" clip-path="url(#id_0)" d="M428.0921 110.57572L428.0921 109.88305Q427.57745 110.70004 426.557 110.70004Q425.9004 110.70004 425.35025 110.33595Q424.8001 109.971855 424.4984 109.323586Q424.19675 108.67532 424.19675 107.83169Q424.19675 107.00581 424.4718 106.33978Q424.7469 105.66487 425.28815 105.30966Q425.8383 104.954445 426.5215 104.954445Q427.01843 104.954445 427.4 105.16757Q427.7904 105.371826 428.02997 105.709274L428.02997 102.983L428.96167 102.983L428.96167 110.57572L428.0921 110.57572ZM425.15503 107.83169Q425.15503 108.88845 425.5987 109.41239Q426.04236 109.93633 426.64575 109.93633Q427.258 109.93633 427.68393 109.43903Q428.10983 108.93285 428.10983 107.911606Q428.10983 106.7838 427.67505 106.25986Q427.24026 105.727036 426.60138 105.727036Q425.98914 105.727036 425.57208 106.233215Q425.15503 106.7394 425.15503 107.83169Z" fill-rule="nonzero"/><path fill="#000000" fill-opacity="0.0" clip-path="url(#id_0)" d="M406.80725 106.642784L418.7195 106.642784" fill-rule="evenodd"/><path stroke="#000000" stroke-width="0.5681161906120052" stroke-linejoin="round" stroke-linecap="butt" stroke-dasharray="0.5681161906120052,1.7043485718360158" clip-path="url(#id_0)" d="M406.80725 106.642784L418.7195 106.642784" fill-rule="evenodd"/><path fill="#000000" fill-opacity="0.0" clip-path="url(#id_0)" d="M205.32529 30.429516L319.65424 44.05187" fill-rule="evenodd"/><path stroke="#000000" stroke-width="0.5681161906120052" stroke-linejoin="round" stroke-linecap="butt" clip-path="url(#id_0)" d="M205.32529 30.429516L319.65424 44.05187" fill-rule="evenodd"/></svg>