<svg version="1.1" viewBox="0.0 0.0 583.0 130.0" fill="none" stroke="none" stroke-linecap="square" stroke-miterlimit="10" preserveAspectRatio="none" width="583" height="130" xmlns:xlink="http://www.w3.org/1999/xlink" xmlns="http://www.w3.org/2000/svg"><clipPath id="id_0"><path d="M0 0L583.0 0L583.0 130.0L0 130.0L0 0Z" clip-rule="nonzero"/></clipPath><path fill="#000000" fill-opacity="0.0" clip-path="url(#id_0)" d="M-3.492981 -7.366634L948.159 -7.366634L948.159 706.9547L-3.492981 706.9547Z" fill-rule="evenodd"/><path fill="#000000" fill-opacity="0.0" clip-path="url(#id_0)" d="M291.5 49.119358L181.79308 77.75783" fill-rule="evenodd"/><path stroke="#000000" stroke-width="0.7437813458751885" stroke-linejoin="round" stroke-linecap="butt" clip-path="url(#id_0)" d="M291.5 49.119358L181.79308 77.75783" fill-rule="evenodd"/><path fill="#000000" fill-opacity="0.0" clip-path="url(#id_0)" d="M291.5 49.119358L389.803 77.75783" fill-rule="evenodd"/><path stroke="#000000" stroke-width="0.7437813458751885" stroke-linejoin="round" stroke-linecap="butt" clip-path="url(#id_0)" d="M291.5 49.119358L389.803 77.75783" fill-rule="evenodd"/><path fill="#cfe2f3" clip-path="url(#id_0)" d="M0.37271473 0.37301886L582.62726 0.37301886L582.62726 49.119358L0.37271473 49.119358Z" fill-rule="evenodd"/><path stroke="#000000" stroke-width="0.7437813458751885" stroke-linejoin="round" stroke-linecap="butt" clip-path="url(#id_0)" d="M0.37271473 0.37301886L582.62726 0.37301886L582.62726 49.119358L0.37271473 49.119358Z" fill-rule="evenodd"/><path fill="#cfe2f3" clip-path="url(#id_0)" d="M6.1488175 5.0152483L91.19803 5.0152483L91.19803 44.481033L6.1488175 44.481033Z" fill-rule="evenodd"/><path stroke="#000000" stroke-width="0.7437813458751885" stroke-linejoin="round" stroke-linecap="butt" clip-path="url(#id_0)" d="M6.1488175 5.0152483L91.19803 5.0152483L91.19803 44.481033L6.1488175 44.481033Z" fill-rule="evenodd"/><clipPath id="id_1"><path d="M8.881784E-16 0L583.0 0L583.0 130.0L8.881784E-16 130.0L8.881784E-16 0Z" clip-rule="nonzero"/></clipPath><path fill="#000000" clip-path="url(#id_1)" d="M35.11603 29.897205L35.11603 19.956697L39.518814 19.956697Q40.843136 19.956697 41.52853 20.224104Q42.22554 20.491508 42.63213 21.177462Q43.050335 21.85179 43.050335 22.677258Q43.050335 23.723627 42.36494 24.456085Q41.679546 25.176918 40.250675 25.374565Q40.773434 25.630344 41.05224 25.874496Q41.621464 26.397682 42.132607 27.18827L43.863514 29.897205L42.213924 29.897205L40.90122 27.827719Q40.320377 26.932493 39.94864 26.46744Q39.5769 25.99076 39.27486 25.804739Q38.98444 25.607092 38.682404 25.537334Q38.46168 25.479202 37.950542 25.479202L36.428734 25.479202L36.428734 29.897205L35.11603 29.897205ZM36.428734 24.351448L39.25163 24.351448Q40.15774 24.351448 40.657265 24.165428Q41.168407 23.96778 41.435593 23.560858Q41.70278 23.153936 41.70278 22.677258Q41.70278 21.968052 41.19164 21.514626Q40.6805 21.0612 39.56528 21.0612L36.428734 21.0612L36.428734 24.351448ZM44.50556 26.293045Q44.50556 24.293318 45.60916 23.339958Q46.53851 22.537743 47.874447 22.537743Q49.3614 22.537743 50.30237 23.514353Q51.243332 24.479338 51.243332 26.200033Q51.243332 27.583567 50.825127 28.385782Q50.406918 29.176373 49.605354 29.618174Q48.81541 30.059973 47.874447 30.059973Q46.364258 30.059973 45.43491 29.094988Q44.50556 28.118378 44.50556 26.293045ZM45.76018 26.293045Q45.76018 27.676577 46.35264 28.374157Q46.956715 29.06011 47.874447 29.06011Q48.78056 29.06011 49.384636 28.374157Q49.988712 27.676577 49.988712 26.258165Q49.988712 24.921139 49.384636 24.235186Q48.78056 23.549232 47.874447 23.549232Q46.956715 23.549232 46.35264 24.235186Q45.76018 24.909512 45.76018 26.293045ZM52.21968 26.293045Q52.21968 24.293318 53.32328 23.339958Q54.25263 22.537743 55.588566 22.537743Q57.075523 22.537743 58.016487 23.514353Q58.95745 24.479338 58.95745 26.200033Q58.95745 27.583567 58.539246 28.385782Q58.12104 29.176373 57.319477 29.618174Q56.529533 30.059973 55.588566 30.059973Q54.078377 30.059973 53.14903 29.094988Q52.21968 28.118378 52.21968 26.293045ZM53.4743 26.293045Q53.4743 27.676577 54.06676 28.374157Q54.670837 29.06011 55.588566 29.06011Q56.494682 29.06011 57.09876 28.374157Q57.70283 27.676577 57.70283 26.258165Q57.70283 24.921139 57.09876 24.235186Q56.494682 23.549232 55.588566 23.549232Q54.670837 23.549232 54.06676 24.235186Q53.4743 24.909512 53.4743 26.293045ZM63.047115 28.80433L63.221367 29.885578Q62.710228 29.990215 62.30364 29.990215Q61.641476 29.990215 61.269737 29.780941Q60.909615 29.571669 60.7586 29.234505Q60.60758 28.885715 60.60758 27.792841L60.60758 23.642242L59.71308 23.642242L59.71308 22.70051L60.60758 22.70051L60.60758 20.921682L61.81573 20.189224L61.81573 22.70051L63.047115 22.70051L63.047115 23.642242L61.81573 23.642242L61.81573 27.862598Q61.81573 28.374157 61.873814 28.5253Q61.943516 28.676441 62.082916 28.769451Q62.233936 28.850836 62.51274 28.850836Q62.710228 28.850836 63.047115 28.80433Z" fill-rule="nonzero"/><path fill="#d9ead3" clip-path="url(#id_0)" d="M99.53435 5.0152483L139.76413 5.0152483L139.76413 44.481033L99.53435 44.481033Z" fill-rule="evenodd"/><path stroke="#000000" stroke-width="0.7437813458751885" stroke-linejoin="round" stroke-linecap="butt" clip-path="url(#id_0)" d="M99.53435 5.0152483L139.76413 5.0152483L139.76413 44.481033L99.53435 44.481033Z" fill-rule="evenodd"/><path fill="#000000" clip-path="url(#id_0)" d="M115.000244 29.897205L118.81056 19.956697L120.22782 19.956697L124.29372 29.897205L122.79514 29.897205L121.64507 26.885986L117.486244 26.885986L116.394264 29.897205L115.000244 29.897205ZM117.8696 25.816366L121.23849 25.816366L120.19297 23.060926Q119.728294 21.805285 119.49596 21.003067Q119.29847 21.956427 118.961586 22.898157L117.8696 25.816366Z" fill-rule="nonzero"/><path fill="#d0e0e3" clip-path="url(#id_0)" d="M179.9939 5.013295L220.22368 5.013295L220.22368 44.47908L179.9939 44.47908Z" fill-rule="evenodd"/><path stroke="#000000" stroke-width="0.7437813458751885" stroke-linejoin="round" stroke-linecap="butt" clip-path="url(#id_0)" d="M179.9939 5.013295L220.22368 5.013295L220.22368 44.47908L179.9939 44.47908Z" fill-rule="evenodd"/><path fill="#000000" clip-path="url(#id_0)" d="M196.49368 29.895252L196.49368 19.954744L200.2227 19.954744Q201.36115 19.954744 202.04654 20.257029Q202.73193 20.559315 203.1153 21.187136Q203.51027 21.814957 203.51027 22.50091Q203.51027 23.140358 203.16176 23.710047Q202.82487 24.268112 202.12785 24.605274Q203.02235 24.87268 203.51027 25.512129Q203.99817 26.151575 203.99817 27.011923Q203.99817 27.709503 203.69614 28.314072Q203.40572 28.907015 202.96428 29.232552Q202.53445 29.558088 201.88391 29.732483Q201.23337 29.895252 200.28078 29.895252L196.49368 29.895252ZM197.81801 24.128595L199.9555 24.128595Q200.8384 24.128595 201.21013 24.023958Q201.70966 23.872816 201.96523 23.524027Q202.2208 23.175238 202.2208 22.652052Q202.2208 22.163746 201.97684 21.791704Q201.7445 21.408035 201.30307 21.26852Q200.86162 21.129004 199.79288 21.129004L197.81801 21.129004L197.81801 24.128595ZM197.81801 28.720993L200.28078 28.720993Q200.91971 28.720993 201.17528 28.674488Q201.62834 28.593103 201.93037 28.407082Q202.24403 28.209435 202.44151 27.849018Q202.639 27.488604 202.639 27.011923Q202.639 26.45386 202.34859 26.046938Q202.06978 25.640017 201.55864 25.47725Q201.05911 25.302855 200.10652 25.302855L197.81801 25.302855L197.81801 28.720993Z" fill-rule="nonzero"/><path fill="#d0e0e3" clip-path="url(#id_0)" d="M260.45346 5.013295L300.68323 5.013295L300.68323 44.47908L260.45346 44.47908Z" fill-rule="evenodd"/><path stroke="#000000" stroke-width="0.7437813458751885" stroke-linejoin="round" stroke-linecap="butt" clip-path="url(#id_0)" d="M260.45346 5.013295L300.68323 5.013295L300.68323 44.47908L260.45346 44.47908Z" fill-rule="evenodd"/><path fill="#000000" clip-path="url(#id_0)" d="M276.95325 29.895252L276.95325 19.954744L280.68225 19.954744Q281.8207 19.954744 282.5061 20.257029Q283.1915 20.559315 283.57483 21.187136Q283.96982 21.814957 283.96982 22.50091Q283.96982 23.140358 283.6213 23.710047Q283.28442 24.268112 282.5874 24.605274Q283.4819 24.87268 283.96982 25.512129Q284.45773 26.151575 284.45773 27.011923Q284.45773 27.709503 284.15567 28.314072Q283.86526 28.907015 283.42383 29.232552Q282.994 29.558088 282.34344 29.732483Q281.6929 29.895252 280.74033 29.895252L276.95325 29.895252ZM278.27756 24.128595L280.41507 24.128595Q281.29794 24.128595 281.66968 24.023958Q282.1692 23.872816 282.42477 23.524027Q282.68036 23.175238 282.68036 22.652052Q282.68036 22.163746 282.4364 21.791704Q282.20404 21.408035 281.7626 21.26852Q281.32117 21.129004 280.2524 21.129004L278.27756 21.129004L278.27756 24.128595ZM278.27756 28.720993L280.74033 28.720993Q281.37927 28.720993 281.63483 28.674488Q282.0879 28.593103 282.38992 28.407082Q282.70358 28.209435 282.90106 27.849018Q283.09854 27.488604 283.09854 27.011923Q283.09854 26.45386 282.80814 26.046938Q282.52933 25.640017 282.0182 25.47725Q281.51865 25.302855 280.56607 25.302855L278.27756 25.302855L278.27756 28.720993Z" fill-rule="nonzero"/><path fill="#d9ead3" clip-path="url(#id_0)" d="M148.10112 13.37009L171.65825 13.37009L171.65825 36.126194L148.10112 36.126194Z" fill-rule="evenodd"/><path stroke="#000000" stroke-width="0.7437813458751885" stroke-linejoin="round" stroke-linecap="butt" stroke-dasharray="0.7437813458751885,2.2313440376255658" clip-path="url(#id_0)" d="M148.10112 13.37009L171.65825 13.37009L171.65825 36.126194L148.10112 36.126194Z" fill-rule="evenodd"/><clipPath id="id_2"><path d="M0 1.7763568E-15L583.0 1.7763568E-15L583.0 130.0L0 130.0L0 1.7763568E-15Z" clip-rule="nonzero"/></clipPath><path fill="#000000" clip-path="url(#id_2)" d="M160.40337 29.013605Q159.71797 29.583294 159.09065 29.827448Q158.47496 30.059975 157.75471 30.059975Q156.56981 30.059975 155.93088 29.478659Q155.29195 28.89734 155.29195 28.002115Q155.29195 27.467304 155.5359 27.03713Q155.77986 26.59533 156.16321 26.33955Q156.55818 26.072145 157.0461 25.932629Q157.39459 25.839619 158.12646 25.746609Q159.6018 25.572212 160.29881 25.32806Q160.31042 25.07228 160.31042 25.014149Q160.31042 24.270065 159.96193 23.956154Q159.49725 23.549232 158.5679 23.549232Q157.70825 23.549232 157.30167 23.851517Q156.89508 24.153801 156.69759 24.909512L155.50105 24.746744Q155.6637 23.991034 156.03543 23.52598Q156.40717 23.049301 157.1158 22.793522Q157.82442 22.537743 158.74216 22.537743Q159.6715 22.537743 160.24072 22.758642Q160.82156 22.967916 161.08876 23.30508Q161.36755 23.630617 161.4721 24.130548Q161.5302 24.44446 161.5302 25.258303L161.5302 26.885988Q161.5302 28.583431 161.61151 29.036858Q161.69283 29.478659 161.91356 29.897205L160.64731 29.897205Q160.44983 29.513536 160.40337 29.013605ZM160.29881 26.281418Q159.63666 26.56045 158.31233 26.746471Q157.55724 26.851109 157.24358 26.990625Q156.92993 27.13014 156.75568 27.38592Q156.59303 27.641699 156.59303 27.967236Q156.59303 28.455542 156.96478 28.781078Q157.33652 29.106615 158.04514 29.106615Q158.74216 29.106615 159.28815 28.80433Q159.84575 28.49042 160.10132 27.95561Q160.29881 27.537062 160.29881 26.734846L160.29881 26.281418Z" fill-rule="nonzero"/><path fill="#d0e0e3" clip-path="url(#id_0)" d="M228.56067 13.37009L252.1178 13.37009L252.1178 36.126194L228.56067 36.126194Z" fill-rule="evenodd"/><path stroke="#000000" stroke-width="0.7437813458751885" stroke-linejoin="round" stroke-linecap="butt" stroke-dasharray="0.7437813458751885,2.2313440376255658" clip-path="url(#id_0)" d="M228.56067 13.37009L252.1178 13.37009L252.1178 36.126194L228.56067 36.126194Z" fill-rule="evenodd"/><path fill="#000000" clip-path="url(#id_2)" d="M237.28493 29.897205L236.1581 29.897205L236.1581 19.9567L237.37785 19.9567L237.37785 23.502728Q238.15619 22.537743 239.35272 22.537743Q240.01488 22.537743 240.60735 22.805147Q241.1998 23.072554 241.58316 23.56086Q241.9665 24.037539 242.17561 24.723492Q242.39633 25.409445 242.39633 26.188408Q242.39633 28.036993 241.4786 29.048483Q240.5725 30.059975 239.28302 30.059975Q238.01678 30.059975 237.28493 28.990353L237.28493 29.897205ZM237.2733 26.24654Q237.2733 27.537062 237.63342 28.118378Q238.20265 29.06011 239.19008 29.06011Q239.99165 29.06011 240.5725 28.36253Q241.15334 27.664951 241.15334 26.293045Q241.15334 24.88626 240.59572 24.211933Q240.03812 23.537607 239.23656 23.537607Q238.44661 23.537607 237.85416 24.235186Q237.2733 24.932766 237.2733 26.24654Z" fill-rule="nonzero"/><path fill="#d0e0e3" clip-path="url(#id_0)" d="M309.02023 13.368136L332.57736 13.368136L332.57736 36.12424L309.02023 36.12424Z" fill-rule="evenodd"/><path stroke="#000000" stroke-width="0.7437813458751885" stroke-linejoin="round" stroke-linecap="butt" stroke-dasharray="0.7437813458751885,2.2313440376255658" clip-path="url(#id_0)" d="M309.02023 13.368136L332.57736 13.368136L332.57736 36.12424L309.02023 36.12424Z" fill-rule="evenodd"/><path fill="#000000" clip-path="url(#id_0)" d="M317.74448 29.895252L316.61765 29.895252L316.61765 19.954746L317.8374 19.954746L317.8374 23.500774Q318.61572 22.53579 319.8123 22.53579Q320.47443 22.53579 321.0669 22.803194Q321.65936 23.0706 322.0427 23.558907Q322.42606 24.035585 322.63516 24.721539Q322.8559 25.407492 322.8559 26.186455Q322.8559 28.03504 321.93814 29.046532Q321.03204 30.058022 319.74258 30.058022Q318.47635 30.058022 317.74448 28.9884L317.74448 29.895252ZM317.73285 26.244587Q317.73285 27.535109 318.093 28.116425Q318.6622 29.058157 319.64963 29.058157Q320.4512 29.058157 321.03204 28.360579Q321.61288 27.662998 321.61288 26.291092Q321.61288 24.884306 321.05527 24.20998Q320.49768 23.535654 319.6961 23.535654Q318.90616 23.535654 318.3137 24.233232Q317.73285 24.930813 317.73285 26.244587Z" fill-rule="nonzero"/><path fill="#d9ead3" clip-path="url(#id_0)" d="M340.913 5.0142717L381.14276 5.0142717L381.14276 44.480057L340.913 44.480057Z" fill-rule="evenodd"/><path stroke="#000000" stroke-width="0.7437813458751885" stroke-linejoin="round" stroke-linecap="butt" clip-path="url(#id_0)" d="M340.913 5.0142717L381.14276 5.0142717L381.14276 44.480057L340.913 44.480057Z" fill-rule="evenodd"/><path fill="#000000" clip-path="url(#id_0)" d="M356.37888 29.896229L360.1892 19.95572L361.60648 19.95572L365.67236 29.896229L364.1738 29.896229L363.0237 26.88501L358.8649 26.88501L357.77292 29.896229L356.37888 29.896229ZM359.24826 25.81539L362.61713 25.81539L361.57162 23.05995Q361.10693 21.804308 360.8746 21.00209Q360.67712 21.95545 360.34024 22.897182L359.24826 25.81539Z" fill-rule="nonzero"/><path fill="#d0e0e3" clip-path="url(#id_0)" d="M421.37256 5.0123186L461.60233 5.0123186L461.60233 44.478104L421.37256 44.478104Z" fill-rule="evenodd"/><path stroke="#000000" stroke-width="0.7437813458751885" stroke-linejoin="round" stroke-linecap="butt" clip-path="url(#id_0)" d="M421.37256 5.0123186L461.60233 5.0123186L461.60233 44.478104L421.37256 44.478104Z" fill-rule="evenodd"/><path fill="#000000" clip-path="url(#id_0)" d="M437.87234 29.894276L437.87234 19.953768L441.60135 19.953768Q442.7398 19.953768 443.4252 20.256054Q444.1106 20.558338 444.49393 21.18616Q444.88892 21.81398 444.88892 22.499933Q444.88892 23.139381 444.5404 23.709072Q444.20352 24.267136 443.5065 24.604298Q444.401 24.871704 444.88892 25.511152Q445.37683 26.150599 445.37683 27.010946Q445.37683 27.708527 445.07477 28.313095Q444.78436 28.906038 444.34293 29.231575Q443.9131 29.557112 443.26254 29.731506Q442.612 29.894276 441.65942 29.894276L437.87234 29.894276ZM439.19666 24.127619L441.33417 24.127619Q442.21704 24.127619 442.58878 24.022982Q443.0883 23.87184 443.34387 23.52305Q443.59946 23.174261 443.59946 22.651075Q443.59946 22.16277 443.3555 21.790728Q443.12314 21.407059 442.6817 21.267544Q442.24026 21.128027 441.1715 21.128027L439.19666 21.128027L439.19666 24.127619ZM439.19666 28.720016L441.65942 28.720016Q442.29837 28.720016 442.55392 28.673512Q443.007 28.592127 443.30902 28.406107Q443.62268 28.208458 443.82016 27.848043Q444.01764 27.487627 444.01764 27.010946Q444.01764 26.452883 443.72723 26.045961Q443.44843 25.639042 442.9373 25.476273Q442.43774 25.301878 441.48517 25.301878L439.19666 25.301878L439.19666 28.720016Z" fill-rule="nonzero"/><path fill="#d0e0e3" clip-path="url(#id_0)" d="M501.8321 5.0123186L542.0619 5.0123186L542.0619 44.478104L501.8321 44.478104Z" fill-rule="evenodd"/><path stroke="#000000" stroke-width="0.7437813458751885" stroke-linejoin="round" stroke-linecap="butt" clip-path="url(#id_0)" d="M501.8321 5.0123186L542.0619 5.0123186L542.0619 44.478104L501.8321 44.478104Z" fill-rule="evenodd"/><path fill="#000000" clip-path="url(#id_0)" d="M518.3319 29.894276L518.3319 19.953768L522.0609 19.953768Q523.19934 19.953768 523.88477 20.256054Q524.5701 20.558338 524.9535 21.18616Q525.34845 21.81398 525.34845 22.499933Q525.34845 23.139381 524.99994 23.709072Q524.6631 24.267136 523.96606 24.604298Q524.86053 24.871704 525.34845 25.511152Q525.83636 26.150599 525.83636 27.010946Q525.83636 27.708527 525.53436 28.313095Q525.2439 28.906038 524.8025 29.231575Q524.3726 29.557112 523.7221 29.731506Q523.07153 29.894276 522.11896 29.894276L518.3319 29.894276ZM519.6562 24.127619L521.7937 24.127619Q522.6766 24.127619 523.04834 24.022982Q523.54785 23.87184 523.8034 23.52305Q524.059 23.174261 524.059 22.651075Q524.059 22.16277 523.81506 21.790728Q523.5827 21.407059 523.14124 21.267544Q522.6998 21.128027 521.63104 21.128027L519.6562 21.128027L519.6562 24.127619ZM519.6562 28.720016L522.11896 28.720016Q522.75793 28.720016 523.0135 28.673512Q523.46655 28.592127 523.76855 28.406107Q524.0822 28.208458 524.2797 27.848043Q524.4772 27.487627 524.4772 27.010946Q524.4772 26.452883 524.18677 26.045961Q523.90796 25.639042 523.39685 25.476273Q522.89734 25.301878 521.9447 25.301878L519.6562 25.301878L519.6562 28.720016Z" fill-rule="nonzero"/><path fill="#d9ead3" clip-path="url(#id_0)" d="M389.47977 13.369113L413.0369 13.369113L413.0369 36.125217L389.47977 36.125217Z" fill-rule="evenodd"/><path stroke="#000000" stroke-width="0.7437813458751885" stroke-linejoin="round" stroke-linecap="butt" stroke-dasharray="0.7437813458751885,2.2313440376255658" clip-path="url(#id_0)" d="M389.47977 13.369113L413.0369 13.369113L413.0369 36.125217L389.47977 36.125217Z" fill-rule="evenodd"/><clipPath id="id_3"><path d="M5.684342E-14 0L583.0 0L583.0 130.0L5.684342E-14 130.0L5.684342E-14 0Z" clip-rule="nonzero"/></clipPath><path fill="#000000" clip-path="url(#id_3)" d="M401.782 29.012629Q401.09662 29.582317 400.4693 29.826471Q399.8536 30.058998 399.13336 30.058998Q397.94846 30.058998 397.30954 29.477682Q396.6706 28.896364 396.6706 28.001139Q396.6706 27.466328 396.91455 27.036154Q397.1585 26.594353 397.54187 26.338573Q397.93683 26.071169 398.42474 25.931652Q398.77325 25.838642 399.5051 25.745632Q400.98044 25.571236 401.67746 25.327084Q401.6891 25.071304 401.6891 25.013172Q401.6891 24.269089 401.34058 23.955177Q400.8759 23.548256 399.94656 23.548256Q399.0869 23.548256 398.68033 23.85054Q398.2737 24.152824 398.07623 24.908537L396.8797 24.745768Q397.04233 23.990057 397.41406 23.525003Q397.78583 23.048325 398.49445 22.792545Q399.20306 22.536766 400.1208 22.536766Q401.05014 22.536766 401.6194 22.757666Q402.20023 22.96694 402.4674 23.304104Q402.74622 23.62964 402.85077 24.129572Q402.90884 24.443483 402.90884 25.257326L402.90884 26.885012Q402.90884 28.582455 402.99017 29.035881Q403.07147 29.477682 403.2922 29.896229L402.02597 29.896229Q401.8285 29.51256 401.782 29.012629ZM401.67746 26.280441Q401.0153 26.559473 399.69098 26.745495Q398.93588 26.850132 398.62222 26.989649Q398.30856 27.129164 398.1343 27.384943Q397.97168 27.640722 397.97168 27.966259Q397.97168 28.454565 398.3434 28.780102Q398.71518 29.105639 399.4238 29.105639Q400.1208 29.105639 400.6668 28.803354Q401.2244 28.489443 401.47998 27.954634Q401.67746 27.536085 401.67746 26.73387L401.67746 26.280441Z" fill-rule="nonzero"/><path fill="#d0e0e3" clip-path="url(#id_0)" d="M469.93933 13.369113L493.49646 13.369113L493.49646 36.125217L469.93933 36.125217Z" fill-rule="evenodd"/><path stroke="#000000" stroke-width="0.7437813458751885" stroke-linejoin="round" stroke-linecap="butt" stroke-dasharray="0.7437813458751885,2.2313440376255658" clip-path="url(#id_0)" d="M469.93933 13.369113L493.49646 13.369113L493.49646 36.125217L469.93933 36.125217Z" fill-rule="evenodd"/><path fill="#000000" clip-path="url(#id_3)" d="M478.66357 29.896229L477.53674 29.896229L477.53674 19.955723L478.7565 19.955723L478.7565 23.50175Q479.53485 22.536766 480.73138 22.536766Q481.39352 22.536766 481.986 22.80417Q482.57846 23.071577 482.9618 23.559883Q483.34515 24.036562 483.55426 24.722515Q483.775 25.408468 483.775 26.187431Q483.775 28.036016 482.85724 29.047508Q481.95114 30.058998 480.66168 30.058998Q479.39545 30.058998 478.66357 28.989376L478.66357 29.896229ZM478.65195 26.245564Q478.65195 27.536085 479.0121 28.117401Q479.5813 29.059134 480.56873 29.059134Q481.3703 29.059134 481.95114 28.361555Q482.53198 27.663975 482.53198 26.292068Q482.53198 24.885283 481.97437 24.210957Q481.41678 23.53663 480.6152 23.53663Q479.82526 23.53663 479.2328 24.23421Q478.65195 24.93179 478.65195 26.245564Z" fill-rule="nonzero"/><path fill="#d0e0e3" clip-path="url(#id_0)" d="M550.39886 13.36716L573.956 13.36716L573.956 36.123264L550.39886 36.123264Z" fill-rule="evenodd"/><path stroke="#000000" stroke-width="0.7437813458751885" stroke-linejoin="round" stroke-linecap="butt" stroke-dasharray="0.7437813458751885,2.2313440376255658" clip-path="url(#id_0)" d="M550.39886 13.36716L573.956 13.36716L573.956 36.123264L550.39886 36.123264Z" fill-rule="evenodd"/><clipPath id="id_4"><path d="M0 -1.7763568E-15L583.0 -1.7763568E-15L583.0 130.0L0 130.0L0 -1.7763568E-15Z" clip-rule="nonzero"/></clipPath><path fill="#000000" clip-path="url(#id_4)" d="M559.1231 29.894276L557.9963 29.894276L557.9963 19.95377L559.21606 19.95377L559.21606 23.499798Q559.9944 22.534813 561.1909 22.534813Q561.8531 22.534813 562.44556 22.802217Q563.038 23.069624 563.4213 23.55793Q563.8047 24.034609 564.0138 24.720562Q564.23456 25.406515 564.23456 26.185478Q564.23456 28.034063 563.31683 29.045555Q562.4107 30.057045 561.1212 30.057045Q559.855 30.057045 559.1231 28.987423L559.1231 29.894276ZM559.1115 26.24361Q559.1115 27.534132 559.4716 28.115448Q560.04083 29.05718 561.02826 29.05718Q561.82983 29.05718 562.4107 28.359602Q562.9915 27.662022 562.9915 26.290115Q562.9915 24.883331 562.4339 24.209003Q561.87634 23.534678 561.07477 23.534678Q560.2848 23.534678 559.6923 24.232256Q559.1115 24.929836 559.1115 26.24361Z" fill-rule="nonzero"/><path fill="#cfe2f3" clip-path="url(#id_0)" d="M92.20885 77.76369L271.3929 77.76369L271.3929 129.62698L92.20885 129.62698Z" fill-rule="evenodd"/><path stroke="#000000" stroke-width="0.7437813458751885" stroke-linejoin="round" stroke-linecap="butt" clip-path="url(#id_0)" d="M92.20885 77.76369L271.3929 77.76369L271.3929 129.62698L92.20885 129.62698Z" fill-rule="evenodd"/><path fill="#fce5cd" clip-path="url(#id_0)" d="M192.16273 83.95463L232.39252 83.95463L232.39252 123.42042L192.16273 123.42042Z" fill-rule="evenodd"/><path stroke="#000000" stroke-width="0.7437813458751885" stroke-linejoin="round" stroke-linecap="butt" clip-path="url(#id_0)" d="M192.16273 83.95463L232.39252 83.95463L232.39252 123.42042L192.16273 123.42042Z" fill-rule="evenodd"/><clipPath id="id_5"><path d="M2.842171E-14 0L583.0 0L583.0 130.0L2.842171E-14 130.0L2.842171E-14 0Z" clip-rule="nonzero"/></clipPath><path fill="#000000" clip-path="url(#id_5)" d="M215.42424 105.348694L216.73694 105.68585Q216.31873 107.30191 215.24998 108.16226Q214.18123 109.01098 212.62457 109.01098Q211.02145 109.01098 210.01079 108.35991Q209.01173 107.697205 208.47736 106.46482Q207.9546 105.2208 207.9546 103.790764Q207.9546 102.24446 208.54706 101.09345Q209.13953 99.930824 210.2315 99.33788Q211.3351 98.733315 212.64781 98.733315Q214.13477 98.733315 215.14543 99.48902Q216.16771 100.244736 216.56268 101.628265L215.27321 101.93055Q214.92471 100.849304 214.26254 100.361Q213.612 99.86107 212.62457 99.86107Q211.4745 99.86107 210.7078 100.4075Q209.94109 100.95394 209.62743 101.88405Q209.31377 102.80253 209.31377 103.790764Q209.31377 105.05803 209.68552 105.99976Q210.05725 106.9415 210.83559 107.418175Q211.6139 107.88323 212.52002 107.88323Q213.62363 107.88323 214.39034 107.24378Q215.15704 106.60433 215.42424 105.348694Z" fill-rule="nonzero"/><path fill="#ead1dc" clip-path="url(#id_0)" d="M95.02957 83.95463L135.25935 83.95463L135.25935 123.42042L95.02957 123.42042Z" fill-rule="evenodd"/><path stroke="#000000" stroke-width="0.7437813458751885" stroke-linejoin="round" stroke-linecap="butt" clip-path="url(#id_0)" d="M95.02957 83.95463L135.25935 83.95463L135.25935 123.42042L95.02957 123.42042Z" fill-rule="evenodd"/><path fill="#000000" clip-path="url(#id_0)" d="M112.58026 108.836586L112.58026 98.89608L113.89296 98.89608L113.89296 108.836586L112.58026 108.836586ZM116.352615 108.836586L116.352615 102.58163L115.27225 102.58163L115.27225 101.63989L116.352615 101.63989L116.352615 100.87256Q116.352615 100.151726 116.4804 99.791306Q116.65465 99.31463 117.09609 99.02397Q117.53753 98.733315 118.339096 98.733315Q118.850235 98.733315 119.47755 98.84958L119.29167 99.9192Q118.91994 99.84944 118.583046 99.84944Q118.02544 99.84944 117.7931 100.09359Q117.56077 100.32612 117.56077 100.977196L117.56077 101.63989L118.9664 101.63989L118.9664 102.58163L117.56077 102.58163L117.56077 108.836586L116.352615 108.836586Z" fill-rule="nonzero"/><path fill="#ead1dc" clip-path="url(#id_0)" d="M143.59567 83.95463L183.82544 83.95463L183.82544 123.42042L143.59567 123.42042Z" fill-rule="evenodd"/><path stroke="#000000" stroke-width="0.7437813458751885" stroke-linejoin="round" stroke-linecap="butt" clip-path="url(#id_0)" d="M143.59567 83.95463L183.82544 83.95463L183.82544 123.42042L143.59567 123.42042Z" fill-rule="evenodd"/><path fill="#000000" clip-path="url(#id_0)" d="M156.52844 107.106125L156.67946 108.03623Q156.23802 108.12924 155.88951 108.12924Q155.3203 108.12924 155.00664 107.95485Q154.69298 107.76883 154.5652 107.47817Q154.43741 107.17589 154.43741 106.23415L154.43741 102.688126L153.6707 102.688126L153.6707 101.87428L154.43741 101.87428L154.43741 100.33961L155.48293 99.711784L155.48293 101.87428L156.52844 101.87428L156.52844 102.688126L155.48293 102.688126L155.48293 106.29228Q155.48293 106.74571 155.52939 106.873604Q155.58748 107.00149 155.71527 107.08288Q155.84305 107.15263 156.0754 107.15263Q156.24963 107.15263 156.52844 107.106125ZM157.54492 108.04786L157.54492 101.87428L158.48589 101.87428L158.48589 102.80439Q158.84601 102.15331 159.14804 101.94404Q159.45007 101.734764 159.82182 101.734764Q160.34457 101.734764 160.89056 102.07193L160.53044 103.03691Q160.1471 102.81602 159.76373 102.81602Q159.42685 102.81602 159.14804 103.02528Q158.88086 103.22294 158.76468 103.59498Q158.59044 104.15304 158.59044 104.81574L158.59044 108.04786L157.54492 108.04786ZM165.56055 108.04786L165.56055 107.14101Q164.8403 108.18738 163.59729 108.18738Q163.0513 108.18738 162.57501 107.9781Q162.11034 107.76883 161.878 107.45492Q161.64566 107.12938 161.55273 106.67596Q161.49464 106.362045 161.49464 105.69934L161.49464 101.87428L162.54016 101.87428L162.54016 105.29242Q162.54016 106.11789 162.59825 106.39692Q162.70279 106.81547 163.01645 107.048Q163.34172 107.280525 163.8064 107.280525Q164.28268 107.280525 164.68927 107.048Q165.10748 106.80384 165.27013 106.38529Q165.44437 105.96675 165.44437 105.176155L165.44437 101.87428L166.48988 101.87428L166.48988 108.04786L165.56055 108.04786ZM172.35059 106.05976L173.43095 106.187645Q173.17538 107.14101 172.47838 107.66419Q171.79298 108.18738 170.72423 108.18738Q169.36505 108.18738 168.57512 107.35028Q167.78517 106.51318 167.78517 105.01339Q167.78517 103.45546 168.58673 102.595116Q169.38829 101.734764 170.66614 101.734764Q171.89752 101.734764 172.67586 102.58349Q173.4658 103.420586 173.4658 104.943634Q173.4658 105.036644 173.4658 105.222664L168.86554 105.222664Q168.92361 106.24578 169.43475 106.79221Q169.95752 107.32703 170.72423 107.32703Q171.30507 107.32703 171.71165 107.02474Q172.11826 106.72246 172.35059 106.05976ZM168.92361 104.36231L172.3622 104.36231Q172.2925 103.58335 171.96722 103.199684Q171.46771 102.595116 170.67776 102.595116Q169.95752 102.595116 169.458 103.08342Q168.97008 103.5601 168.92361 104.36231Z" fill-rule="nonzero"/><path fill="#fce5cd" clip-path="url(#id_0)" d="M240.72952 92.308495L264.28665 92.308495L264.28665 115.0646L240.72952 115.0646Z" fill-rule="evenodd"/><path stroke="#000000" stroke-width="0.7437813458751885" stroke-linejoin="round" stroke-linecap="butt" stroke-dasharray="0.7437813458751885,2.2313440376255658" clip-path="url(#id_0)" d="M240.72952 92.308495L264.28665 92.308495L264.28665 115.0646L240.72952 115.0646Z" fill-rule="evenodd"/><path fill="#000000" clip-path="url(#id_5)" d="M253.03175 106.196434L254.22829 106.35921Q254.0308 107.5916 253.21762 108.300804Q252.41606 108.99838 251.23114 108.99838Q249.7558 108.99838 248.86131 108.033394Q247.96681 107.06841 247.96681 105.26633Q247.96681 104.09207 248.35017 103.2201Q248.73352 102.34812 249.52347 101.917946Q250.31342 101.47615 251.24277 101.47615Q252.41606 101.47615 253.15955 102.06909Q253.90302 102.66203 254.11212 103.754906L252.9272 103.929306Q252.75294 103.20847 252.32314 102.84805Q251.89331 102.47601 251.28923 102.47601Q250.37149 102.47601 249.79065 103.13871Q249.20981 103.801414 249.20981 105.23145Q249.20981 106.68474 249.76743 107.34744Q250.32503 107.99852 251.21953 107.99852Q251.93977 107.99852 252.41606 107.55672Q252.90398 107.114914 253.03175 106.196434Z" fill-rule="nonzero"/><path fill="#cfe2f3" clip-path="url(#id_0)" d="M302.36728 77.76369L477.24268 77.76369L477.24268 129.62698L302.36728 129.62698Z" fill-rule="evenodd"/><path stroke="#000000" stroke-width="0.7437813458751885" stroke-linejoin="round" stroke-linecap="butt" clip-path="url(#id_0)" d="M302.36728 77.76369L477.24268 77.76369L477.24268 129.62698L302.36728 129.62698Z" fill-rule="evenodd"/><path fill="#fce5cd" clip-path="url(#id_0)" d="M399.49945 83.95365L439.72925 83.95365L439.72925 123.41944L399.49945 123.41944Z" fill-rule="evenodd"/><path stroke="#000000" stroke-width="0.7437813458751885" stroke-linejoin="round" stroke-linecap="butt" clip-path="url(#id_0)" d="M399.49945 83.95365L439.72925 83.95365L439.72925 123.41944L399.49945 123.41944Z" fill-rule="evenodd"/><path fill="#000000" clip-path="url(#id_0)" d="M415.67468 108.83561L415.67468 98.8951L419.10165 98.8951Q420.2517 98.8951 420.8674 99.04625Q421.71542 99.23227 422.31952 99.755455Q423.10947 100.41815 423.49283 101.452896Q423.8878 102.48764 423.8878 103.81304Q423.8878 104.940796 423.6206 105.824394Q423.35342 106.696365 422.9352 107.26606Q422.52863 107.83575 422.0407 108.17291Q421.5528 108.49845 420.8558 108.672844Q420.15878 108.83561 419.26428 108.83561L415.67468 108.83561ZM416.9874 107.661354L419.11325 107.661354Q420.08908 107.661354 420.6467 107.48695Q421.20428 107.300934 421.5412 106.963776Q422.00586 106.49872 422.26144 105.70813Q422.52863 104.91754 422.52863 103.78979Q422.52863 102.23186 422.0175 101.39476Q421.50635 100.55767 420.77448 100.27863Q420.2517 100.06937 419.0784 100.06937L416.9874 100.06937L416.9874 107.661354Z" fill-rule="nonzero"/><path fill="#ead1dc" clip-path="url(#id_0)" d="M302.3663 83.95365L342.59607 83.95365L342.59607 123.41944L302.3663 123.41944Z" fill-rule="evenodd"/><path stroke="#000000" stroke-width="0.7437813458751885" stroke-linejoin="round" stroke-linecap="butt" clip-path="url(#id_0)" d="M302.3663 83.95365L342.59607 83.95365L342.59607 123.41944L302.3663 123.41944Z" fill-rule="evenodd"/><path fill="#000000" clip-path="url(#id_0)" d="M319.917 108.83561L319.917 98.8951L321.22968 98.8951L321.22968 108.83561L319.917 108.83561ZM323.68933 108.83561L323.68933 102.58065L322.60898 102.58065L322.60898 101.638916L323.68933 101.638916L323.68933 100.87158Q323.68933 100.15075 323.8171 99.79033Q323.99136 99.31365 324.4328 99.022995Q324.87424 98.73234 325.6758 98.73234Q326.18695 98.73234 326.81427 98.8486L326.6284 99.91822Q326.25665 99.848465 325.91977 99.848465Q325.36215 99.848465 325.12982 100.09261Q324.8975 100.32514 324.8975 100.97622L324.8975 101.638916L326.30313 101.638916L326.30313 102.58065L324.8975 102.58065L324.8975 108.83561L323.68933 108.83561Z" fill-rule="nonzero"/><path fill="#ead1dc" clip-path="url(#id_0)" d="M350.9324 83.95365L391.16217 83.95365L391.16217 123.41944L350.9324 123.41944Z" fill-rule="evenodd"/><path stroke="#000000" stroke-width="0.7437813458751885" stroke-linejoin="round" stroke-linecap="butt" clip-path="url(#id_0)" d="M350.9324 83.95365L391.16217 83.95365L391.16217 123.41944L350.9324 123.41944Z" fill-rule="evenodd"/><path fill="#000000" clip-path="url(#id_0)" d="M359.51755 108.04688L359.51755 102.68715L358.59982 102.68715L358.59982 101.87331L359.51755 101.87331L359.51755 101.2106Q359.51755 100.594406 359.63373 100.29212Q359.78476 99.8852 360.1565 99.629425Q360.53986 99.37364 361.22522 99.37364Q361.6667 99.37364 362.20105 99.47828L362.05002 100.39676Q361.72476 100.33863 361.43433 100.33863Q360.95804 100.33863 360.76056 100.547905Q360.56308 100.74555 360.56308 101.30361L360.56308 101.87331L361.7596 101.87331L361.7596 102.68715L360.56308 102.68715L360.56308 108.04688L359.51755 108.04688ZM366.59802 107.27955Q366.01718 107.77948 365.48282 107.988754Q364.94843 108.1864 364.33273 108.1864Q363.31046 108.1864 362.76447 107.68647Q362.21848 107.18654 362.21848 106.4192Q362.21848 105.965775 362.42758 105.59373Q362.6367 105.21006 362.96194 104.98916Q363.29883 104.75663 363.71704 104.64037Q364.0307 104.55898 364.6464 104.48923Q365.91263 104.33809 366.5167 104.128815Q366.5167 103.90791 366.5167 103.84978Q366.5167 103.210335 366.2263 102.95455Q365.8197 102.59414 365.02975 102.59414Q364.29788 102.59414 363.93777 102.86154Q363.58926 103.117325 363.42664 103.768394L362.40436 103.62888Q362.54373 102.977806 362.8574 102.570885Q363.18268 102.16396 363.78674 101.95469Q364.39084 101.73379 365.18076 101.73379Q365.9707 101.73379 366.45862 101.91981Q366.95816 102.105835 367.1905 102.384865Q367.42282 102.663895 367.51575 103.09407Q367.57385 103.36147 367.57385 104.05905L367.57385 105.454216Q367.57385 106.91913 367.63193 107.302795Q367.70163 107.68647 367.8991 108.04688L366.80713 108.04688Q366.6445 107.721344 366.59802 107.27955ZM366.5167 104.94266Q365.94748 105.17518 364.80902 105.33795Q364.15848 105.43096 363.8913 105.547226Q363.6241 105.66349 363.47308 105.89601Q363.33368 106.11691 363.33368 106.384315Q363.33368 106.802864 363.64734 107.0819Q363.97263 107.36093 364.5767 107.36093Q365.18076 107.36093 365.64545 107.10515Q366.12173 106.837746 366.34247 106.372696Q366.5167 106.0239 366.5167 105.326324L366.5167 104.94266ZM369.17114 108.04688L369.17114 99.52479L370.21667 99.52479L370.21667 108.04688L369.17114 108.04688ZM371.419 106.198296L372.4529 106.03553Q372.53424 106.66335 372.9292 107.00051Q373.3358 107.32605 374.04443 107.32605Q374.76468 107.32605 375.11316 107.03539Q375.46167 106.73311 375.46167 106.337814Q375.46167 105.98902 375.15964 105.77975Q374.93893 105.640236 374.09088 105.43096Q372.94083 105.140305 372.48776 104.93103Q372.04633 104.71013 371.814 104.33809Q371.59326 103.96604 371.59326 103.51262Q371.59326 103.09407 371.77914 102.74528Q371.965 102.39649 372.29028 102.16396Q372.53424 101.97794 372.95245 101.86168Q373.38226 101.73379 373.85855 101.73379Q374.59042 101.73379 375.1364 101.94306Q375.6824 102.152336 375.93796 102.51276Q376.20517 102.86154 376.30972 103.46611L375.2874 103.60563Q375.2177 103.128944 374.88083 102.86154Q374.54395 102.59414 373.93988 102.59414Q373.21964 102.59414 372.90598 102.83829Q372.60394 103.070816 372.60394 103.38473Q372.60394 103.594 372.73172 103.75677Q372.8595 103.91954 373.12668 104.035805Q373.28934 104.09393 374.05603 104.30321Q375.15964 104.593864 375.60107 104.79151Q376.0425 104.97753 376.28647 105.33795Q376.54205 105.698364 376.54205 106.23318Q376.54205 106.75636 376.2284 107.22141Q375.92636 107.67484 375.34552 107.93062Q374.77628 108.1864 374.05603 108.1864Q372.8479 108.1864 372.22058 107.68647Q371.59326 107.18654 371.419 106.198296ZM382.00195 106.058784L383.08234 106.18667Q382.82675 107.14003 382.12976 107.663216Q381.44437 108.1864 380.3756 108.1864Q379.01642 108.1864 378.2265 107.349304Q377.43655 106.51221 377.43655 105.01241Q377.43655 103.45448 378.2381 102.59414Q379.03967 101.73379 380.3175 101.73379Q381.54892 101.73379 382.32724 102.58251Q383.1172 103.41961 383.1172 104.94266Q383.1172 105.03567 383.1172 105.22169L378.5169 105.22169Q378.57498 106.244804 379.08612 106.79124Q379.6089 107.32605 380.3756 107.32605Q380.95645 107.32605 381.36304 107.023766Q381.76962 106.72148 382.00195 106.058784ZM378.57498 104.361336L382.01358 104.361336Q381.94388 103.582375 381.6186 103.19871Q381.11908 102.59414 380.32913 102.59414Q379.6089 102.59414 379.10938 103.08244Q378.62146 103.55912 378.57498 104.361336Z" fill-rule="nonzero"/><path fill="#fce5cd" clip-path="url(#id_0)" d="M448.06622 92.31631L471.62338 92.31631L471.62338 115.07241L448.06622 115.07241Z" fill-rule="evenodd"/><path stroke="#000000" stroke-width="0.7437813458751885" stroke-linejoin="round" stroke-linecap="butt" stroke-dasharray="0.7437813458751885,2.2313440376255658" clip-path="url(#id_0)" d="M448.06622 92.31631L471.62338 92.31631L471.62338 115.07241L448.06622 115.07241Z" fill-rule="evenodd"/><path fill="#000000" clip-path="url(#id_0)" d="M460.33362 108.84342L460.33362 107.93657Q459.65985 109.006195 458.3239 109.006195Q457.46426 109.006195 456.74402 108.52951Q456.02377 108.05283 455.6288 107.20411Q455.23383 106.35539 455.23383 105.25089Q455.23383 104.16964 455.59396 103.29767Q455.95407 102.41406 456.6627 101.94901Q457.38293 101.48396 458.27744 101.48396Q458.92798 101.48396 459.42752 101.76299Q459.93866 102.030396 460.25232 102.4722L460.25232 98.902916L461.47208 98.902916L461.47208 108.84342L460.33362 108.84342ZM456.48843 105.25089Q456.48843 106.63442 457.0693 107.32037Q457.65015 108.006325 458.44006 108.006325Q459.24164 108.006325 459.79926 107.355255Q460.35687 106.69255 460.35687 105.35553Q460.35687 103.87898 459.78763 103.19303Q459.2184 102.49545 458.382 102.49545Q457.58044 102.49545 457.03445 103.15815Q456.48843 103.820854 456.48843 105.25089Z" fill-rule="nonzero"/></svg>